<svg xmlns="http://www.w3.org/2000/svg" xmlns:xlink="http://www.w3.org/1999/xlink" width="1024" height="1024" viewBox="0 0 1024 1024"><path fill="#644435" d="M714.667 22.2254C770.339 62.8565 807.156 137.943 817.593 204.937C819.952 220.08 821.587 235.739 821.053 251.085C826.924 258.084 832.828 265.057 838.261 272.405C854.531 294.411 869.864 318.649 897.315 327.812C890.785 329.095 884.372 329.801 877.718 329.964C880.531 333.604 884.228 336.357 887.471 339.589C890.352 342.46 892.873 345.743 895.838 348.508L890.392 348.525C892.072 359.524 889.814 368.697 887.094 379.324C910.014 375.218 932.729 372.324 956.013 371.26C961.129 371.027 967.671 370.269 972.669 371.282C948.494 372.651 924.401 375.2 900.475 378.921C896.036 379.657 890.427 380.061 886.257 381.674C882.345 395.27 875.423 407.846 869.212 420.47C909.706 420.671 952.471 424.777 991.192 437.273C980.686 436.679 966.111 432.402 955.176 430.512C930.659 426.277 891.563 422.271 867.114 424.006C859.971 436.771 851.402 448.806 842.494 460.392C861.869 465.358 881.892 468.978 900.485 476.563L901.937 478.11C900.745 478.552 896.716 476.663 894.742 476.829C889.8 476.392 880.612 472.484 875.337 470.985C863.897 467.733 852.097 465.172 840.415 462.949C834.619 469.588 829.661 476.768 823.496 483.108C786.05 521.61 735.554 550.757 684.354 566.559C688.058 577.068 692.272 587.756 697.402 597.653C713.369 628.457 737.089 659.146 735.282 695.502C728.442 686.692 724.195 675.815 717.053 667.387C722.092 681.265 726.193 695.969 723.496 710.801C722.657 715.413 720.483 719.92 721.281 724.645L720.587 724.596C716.699 718.08 716.528 709.065 713.921 701.88C713.987 706.76 714.193 711.731 713.654 716.588C712.854 723.796 711.053 730.928 710.035 738.134C706.875 760.711 703.324 783.231 699.383 805.684C694.111 838.911 690.116 872.328 687.405 905.862C689.768 906.102 692.401 906.622 694.762 906.448L694.207 905.852C694.8 905.563 694.94 905.465 695.671 905.286C706.496 902.642 732.612 905.156 744.247 906.078C757.487 907.127 770.8 907.95 784.002 909.405C812.551 912.551 885.834 922.871 909.021 936.969C911.862 938.696 915.185 941.215 915.867 944.692C916.292 946.855 915.526 949.014 914.242 950.741C905.021 963.146 854.298 971.678 838.915 974.335C802.3 980.661 767.053 984.379 730.101 987.69C649.525 994.803 568.625 997.59 487.75 996.041C475.257 995.888 462.764 996.156 450.271 995.894C421.349 995.049 392.441 993.808 363.554 992.169C312.443 989.377 261.875 985.5 211.182 978.187C186.972 974.694 133.314 967.524 113.885 953.237C111.695 951.627 109.454 949.385 109.098 946.556C108.808 944.253 109.903 942.125 111.323 940.392C130.468 917.023 262.2 906.548 296.741 902.514C293.422 889.931 287.655 878.482 283.026 866.389C271.77 836.99 266.633 806.738 269.664 775.362C243.024 779.614 216.516 780.161 190.378 772.5C160.047 763.611 134.658 747.965 114.333 723.587C109.153 717.373 104.239 710.913 100.358 703.794C74.8701 657.045 80.6213 608.791 95.5661 559.917C101.08 541.883 107.687 524.178 112.994 506.084C116.284 494.868 124.427 468.726 118.416 458.487C116.535 455.283 113.426 453.133 109.848 452.236C98.5986 449.418 83.5263 456.399 74.2534 462.243C69.4471 465.271 65.0684 468.962 60.183 471.858L59.7084 472.134C56.4399 467.93 54.1384 463.61 53.2742 458.313C50.6366 442.145 58.2817 423.022 67.7414 410.228C80.9766 392.561 100.614 380.792 122.434 377.45C139.156 375.031 156.374 378.013 170.063 388.34C184.077 398.911 193.457 414.269 197.278 431.312C210.333 489.548 172.187 542.469 157.825 596.351C152.927 614.727 151.011 633.965 153.812 652.85C157.278 676.214 169.411 697.358 188.62 711.333C213.085 729.131 252.122 736.515 282.02 731.879C287.408 722.367 292.847 713.173 299.599 704.547C324.925 672.187 361.259 653.862 398.986 639.987C406.332 637.257 413.712 634.621 421.124 632.077C427.053 630.038 434.075 628.299 439.466 625.098C439.607 625.014 439.744 624.926 439.883 624.839C441.495 621.144 445.819 616.866 448.557 613.836C460.527 598.834 476.383 583.84 490.601 570.799C472.531 567.087 453.546 562.856 436.889 554.65C415.189 567.83 394.145 583.612 374.27 599.388C371.334 601.719 354.044 617.18 352.229 617.788C353.872 614.814 358.187 611.468 360.708 609.073C383.184 587.723 408.161 570.486 433.992 553.514C414.873 544.745 397.203 535.073 379.907 523.106C364.072 529.463 348.427 535.895 333.378 543.994C329.004 546.349 305.897 561.159 304.665 561.352C306.028 559.209 310.23 556.924 312.364 555.413C332.607 541.079 354.386 530.81 377.128 521.171C369.457 515.098 360.827 509.896 352.726 504.398C349.368 502.119 345.563 498.603 341.848 497.154L339.599 498.393L338.99 498.134C340.707 493.613 344.182 489.437 346.256 484.965L346.54 484.345C341.638 484.425 336.646 485.405 331.793 486.088C333.755 482 336.862 478.386 339.225 474.492C340.704 472.056 343.746 466.834 343.054 464.064C336.605 468.639 325.775 470.859 318.113 473.007C330.775 456.84 341.811 440.275 347.447 420.258C342.787 415.71 338.09 411.153 333.895 406.167C314.508 383.128 299.523 353.085 290.165 324.58C286.343 312.937 283.85 301.073 281.667 289.029C271.788 234.52 274.607 174.818 294.838 122.794C297.534 115.864 301.085 109.207 304.442 102.58C305.34 101.023 306.043 99.7092 307.477 98.594C350.596 102.68 431.835 151.725 466.313 179.025C470.178 182.085 478.86 190.155 482.769 191.43C483.844 191.781 485.049 191.527 485.948 190.851C490.508 187.425 492.025 175.333 493.902 169.963C495.129 166.455 496.659 163.003 498.26 159.652C503.817 148.025 511.033 136.76 520.657 128.085C523.261 125.738 526.618 122.308 530.308 122.309C531.392 123.086 531.807 123.543 532.086 124.89C533.555 131.963 525.679 153.987 523.004 161.258C535.242 144.275 550.117 130.844 568.972 121.498C571.397 120.297 574.098 118.304 576.743 117.761C578.271 117.448 579.146 117.841 580.385 118.686C581.153 121.051 579.849 123.776 578.784 125.865C574.106 135.033 562.494 149.963 555.799 158.329C567.605 151.116 579.317 144.542 592.9 141.219C594.806 140.752 597.771 139.921 599.663 140.218C600.93 140.418 601.134 140.842 601.828 141.792C601.827 143.727 600.713 144.998 599.386 146.349C592.843 153.01 583.946 157.238 577.602 164.12C596.291 159.028 616.557 156.489 635.922 156.601C648.216 119.551 663.868 84.982 686.806 53.2227C694.913 41.9976 703.842 30.9645 714.667 22.2254Z" data-index="1" style="opacity: 1;"></path><path fill="#E1A363" d="M519.888 172.585C532.511 151.761 553.268 134.011 575.187 123.524C572.743 127.607 570.274 131.642 567.617 135.592C564.252 141.484 560.495 147.281 556.304 152.624C550.403 160.147 543.592 166.986 539.849 175.921C560.966 161.977 566.423 152.914 593.245 146.535C586.467 153.127 578.43 158.707 571.131 164.732L572.9 165.356C571.695 167.211 569.404 169.103 568.861 171.172C577.461 168.83 585.995 166.88 594.743 165.176C599.773 164.429 604.804 163.599 609.868 163.124C610.04 165.122 613.215 166.881 614.502 168.656C616.035 168.668 617.626 168.593 619.141 168.815C632.043 169.051 644.891 169.25 657.674 171.169C665.089 172.283 672.341 174.928 679.766 175.386C679.851 175.391 679.934 175.41 680.019 175.423C690.955 176.019 701.914 178.506 711.256 184.497C713.535 185.959 715.514 187.89 717.676 189.52C744.047 200.832 776.713 226.763 797.013 247.101C805.646 255.75 813.624 265.125 821.368 274.57C826.743 281.109 832.045 287.707 837.274 294.364C842.203 300.624 846.936 307.29 852.971 312.545C857.788 316.74 869.982 324.008 876.459 321.503C876.607 321.445 876.742 321.358 876.883 321.286C880.492 323 884.078 324.759 887.642 326.565C883.43 326.445 864.188 323.942 862.265 324.902C863.498 326.829 866.709 327.358 868.744 328.248C872.397 329.847 888.685 343.146 889.105 346.488L889.158 348.257C888.098 348.939 888.681 348.678 887.577 348.987C886.51 349.286 886.998 349.06 886.033 349.812C886.237 353.231 886.722 357.532 885.828 360.871C884.051 358.621 876.134 356.233 873.297 354.867C871.421 359.242 869.699 364.37 866.59 368.015C859.248 376.62 835.652 386.439 824.712 390.82C816.684 394.035 806.427 398.446 797.895 399.219C785.308 403.113 771.085 406.919 757.878 407.061C757.645 407.111 757.411 407.164 757.177 407.21C754.604 407.72 751.631 407.637 749.01 407.66C732.454 407.802 717.39 401.813 703.948 392.462C700.974 389.886 698.145 387.344 695.545 384.386L692.721 384.317C688.448 380.013 683.887 375.834 680.324 370.896C673.471 361.396 668.974 350.262 663.925 339.76C656.976 325.305 649.969 310.8 642.409 296.655C632.841 278.754 620.784 262.322 607.492 247.035C607.059 265.62 606.317 283.975 608.274 302.504C610.224 320.965 613.294 339.261 615.031 357.765C618.608 395.874 613.55 421.372 585.035 448.632C575.831 457.437 565.669 465.182 554.741 471.724C549.699 474.73 541.443 477.773 537.348 481.643C529.924 484.106 520.624 484.426 512.826 485.447C501.867 486.871 490.943 488.551 480.063 490.486C472.582 491.749 465.137 493.222 457.739 494.903C452.069 496.25 443.993 499.242 438.567 499.465C430.317 501.906 421.892 504.203 413.891 507.376C403.798 510.222 394.189 515.006 384.465 518.896C380.453 517.43 375.94 513.335 372.294 510.896C363.92 505.223 355.417 499.744 346.792 494.462C348.764 490.193 352.585 484.951 355.955 481.712L356.023 480.577C352.919 479.32 344.494 481.675 340.909 482.186C345.465 474.007 348.798 465.993 351.733 457.132C348.376 459.039 345.053 460.977 341.516 462.538C336.981 464.775 332.339 466.46 327.491 467.882C335.829 456.931 343.876 446.544 348.89 433.527C354.135 419.911 355.343 402.044 357.563 387.503C363.447 348.962 375.403 310.929 397.719 278.567C409.005 262.2 422.442 246.014 437.391 232.869C449.509 222.213 462.576 211.218 475.584 201.716C477.207 200.53 492.782 190.158 492.79 190.147C493.046 189.793 493.068 189.318 493.207 188.904C493.8 189.182 493.417 189.074 494.4 188.953C497.863 185.691 512.243 159.6 516.096 153.181C517.449 150.928 518.936 147.553 520.779 145.753C521.901 144.657 522.617 144.803 524.091 144.722C522.199 150.923 520.405 157.21 518.13 163.282C515.608 170.012 512.486 176.524 510.189 183.336C513.926 180.201 516.807 176.338 519.888 172.585Z" data-index="2"></path><path fill="#080706" d="M695.545 384.386C670.479 353.023 659.328 308.149 663.699 268.256C665.372 252.99 670.94 235.275 683.457 225.409C693.424 217.554 706.841 216.282 719.081 217.787C743.469 220.785 766.304 239.476 780.882 258.302C800.599 283.765 814.449 316.932 810.323 349.595C808.113 367.086 800.525 383.876 786.266 394.811C784.201 396.4 782.062 397.892 779.857 399.281C772.602 402.755 765.59 404.905 757.878 407.061C757.645 407.111 757.411 407.164 757.177 407.21C754.604 407.72 751.631 407.637 749.01 407.66C732.454 407.802 717.39 401.813 703.948 392.462C700.974 389.886 698.145 387.344 695.545 384.386Z" data-index="3"></path><path fill="white" d="M705.754 227.67C718.281 226.103 731.503 231.03 742.458 236.622C770.92 251.15 792.884 281.263 802.418 311.396C808.632 331.034 809.015 355.801 799.297 374.405C792.254 387.886 779.8 397.332 765.405 401.874C762.442 402.786 759.336 403.374 756.265 403.787C738.198 406.363 719.86 401.484 705.46 390.272C682.285 372.264 671.778 341.89 668.156 313.706C665.184 290.583 664.389 260.945 679.527 241.593C686.393 232.815 694.905 229.05 705.754 227.67Z" data-index="4"></path><path fill="#994E25" d="M677.111 332.7C672.1 318.466 671.049 299.903 677.717 286.015C681.359 278.428 687.492 272.786 695.484 270.073C703.622 267.311 712.314 268.728 719.863 272.49C737.875 281.464 751.377 299.968 757.586 318.784C762.301 333.07 763.61 349.009 756.619 362.818C752.647 370.664 745.676 376.951 737.251 379.644C727.923 382.625 718.064 381.13 709.509 376.61C699.056 371.087 689.344 360.957 684.273 350.27C681.226 345.052 678.299 338.657 677.111 332.7Z" data-index="5"></path><path fill="#080706" d="M676.392 303.747C678.214 293.827 681.017 283.33 689.78 277.204C695.836 272.97 703.292 272.597 710.336 273.951C724.293 276.632 735.71 286.6 743.413 298.151C753.437 313.182 760.545 332.969 756.737 351.192C754.988 359.564 750.302 366.63 743.074 371.263C735.982 375.855 727.323 377.357 719.098 375.422C708.241 372.899 698.285 364.977 692.233 355.76C690.056 353.211 688.219 350.257 686.303 347.502C685.826 344.102 683.297 339.605 682.103 336.181C680.341 331.127 679.095 326.054 678.037 320.817C678.003 319.107 677.547 317.303 677.261 315.614C676.925 311.662 676.635 307.706 676.392 303.747Z" data-index="6"></path><path fill="#CD834D" d="M676.392 303.747C678.214 293.827 681.017 283.33 689.78 277.204C695.836 272.97 703.292 272.597 710.336 273.951C724.293 276.632 735.71 286.6 743.413 298.151C753.437 313.182 760.545 332.969 756.737 351.192C754.988 359.564 750.302 366.63 743.074 371.263C735.982 375.855 727.323 377.357 719.098 375.422C708.241 372.899 698.285 364.977 692.233 355.76C692.67 355.265 693.094 354.747 693.661 354.39C695.251 353.385 699.406 352.694 701.202 353.096C699.967 354.306 698.172 354.979 696.632 355.758C699.888 354.655 704.127 354.451 707.541 354.787C710.913 356.659 713.697 358.527 717.424 359.737C722.391 361.35 727.636 361.705 732.37 359.168C737.581 356.377 740.494 350.885 742.001 345.368C745.235 333.531 742.149 321.133 736.178 310.69C730.641 301.008 721.029 289.045 709.665 286.206C703.134 284.575 697.415 286.05 691.713 289.327C687.741 290.064 684.932 290.848 682.513 294.398C680.297 297.65 679.93 301.855 680.752 305.628C681.422 308.702 682.619 311.039 684.617 313.444C682.088 315.397 679.664 313.939 677.261 315.614C676.925 311.662 676.635 307.706 676.392 303.747Z" data-index="7"></path><path fill="#DF8D55" d="M728.325 362.985C731.452 362.893 734.797 363.02 737.686 364.294L737.869 364.795L732.882 365.796C729.268 366.67 725.634 367.458 721.982 368.16C724.03 366.37 726.279 364.82 728.325 362.985Z" data-index="8"></path><path fill="#DF8D55" d="M712.797 360.08L714.264 361.023C712.973 363.277 709.157 364.342 706.87 365.357L705.174 364.71L705.152 363.999C706.53 362.123 710.568 361.037 712.797 360.08Z" data-index="9"></path><path fill="#DF8D55" d="M684.617 313.444C685.931 314.341 687.381 315.576 688.833 316.203C687.579 318.566 689.185 324.446 689.966 326.974C693.307 337.78 698.966 347.356 707.541 354.787C704.127 354.451 699.888 354.655 696.632 355.758C698.172 354.979 699.967 354.306 701.202 353.096C699.406 352.694 695.251 353.385 693.661 354.39C693.094 354.747 692.67 355.265 692.233 355.76C690.056 353.211 688.219 350.257 686.303 347.502C685.826 344.102 683.297 339.605 682.103 336.181C680.341 331.127 679.095 326.054 678.037 320.817C678.003 319.107 677.547 317.303 677.261 315.614C679.664 313.939 682.088 315.397 684.617 313.444Z" data-index="10"></path><path fill="white" d="M691.713 289.327C696.048 291.076 698.948 293.448 700.879 297.803C702.608 301.703 702.916 306.403 701.344 310.407C700.339 312.968 698.502 314.977 695.945 316.042C693.524 317.05 691.307 316.793 688.833 316.203C687.381 315.576 685.931 314.341 684.617 313.444C682.619 311.039 681.422 308.702 680.752 305.628C679.93 301.855 680.297 297.65 682.513 294.398C684.932 290.848 687.741 290.064 691.713 289.327Z" data-index="11"></path><path fill="#D7C2A8" d="M355.955 481.712C358.328 483.778 387.627 488.885 394.012 492.286C400.011 497.973 406.893 503.01 413.891 507.376C403.798 510.222 394.189 515.006 384.465 518.896C380.453 517.43 375.94 513.335 372.294 510.896C363.92 505.223 355.417 499.744 346.792 494.462C348.764 490.193 352.585 484.951 355.955 481.712Z" data-index="12"></path><path fill="#CD834D" d="M594.743 165.176C599.773 164.429 604.804 163.599 609.868 163.124C610.04 165.122 613.215 166.881 614.502 168.656C616.035 168.668 617.626 168.593 619.141 168.815C629.34 182.401 634.346 197.298 634.536 214.232C629.233 209.179 625.244 202.877 620.832 197.062C613.784 187.773 606.042 177.915 597.928 169.547L596.907 169.877C596.569 168.277 595.489 166.637 594.743 165.176Z" data-index="13"></path><path fill="#D7C2A8" d="M594.743 165.176C599.773 164.429 604.804 163.599 609.868 163.124C610.04 165.122 613.215 166.881 614.502 168.656C609.017 169.176 603.436 169.399 597.928 169.547L596.907 169.877C596.569 168.277 595.489 166.637 594.743 165.176Z" data-index="14"></path><path fill="#080706" d="M680.019 175.423C690.955 176.019 701.914 178.506 711.256 184.497C713.535 185.959 715.514 187.89 717.676 189.52C718.275 190.748 718.675 191.604 718.829 192.985C716.876 194.205 703.093 190.717 700.123 190.192C691.415 188.653 682.846 188.431 674.032 188.139C669.414 187.987 664.228 188.258 659.729 187.146C657.847 186.682 656.746 186.111 655.76 184.427C656.023 183.54 656.03 183.213 656.689 182.506C662.117 176.683 672.62 175.522 680.019 175.423Z" data-index="15"></path><path fill="#B56E43" d="M779.857 399.281C786.655 400.329 832.527 375.956 841.28 371.766C846.288 369.369 851.344 367.235 856.528 365.248C849.901 375.181 825.936 386.734 814.606 391.499C809.692 393.566 804.203 395.063 799.503 397.525C798.574 398.012 798.408 398.314 797.895 399.219C785.308 403.113 771.085 406.919 757.878 407.061C765.59 404.905 772.602 402.755 779.857 399.281Z" data-index="16"></path><path fill="#D7C2A8" d="M519.888 172.585C532.511 151.761 553.268 134.011 575.187 123.524C572.743 127.607 570.274 131.642 567.617 135.592L566.958 135.37C568.071 132.855 570.792 130.306 571.211 127.692L570.583 126.942C567.03 127.755 560.878 132.326 558.826 135.328C558.462 135.861 558.236 136.403 557.993 136.998C558.677 137.704 558.234 137.409 559.423 137.71C558.327 138.456 557.657 137.657 556.654 138.468C553.568 140.963 550.866 145.484 548.366 148.666C542.87 155.661 536.955 162.227 531.316 169.089C528.202 172.878 525.492 177.234 521.79 180.474C520.983 177.852 520.142 175.332 519.888 172.585Z" data-index="17"></path><path fill="#F1E6D4" d="M394.012 492.286C403.188 494.115 412.433 496.231 421.693 497.571C427.056 498.346 433.468 497.94 438.567 499.465C430.317 501.906 421.892 504.203 413.891 507.376C406.893 503.01 400.011 497.973 394.012 492.286Z" data-index="18"></path><path fill="#F1E6D4" d="M568.861 171.172C577.461 168.83 585.995 166.88 594.743 165.176C595.489 166.637 596.569 168.277 596.907 169.877C588.878 170.445 575.612 173.54 568.181 171.696L568.861 171.172Z" data-index="19"></path><defs><linearGradient id="gradient_0" gradientUnits="userSpaceOnUse" x1="885.87805" y1="351.42471" x2="876.14392" y2="342.55115"><stop offset="0" stop-color="#5C3B30"></stop><stop offset="1" stop-color="#765444"></stop></linearGradient></defs><path fill="url(#gradient_0)" d="M869.034 345.068C873.238 344.989 877.307 345.192 881.487 345.67C883.942 345.951 886.644 346.59 889.105 346.488L889.158 348.257C888.098 348.939 888.681 348.678 887.577 348.987C886.51 349.286 886.998 349.06 886.033 349.812C881.633 348.503 876.993 348.612 872.564 347.131C871.365 346.481 870.204 345.768 869.034 345.068Z" data-index="20"></path><path fill="#562924" d="M571.131 164.732L572.9 165.356C571.695 167.211 569.404 169.103 568.861 171.172L568.181 171.696C565.563 171.397 562.289 172.48 559.697 173.004C563.223 170.093 566.969 166.68 571.131 164.732Z" data-index="21"></path><path fill="#080706" d="M505.545 264.183C526.979 262.637 546.932 268.292 564.122 281.353C590.069 301.196 607.179 330.44 611.765 362.782C615.032 388.112 608.19 413.709 592.721 434.031C577.953 453.313 558.103 464.278 534.118 467.422C511.023 468.421 489.53 462.173 470.905 448.312C447.676 430.951 432.295 405.072 428.146 376.37C424.057 348.834 431.169 320.807 447.892 298.552C462.127 279.581 482.101 267.471 505.545 264.183Z" data-index="22"></path><path fill="white" d="M507.73 274.002C527.929 270.451 550.57 279.418 566.896 290.808C589.215 306.377 604.049 332.911 608.78 359.421C613.171 384.022 607.67 407.739 593.244 428.096C590.994 431.271 587.992 435.724 584.917 438.101C574.382 451.204 555.185 460.355 538.831 462.915C515.827 466.514 494.114 459.178 475.613 445.625C455.507 430.898 440.881 407.695 437.15 382.966C433.166 356.555 439.716 327.354 455.706 305.795C468.687 288.292 486.114 277.231 507.73 274.002Z" data-index="23"></path><path fill="#F1E6D4" d="M584.917 438.101C574.382 451.204 555.185 460.355 538.831 462.915C515.827 466.514 494.114 459.178 475.613 445.625C455.507 430.898 440.881 407.695 437.15 382.966C433.166 356.555 439.716 327.354 455.706 305.795C468.687 288.292 486.114 277.231 507.73 274.002C507.48 274.231 507.234 274.463 506.981 274.688C501.835 279.239 494.256 281.597 488.615 285.724C468.818 300.207 455.038 325.552 452.838 349.869C450.653 374.015 458.69 401.899 474.343 420.6C488.629 437.667 508.099 449.159 530.442 450.926C544.216 452.016 559.437 450.449 571.982 444.3C576.024 442.32 580.452 438.609 584.917 438.101Z" data-index="24"></path><path fill="#994E25" d="M548.366 301.7C558.132 301.368 568.6 305.59 576.247 311.489C590.082 322.16 599.189 339.934 601.32 357.105C603.287 372.963 600.176 391.571 590.088 404.388C582.574 413.934 573.193 418.843 561.249 420.328C550.297 421.18 538.891 417.104 530.479 410.172C517.612 399.571 509.288 383.144 507.719 366.595C506.091 349.418 510.241 329.7 521.462 316.199C528.531 307.695 537.37 302.766 548.366 301.7Z" data-index="25"></path><path fill="#CD834D" d="M522.564 320.37C530.118 312.392 537.878 306.65 549.31 306.171C559.991 305.724 570.925 311.926 578.38 319.154C580.709 321.413 583.51 324.367 585.12 327.163C594.208 336.747 598.794 354.765 598.493 367.682C598.176 381.263 592.471 398.122 582.35 407.555C575.567 413.878 566.626 416.455 557.478 416.114C545.201 415.656 534.803 409.255 526.64 400.386C515.181 387.937 510.84 372.692 511.694 355.924C511.825 353.362 512.161 350.801 512.482 348.257L513.585 341.327L514.217 338.799C515.325 333.221 518.496 324.31 522.564 320.37Z" data-index="26"></path><path fill="#080706" d="M537.868 319.866C544.423 317.054 550.783 316.449 557.56 319.073C560.015 320.023 562.185 321.426 564.387 322.843C576.296 333.777 582.976 346.933 583.631 363.217C584.06 373.85 582.297 386.556 574.666 394.621C571.092 398.471 566.088 400.676 560.835 400.718C553.285 400.849 545.658 397.247 540.414 391.917C531.642 383.002 527.293 369.035 527.433 356.734C527.462 354.208 527.558 351.64 527.779 349.122L528.76 348.138C529.479 348.279 530.19 348.373 530.921 348.416C534.346 348.617 537.895 347.745 540.468 345.365C543.154 342.88 544.372 339.229 544.493 335.641C544.706 329.33 541.923 324.41 537.868 319.866Z" data-index="27"></path><path fill="white" d="M523.003 321.46C524.502 319.965 525.972 318.859 528.049 318.287C531.576 317.317 534.756 318.106 537.868 319.866C541.923 324.41 544.706 329.33 544.493 335.641C544.372 339.229 543.154 342.88 540.468 345.365C537.895 347.745 534.346 348.617 530.921 348.416C530.19 348.373 529.479 348.279 528.76 348.138C528.116 347.717 527.479 347.284 526.85 346.841C521.805 343.263 520.548 338.517 519.528 332.734C519.489 327.867 520.033 325.381 523.003 321.46Z" data-index="28"></path><path fill="#DF8D55" d="M522.564 320.37L523.003 321.46C520.033 325.381 519.489 327.867 519.528 332.734C519.516 334.907 519.471 337.084 519.519 339.256C518.098 340.57 515.412 340.721 513.585 341.327L514.217 338.799C515.325 333.221 518.496 324.31 522.564 320.37Z" data-index="29"></path><path fill="#DF8D55" d="M542.371 400.1C543.159 400.239 542.835 400.044 543.327 400.707L542.615 401.529C538.728 403.056 534.602 403.083 530.487 403.049C529.663 402.691 530 402.994 529.597 402.02C531.789 400.719 539.297 400.621 542.371 400.1Z" data-index="30"></path><path fill="#CD834D" d="M560.068 177.703C561.543 177.541 562.998 177.556 564.481 177.624C574.849 178.105 586.745 185.078 593.535 192.718C606.772 207.614 608.481 228.368 607.476 247.317C604.75 244.571 602.188 241.652 599.587 238.787C589.328 227.233 579.534 215.418 568.474 204.582C560.275 196.549 551.314 189.465 542.878 181.707C548.577 179.921 554.13 178.439 560.068 177.703Z" data-index="31"></path><path fill="#080706" d="M499.639 211.56C501.874 211.42 505.45 211.271 507.212 213.038C508.136 213.964 508.517 214.807 508.422 216.13C508.278 218.145 506.42 219.779 505.059 221.065C501.059 224.843 496.171 227.973 491.75 231.245C484.273 236.78 476.757 242.579 469.915 248.885C461.265 256.857 453.762 266.256 445.869 274.971C444.259 276.893 442.547 278.744 440.883 280.621C443.886 270.626 447.295 260.82 452.721 251.844C463.276 234.384 479.088 216.675 499.639 211.56Z" data-index="32"></path><path fill="#CD834D" d="M424.333 455.712C430.406 454.97 440.544 455.605 445.629 459.257C447.39 460.522 448.68 462.305 448.899 464.505C449.132 466.841 448.142 469.055 446.641 470.797C441.191 477.126 430.632 478.556 422.83 479.302C416.697 480.092 406.838 478.988 401.757 475.28C400.006 474.001 398.59 472.171 398.363 469.955C398.134 467.714 399.155 465.559 400.606 463.909C406.078 457.685 416.58 456.385 424.333 455.712Z" data-index="33"></path><path fill="#CD834D" d="M510.874 188.215C517.064 187.921 521.997 188.457 527.538 191.341C541.035 198.364 546.724 212.369 551.07 226.153C551.829 228.56 553.729 233.864 552.532 236.18C551.255 235.861 550.907 234.96 550.119 233.949C537.286 215.982 520.964 200.786 502.127 189.268L510.874 188.215Z" data-index="34"></path><path fill="#CD834D" d="M844.968 337.616C846.634 337.516 848.931 337.161 850.543 337.591C852.685 338.162 854.514 339.666 855.631 341.578C856.457 342.991 856.482 344.418 855.954 345.938C853.754 352.281 834.48 359.145 828.24 362.462C825.314 364.102 822.264 365.441 819.205 366.812C820.534 362.192 822.373 357.735 824.689 353.524C829.318 345.253 835.867 340.183 844.968 337.616Z" data-index="35"></path><path fill="#F1E6D4" d="M607.492 247.035C620.784 262.322 632.841 278.754 642.409 296.655C649.969 310.8 656.976 325.305 663.925 339.76C668.974 350.262 673.471 361.396 680.324 370.896C683.887 375.834 688.448 380.013 692.721 384.317L695.545 384.386C698.145 387.344 700.974 389.886 703.948 392.462C717.39 401.813 732.454 407.802 749.01 407.66C751.631 407.637 754.604 407.72 757.177 407.21C757.411 407.164 757.645 407.111 757.878 407.061C771.085 406.919 785.308 403.113 797.895 399.219C806.427 398.446 816.684 394.035 824.712 390.82C835.652 386.439 859.248 376.62 866.59 368.015C869.699 364.37 871.421 359.242 873.297 354.867C876.134 356.233 884.051 358.621 885.828 360.871C884.607 367.491 883.047 374.044 881.153 380.503C882.465 380.365 884.083 379.844 885.205 380.551L885.169 381.35C883.585 381.969 881.053 383.321 879.361 383.158C880.293 385.777 873.062 400.862 871.428 404.291L863.754 420.002C865.23 419.958 866.727 419.849 868.2 419.978C865.65 420.722 865.072 420.99 863.2 422.857L863.558 423.108L862.985 423.704L861.42 423.683C853.526 435.903 845.292 447.899 836.728 459.658C827.12 457.735 817.218 456.405 807.49 455.232L804.908 456.885C814.869 458.417 824.778 460.002 834.682 461.871C822.158 476.493 804.123 496.233 788.42 507.172C779.167 514.945 768.577 521.52 758.345 527.916C695.312 567.315 622.273 581.544 548.66 575.098C531.97 573.637 514.777 570.749 498.375 567.318C496.091 568.402 494.785 569.619 493.356 571.7C482.259 581.125 472.137 592.311 462.098 602.855C458.655 606.471 455.301 610.449 451.644 613.835C449.068 617.136 446.281 620.246 443.505 623.378C441.907 625.073 438.89 630.57 436.775 630.853C436.945 629.253 439.068 626.406 439.883 624.839C441.495 621.144 445.819 616.866 448.557 613.836C460.527 598.834 476.383 583.84 490.601 570.799C492.575 569.461 494.19 567.895 495.896 566.245C501.594 563.266 510.598 554.245 515.611 549.623C511.95 548.092 507.779 547.114 503.977 545.919C496.224 543.508 488.506 540.986 480.825 538.353C477.63 537.25 473.726 536.287 470.942 534.369C483.077 527.766 495.61 521.99 507.957 515.81C538.296 500.625 569.017 485.482 601.525 475.536L601.714 475.105C598.432 474.757 593.845 476.655 590.711 477.605C579.217 481.09 568.034 485.912 557.045 490.717C534.932 500.386 513.646 511.177 492.02 521.863C484.319 525.669 476.735 529.872 468.852 533.278C451.378 528.365 430.693 518.313 414.986 509.02C405.277 512.647 395.531 516.183 386.012 520.291C384.949 520.161 385.504 520.311 384.376 519.749L384.465 518.896C394.189 515.006 403.798 510.222 413.891 507.376C421.892 504.203 430.317 501.906 438.567 499.465C443.993 499.242 452.069 496.25 457.739 494.903C465.137 493.222 472.582 491.749 480.063 490.486C490.943 488.551 501.867 486.871 512.826 485.447C520.624 484.426 529.924 484.106 537.348 481.643C541.443 477.773 549.699 474.73 554.741 471.724C565.669 465.182 575.831 457.437 585.035 448.632C613.55 421.372 618.608 395.874 615.031 357.765C613.294 339.261 610.224 320.965 608.274 302.504C606.317 283.975 607.059 265.62 607.492 247.035Z" data-index="36"></path><path fill="#D7C2A8" d="M517.959 550.568C525.334 553.35 547.43 556.11 555.974 557.258C623.174 566.283 683.925 559.097 745.561 530.236C755.359 525.647 765.161 519.883 774.472 514.363C778.07 512.229 781.682 509.516 785.419 507.685C786.358 507.225 787.393 507.179 788.42 507.172C779.167 514.945 768.577 521.52 758.345 527.916C695.312 567.315 622.273 581.544 548.66 575.098C531.97 573.637 514.777 570.749 498.375 567.318C504.401 561.341 511.447 556.028 517.959 550.568Z" data-index="37"></path><path fill="#593E2D" d="M515.611 549.623C537.891 530.306 560.513 511.605 584.494 494.439C589.804 490.639 595.913 485.348 602.005 482.921C598.9 486.215 594.415 488.74 590.744 491.402C584.722 495.832 578.734 500.308 572.779 504.828C561.398 513.448 550.572 522.695 539.67 531.904C532.414 538.032 524.837 544.021 517.959 550.568C511.447 556.028 504.401 561.341 498.375 567.318C496.091 568.402 494.785 569.619 493.356 571.7C482.259 581.125 472.137 592.311 462.098 602.855C458.655 606.471 455.301 610.449 451.644 613.835C449.068 617.136 446.281 620.246 443.505 623.378C441.907 625.073 438.89 630.57 436.775 630.853C436.945 629.253 439.068 626.406 439.883 624.839C441.495 621.144 445.819 616.866 448.557 613.836C460.527 598.834 476.383 583.84 490.601 570.799C492.575 569.461 494.19 567.895 495.896 566.245C501.594 563.266 510.598 554.245 515.611 549.623Z" data-index="38"></path><path fill="#593E2D" d="M537.348 481.643C557.708 479.236 577.954 474.088 598.169 470.573C592.483 473.403 585.112 474.229 578.901 475.513C562.533 478.898 545.855 481.309 529.579 484.957C513.057 485.743 466.169 493.633 450.818 499.05C438.618 501.107 426.68 505.053 414.986 509.02C405.277 512.647 395.531 516.183 386.012 520.291C384.949 520.161 385.504 520.311 384.376 519.749L384.465 518.896C394.189 515.006 403.798 510.222 413.891 507.376C421.892 504.203 430.317 501.906 438.567 499.465C443.993 499.242 452.069 496.25 457.739 494.903C465.137 493.222 472.582 491.749 480.063 490.486C490.943 488.551 501.867 486.871 512.826 485.447C520.624 484.426 529.924 484.106 537.348 481.643Z" data-index="39"></path><path fill="#E1A363" d="M450.818 499.05C466.169 493.633 513.057 485.743 529.579 484.957C517.861 492.872 464.771 501.747 450.818 499.05Z" data-index="40"></path><path fill="#593E2D" d="M863.754 420.002C865.23 419.958 866.727 419.849 868.2 419.978C865.65 420.722 865.072 420.99 863.2 422.857L863.558 423.108L862.985 423.704L861.42 423.683C855.408 423.067 848.47 424.286 842.435 424.815C817.554 426.773 792.833 430.401 768.439 435.673C761.04 437.228 746.949 441.538 740.228 441.669C746.923 438.84 754.925 437.439 761.992 435.727C785.39 430.057 808.363 425.892 832.264 423.169C836.33 422.706 861.551 421.409 863.315 420.356C863.477 420.26 863.608 420.12 863.754 420.002Z" data-index="41"></path><path fill="#593E2D" d="M881.153 380.503C882.465 380.365 884.083 379.844 885.205 380.551L885.169 381.35C883.585 381.969 881.053 383.321 879.361 383.158C867.401 386.759 854.86 388.469 842.802 391.743C808.037 401.181 767.632 415.852 736.049 432.978L735.466 432.78C749.357 423.258 774.756 413.724 791.015 407.507C806.605 401.544 822.24 395.516 838.341 391.023C852.505 387.07 866.965 384.33 881.153 380.503Z" data-index="42"></path><path fill="#593E2D" d="M779.439 454.316C767.42 453.444 755.162 452.992 743.269 450.999C747.367 449.872 779.454 452.124 785.162 452.927C792.631 453.413 800.079 454.182 807.49 455.232L804.908 456.885C796.419 455.955 787.955 454.971 779.439 454.316Z" data-index="43"></path><path fill="#D7C2A8" d="M692.721 384.317L695.545 384.386C698.145 387.344 700.974 389.886 703.948 392.462C703.14 392.585 702.327 392.649 701.513 392.728C697.571 391.196 695.275 387.517 692.721 384.317Z" data-index="44"></path><path fill="#562924" d="M679.759 441.562C670.732 440.491 646.362 439.321 640.586 432.371C639.515 431.083 638.847 429.397 639.008 427.706C639.346 424.141 642.745 421.209 645.423 419.174C657.072 410.318 681.529 401.853 696.253 403.82C699.056 404.194 700.709 405.281 702.381 407.535C702.753 408.037 703.081 408.556 703.413 409.086C703.536 411.026 703.765 413.134 703.42 415.055C701.756 424.335 692.064 434.674 685.955 441.639C685.91 441.69 685.859 441.737 685.812 441.787C683.732 441.393 681.858 441.459 679.759 441.562Z" data-index="45"></path><path fill="#AA5052" d="M648.152 420.739C655.958 415.012 667.519 411.117 676.876 408.708C682.224 407.332 691.293 404.84 696.344 407.795C697.761 409.403 698.893 410.92 699.919 412.804C700.247 422.52 690.269 432.334 684.457 439.416L683.842 439.301C675.5 437.812 646.442 437.439 642.23 430.756C641.53 429.647 641.435 428.24 641.897 427.017C642.925 424.294 645.898 422.385 648.152 420.739Z" data-index="46"></path><path fill="#E27A76" d="M647.196 423.578C657.369 414.641 679.967 409.305 693.354 407.914C694.72 408.767 695.542 409.271 696.27 410.785C696.596 413.969 693.743 418.45 691.772 420.818C688.277 425.015 683.755 427.144 678.358 427.584C668.866 428.359 659.13 425.903 649.673 426.361C649.063 425.335 648.021 424.446 647.196 423.578Z" data-index="47"></path><path fill="#CE6D68" d="M693.354 407.914L696.344 407.795C697.761 409.403 698.893 410.92 699.919 412.804C696.479 418.647 690.822 427.195 685.016 430.951C684.883 431.038 684.754 431.13 684.623 431.219C676.704 431.874 656.533 432.185 650.201 426.855C650.017 426.7 649.849 426.526 649.673 426.361C659.13 425.903 668.866 428.359 678.358 427.584C683.755 427.144 688.277 425.015 691.772 420.818C693.743 418.45 696.596 413.969 696.27 410.785C695.542 409.271 694.72 408.767 693.354 407.914Z" data-index="48"></path><path fill="#D7C2A8" d="M630.504 453.9C639.551 449.976 649.426 446.878 659.132 450.747C661.707 451.774 664.147 453.377 665.294 456.002C666.332 458.376 666.103 461.222 665.115 463.57C663.871 466.53 661.488 468.724 658.509 469.885C651.227 472.721 637.227 470.609 630.25 467.174C626.89 465.52 624.047 460.786 620.484 460.466L619.143 461.347C618.424 460.264 617.594 459.468 616.653 458.59C617.842 456.305 622.056 453.566 624.35 452.271C624.404 452.24 624.457 452.207 624.51 452.175L630.504 453.9Z" data-index="49"></path><path fill="#593E2D" d="M723.545 446.368C723.451 445.763 723.324 445.122 723.385 444.504C723.554 442.793 724.744 440.546 726.056 439.456C726.931 438.729 726.811 438.923 727.826 439.028C727.342 440.401 726.663 441.222 727.286 442.594L729.271 443.032L729.402 444.2C728.92 444.636 728.298 444.954 727.957 445.507C727.191 446.752 727.044 453.863 726.72 455.775C724.934 466.298 716.437 478.028 704.717 477.276C697.702 476.826 692.255 470.997 688.001 465.949C685.176 473.923 681.434 480.624 673.421 484.499C664.896 488.622 654.538 488.354 645.785 485.106C636.278 481.577 621.156 470.257 617.243 460.609C616.97 459.936 616.79 459.3 616.653 458.59C617.594 459.468 618.424 460.264 619.143 461.347C624.103 468.487 633.065 475.985 640.97 479.711C649.408 483.688 660.14 484.684 668.967 481.38C674.622 479.264 679.4 475.236 681.881 469.666C686.029 460.357 683.085 450.564 679.759 441.562C681.858 441.459 683.732 441.393 685.812 441.787C684.987 445.344 690.68 459.829 692.811 463.243C696.117 468.54 700.645 471.397 706.672 472.685C713.359 470.929 718.375 467.217 721.966 461.243C724.476 457.067 726.341 450.937 726.196 446.012L725.616 444.939C724.59 445.33 724.305 445.616 723.545 446.368Z" data-index="50"></path><path fill="#D7C2A8" d="M723.545 446.368C723.037 448.165 722.36 449.734 721.498 451.381C719.583 455.04 716.706 458.561 712.58 459.731C710.166 460.415 707.417 460.29 705.268 458.9C702.319 456.993 700.848 452.996 700.283 449.692C699.593 445.754 700.528 441.705 702.875 438.469C705.125 435.311 708.56 433.202 712.394 432.626C718.684 431.709 723.201 434.794 728.012 438.279L727.826 439.028C726.811 438.923 726.931 438.729 726.056 439.456C724.744 440.546 723.554 442.793 723.385 444.504C723.324 445.122 723.451 445.763 723.545 446.368Z" data-index="51"></path><path fill="#AC8177" d="M718.406 438.861C719.454 439.446 719.855 440.514 720.375 441.55C721.419 443.631 721.392 444.53 720.671 446.716C719.318 448.05 718.658 448.046 716.846 448.474C716.201 448.125 715.402 447.749 714.856 447.26C713.798 446.31 713.54 445.559 713.397 444.189C714.28 441.214 715.766 440.372 718.406 438.861Z" data-index="52"></path><path fill="#593E2D" d="M706.33 496.464L706.693 496.85C706.604 497.248 706.553 497.531 706.431 497.906C704.605 503.496 699.607 509.238 694.242 511.63C689.695 513.657 685.156 513.482 680.568 511.714C679.773 511.206 679.386 511.038 678.915 510.196C681.461 510.496 684.134 510.817 686.689 510.508C695.593 509.429 701.109 503.018 706.33 496.464Z" data-index="53"></path><path fill="#F1E6D4" d="M694.762 906.448L694.207 905.852C694.8 905.563 694.94 905.465 695.671 905.286C706.496 902.642 732.612 905.156 744.247 906.078C757.487 907.127 770.8 907.95 784.002 909.405C812.551 912.551 885.834 922.871 909.021 936.969C911.862 938.696 915.185 941.215 915.867 944.692C916.292 946.855 915.526 949.014 914.242 950.741C905.021 963.146 854.298 971.678 838.915 974.335C802.3 980.661 767.053 984.379 730.101 987.69C649.525 994.803 568.625 997.59 487.75 996.041C475.257 995.888 462.764 996.156 450.271 995.894C421.349 995.049 392.441 993.808 363.554 992.169C312.443 989.377 261.875 985.5 211.182 978.187C186.972 974.694 133.314 967.524 113.885 953.237C111.695 951.627 109.454 949.385 109.098 946.556C108.808 944.253 109.903 942.125 111.323 940.392C130.468 917.023 262.2 906.548 296.741 902.514C297.728 913.388 290.742 922.651 287.967 932.795C277.188 935.32 265.379 937.14 254.981 940.793C251.511 942.012 245.133 944.193 243.643 947.827C243.197 948.914 243.483 950.07 244.054 951.057C247.3 956.67 264.758 960.409 270.884 961.624C299.941 967.391 329.322 970.228 358.812 972.586C404.218 976.217 449.746 978.129 495.297 978.319C532.231 978.752 569.33 979.341 606.241 977.83C623.324 977.13 640.423 975.497 657.465 974.124C682.193 972.132 706.924 969.929 731.318 965.275C742.414 963.157 763.961 959.532 772.876 953.228C774.288 952.23 775.51 951.113 775.727 949.31C775.846 948.324 775.446 947.395 774.828 946.631C768.516 938.819 737.233 933.67 726.468 932.131C725.874 928.74 724.983 925.649 723.205 922.666C717.033 912.311 705.732 909.111 694.762 906.448Z" data-index="54"></path><path fill="#C1BEBF" d="M596.315 910.139C598.898 911.177 616.422 912.026 620.458 912.034C624.602 925.191 630.378 945.5 643.394 952.219C659.085 960.319 693.812 958.226 710.646 952.626C716.544 950.665 721.885 947.248 724.711 941.511C726.202 938.486 726.476 935.454 726.468 932.131C737.233 933.67 768.516 938.819 774.828 946.631C775.446 947.395 775.846 948.324 775.727 949.31C775.51 951.113 774.288 952.23 772.876 953.228C763.961 959.532 742.414 963.157 731.318 965.275C706.924 969.929 682.193 972.132 657.465 974.124C640.423 975.497 623.324 977.13 606.241 977.83C569.33 979.341 532.231 978.752 495.297 978.319C449.746 978.129 404.218 976.217 358.812 972.586C329.322 970.228 299.941 967.391 270.884 961.624C264.758 960.409 247.3 956.67 244.054 951.057C243.483 950.07 243.197 948.914 243.643 947.827C245.133 944.193 251.511 942.012 254.981 940.793C265.379 937.14 277.188 935.32 287.967 932.795C287.775 937.086 287.995 941.456 291.122 944.738C306.355 960.732 375.647 966.377 398.01 966.541C413.523 966.654 438.178 967.29 449.685 955.426C453.741 951.245 455.608 945.503 455.385 939.738C455.023 930.403 450.2 923.214 443.492 917.104C447.49 917.298 451.748 917.8 455.702 917.13C456.719 923.254 457.86 932.485 463.338 936.302C474.897 944.355 514.866 944.254 529.941 943.656C530.224 951.604 529.773 960.017 536.038 966.005C547.106 976.584 569.992 977.141 584.227 976.485C596.883 975.902 616.699 974.549 625.644 964.368C628.34 961.3 629.647 957.678 629.337 953.592C628.759 945.995 623.696 937.627 617.829 932.888C610.463 926.938 603.863 926.64 595.292 924.278C596.268 919.641 595.623 914.825 596.315 910.139Z" data-index="55" style="opacity: 1;"></path><path fill="#CD834D" d="M308.869 103.477L309.846 102.29C310.693 103.433 311.67 104.173 311.335 105.713C310.32 110.385 307.231 115.653 305.552 120.219C302.291 129.089 299.91 138.611 297.912 147.848C284.785 208.513 291.121 279.731 317.638 336.026C325.179 352.037 339.242 376.626 352.192 388.172C350.752 397.133 349.451 406.116 348.289 415.118C338.391 403.721 328.941 391.998 320.942 379.17C288.769 327.57 277.572 264.26 281.868 204.162C284.281 170.408 292.626 133.331 308.869 103.477Z" data-index="56"></path><path fill="#D7C2A8" d="M609.868 163.124C668.95 155.386 727.87 178.306 774.207 213.811C794.89 229.659 812.222 248.16 828.921 268.061C844.459 286.579 855.241 308.782 876.883 321.286C876.742 321.358 876.607 321.445 876.459 321.503C869.982 324.008 857.788 316.74 852.971 312.545C846.936 307.29 842.203 300.624 837.274 294.364C832.045 287.707 826.743 281.109 821.368 274.57C813.624 265.125 805.646 255.75 797.013 247.101C776.713 226.763 744.047 200.832 717.676 189.52C715.514 187.89 713.535 185.959 711.256 184.497C701.914 178.506 690.955 176.019 680.019 175.423C679.934 175.41 679.851 175.391 679.766 175.386C672.341 174.928 665.089 172.283 657.674 171.169C644.891 169.25 632.043 169.051 619.141 168.815C617.626 168.593 616.035 168.668 614.502 168.656C613.215 166.881 610.04 165.122 609.868 163.124Z" data-index="57"></path><path fill="#D7C2A8" d="M386.012 520.291C395.531 516.183 405.277 512.647 414.986 509.02C430.693 518.313 451.378 528.365 468.852 533.278C459.258 538.499 449.597 543.949 440.392 549.831C421.661 540.744 403.465 531.706 386.012 520.291Z" data-index="58"></path><path fill="white" d="M493.356 571.7C504.848 573.562 516.352 575.611 527.882 577.204C519.209 583.218 511.286 590.24 502.616 596.254C488.511 606.039 473.456 612.592 457.592 618.876C453.669 620.429 447.728 623.718 443.505 623.378C446.281 620.246 449.068 617.136 451.644 613.835C455.301 610.449 458.655 606.471 462.098 602.855C472.137 592.311 482.259 581.125 493.356 571.7Z" data-index="59"></path><path fill="#D7C2A8" d="M442.872 550.676C451.869 544.824 461.368 539.216 470.942 534.369C473.726 536.287 477.63 537.25 480.825 538.353C488.506 540.986 496.224 543.508 503.977 545.919C507.779 547.114 511.95 548.092 515.611 549.623C510.598 554.245 501.594 563.266 495.896 566.245C485.66 565.278 451.781 555.726 442.872 550.676Z" data-index="60"></path><path fill="white" d="M426.434 892.569C434.751 891.968 443.006 890.896 451.276 889.856C452.447 898.994 453.923 908.091 455.702 917.13C451.748 917.8 447.49 917.298 443.492 917.104C435.633 910.561 424.381 908.259 414.486 907.411C418.908 902.74 422.906 897.952 426.434 892.569Z" data-index="61"></path><path fill="white" d="M599.052 850.431C600.768 849.541 602.472 848.609 604.214 847.773C605.089 853.825 606.703 859.817 608.084 865.77C610.595 876.599 613.172 887.307 616.406 897.944C616.262 898.037 616.126 898.141 615.975 898.221C612.436 900.085 601.872 899.213 598.237 898.008C597.081 897.624 597.299 897.568 596.782 896.583C597.124 881.181 597.881 865.792 599.052 850.431Z" data-index="62"></path><path fill="#F5C184" d="M493.207 188.904C495.581 172.061 506.137 151.71 517.002 138.53C519.137 135.939 523.756 130.081 527.198 129.758C528.354 132.839 525.025 141.384 524.091 144.722C522.617 144.803 521.901 144.657 520.779 145.753C518.936 147.553 517.449 150.928 516.096 153.181C512.243 159.6 497.863 185.691 494.4 188.953C493.417 189.074 493.8 189.182 493.207 188.904Z" data-index="63"></path><path fill="#F1E6D4" d="M596.315 910.139C596.624 905.628 596.414 901.102 596.782 896.583C597.299 897.568 597.081 897.624 598.237 898.008C601.872 899.213 612.436 900.085 615.975 898.221C616.126 898.141 616.262 898.037 616.406 897.944C617.616 902.706 618.937 907.36 620.458 912.034C616.422 912.026 598.898 911.177 596.315 910.139Z" data-index="64"></path><path fill="#593E2D" d="M304.442 102.58C305.34 101.023 306.043 99.7092 307.477 98.594C308.162 99.7341 308.916 101.376 309.846 102.29L308.869 103.477C307.503 102.96 305.889 102.822 304.442 102.58Z" data-index="65"></path><path fill="#E1A363" d="M596.744 581.097C625.436 579.562 653.332 575.727 680.982 567.739C683.386 576.157 686.026 584.435 689.833 592.348C704.233 624.528 724.178 649.401 731.189 684.78L730.835 684.266C722.364 671.692 721.192 664.076 707.463 654.191C715.315 673.079 719.896 689.207 719.306 709.899C717.456 702.706 714.971 695.899 710.081 690.171C710.216 713.877 708.586 725.48 697.776 746.965C683.6 780.243 656.152 809.113 626.492 829.292C617.818 835.193 607.773 839.531 599.47 845.786C600.684 835 602.049 824.297 603.674 813.564C606.808 794.6 611.319 765.518 622.284 750.001C615.904 756.055 612.204 763.988 608.696 771.911C595.504 807.266 592.187 852.451 591.2 890.213C591.03 897.38 591.028 904.549 591.194 911.716C591.276 915.916 591.84 920.638 591.228 924.784C579.498 921.321 555.096 926.929 543.742 931.331L543.365 931.843C539.872 933.624 536.349 935.362 532.897 937.219C519.615 896.033 504.614 855.808 495.541 813.371C493.232 802.573 490.459 790.739 490.626 779.657C492.062 777.466 493.321 775.478 493.129 772.779L492.419 772.379C488.764 773.53 487.013 776.361 484.739 779.253C487.216 771.464 489.838 763.704 493.549 756.405C494.454 754.244 495.618 752.114 495.49 749.727L494.9 748.828C492.652 749.301 491.384 751.294 490.164 753.137C486.556 758.586 484.377 765.12 482.624 771.37C482.104 779.55 481.061 788.655 477.937 796.245L477.444 799.953C476.626 802.876 477 806.142 476.968 809.163L476.909 809.405C463.322 811.5 449.613 813.578 435.91 814.761C433.188 808.14 430.382 802.819 425.564 797.504C428.206 803.006 430.896 808.456 432.589 814.343C437.641 831.909 436.354 853.707 430.278 870.848C423.894 888.858 413.03 905.107 395.315 913.56C381.847 919.987 367.601 922.367 352.803 922.893C347.869 923.068 342.886 922.876 337.967 923.241C336.052 923.265 333.845 922.668 331.936 922.366L331.824 922.118C321.467 919.596 311.018 916.801 301.131 912.777C301.823 909.438 301.996 906.265 301.502 902.885C300.203 893.99 296.31 885.238 293.122 876.875C290.21 869.38 287.527 861.798 285.078 854.14C275.64 824.677 270.57 794.015 277.473 763.38C285.061 729.235 305.334 701.048 332.98 680.147C343.283 670.64 363.982 660.632 376.983 655.069C381.542 652.735 386.303 650.965 391.074 649.123C396.6 646.582 430.088 633.778 434.643 633.264C431.075 639.257 421.38 654.001 422.085 660.719C425.063 655.965 427.91 647.782 430.881 642.34C433.446 637.642 435.653 632.832 441.077 631.229C458.171 627.105 477.299 617.322 493.24 609.7C500.907 605.03 508.118 599.87 515.281 594.466C522.049 589.228 528.329 583.376 535.178 578.246C555.776 580.074 576.061 581.169 596.744 581.097Z" data-index="66" style="opacity: 1;"></path><path fill="#F1E6D4" d="M596.744 581.097C625.436 579.562 653.332 575.727 680.982 567.739C683.386 576.157 686.026 584.435 689.833 592.348C704.233 624.528 724.178 649.401 731.189 684.78L730.835 684.266C722.364 671.692 721.192 664.076 707.463 654.191C715.315 673.079 719.896 689.207 719.306 709.899C717.456 702.706 714.971 695.899 710.081 690.171C710.216 713.877 708.586 725.48 697.776 746.965C683.6 780.243 656.152 809.113 626.492 829.292C617.818 835.193 607.773 839.531 599.47 845.786C600.684 835 602.049 824.297 603.674 813.564C606.808 794.6 611.319 765.518 622.284 750.001C615.904 756.055 612.204 763.988 608.696 771.911C608.448 771.348 608.344 771.203 608.272 770.504C607.944 767.323 609.001 762.757 609.288 759.487C609.805 753.853 609.954 748.192 609.734 742.54C609.199 725.451 606.239 707.236 601.445 690.817C600.255 696.546 599.413 702.311 598.006 707.998C590.821 696.309 586.844 684.064 585.487 670.432C585.249 672.754 585.049 675.103 584.677 677.408C584.348 679.45 583.881 681.363 582.183 682.613L581.08 682.076C573.576 671.131 575.676 646.245 576.954 633.109C576.745 633.554 576.547 634.003 576.336 634.446C574.036 639.284 573.514 646.522 570.278 650.567L569.423 650.555C568.991 650.031 568.97 650.053 568.609 649.337C565.089 642.365 567.095 616.65 569.459 608.455L569.513 608.142C570.832 604.309 571.468 600.037 572.497 596.094C573.79 591.136 575.483 586.319 577.178 581.489C583.531 581.527 590.468 582.023 596.744 581.097Z" data-index="67"></path><path fill="#D7C2A8" d="M596.744 581.097C625.436 579.562 653.332 575.727 680.982 567.739C683.386 576.157 686.026 584.435 689.833 592.348L689.218 592.567C683.05 594.822 677.334 598.248 671.111 600.327C637.245 611.637 604.684 612.25 569.459 608.455L569.513 608.142C570.832 604.309 571.468 600.037 572.497 596.094C573.79 591.136 575.483 586.319 577.178 581.489C583.531 581.527 590.468 582.023 596.744 581.097Z" data-index="68"></path><path fill="#D7C2A8" d="M697.776 746.965C683.6 780.243 656.152 809.113 626.492 829.292C617.818 835.193 607.773 839.531 599.47 845.786C600.684 835 602.049 824.297 603.674 813.564C609.841 810.671 616.818 808.986 623.172 806.379C636.898 800.745 649.088 792.478 660.561 783.157C667.414 777.59 674.37 771.382 680.652 765.177C685.548 760.341 691.909 749.901 697.776 746.965Z" data-index="69"></path><path fill="#CD834D" d="M391.074 649.123C396.6 646.582 430.088 633.778 434.643 633.264C431.075 639.257 421.38 654.001 422.085 660.719C422.606 663.227 415.424 692.431 414.749 698.013C413.085 711.761 412.304 725.444 413.29 739.283C413.725 745.39 414.813 751.412 415.296 757.509C409.012 753.223 403.828 747.847 399.433 741.651C385.631 722.193 382.012 691.061 386.098 667.762C387.153 661.743 390.095 655.924 390.955 650.021C390.998 649.722 391.034 649.422 391.074 649.123Z" data-index="70"></path><path fill="#CD834D" d="M441.077 631.229C458.171 627.105 477.299 617.322 493.24 609.7C493.102 609.991 492.968 610.284 492.826 610.573C490.091 616.164 485.367 620.69 482.793 626.534C469.727 656.208 471.588 686.958 472.596 718.358C455.609 706.819 446.956 689.431 443.142 669.619C440.681 656.831 440.943 644.175 441.077 631.229Z" data-index="71"></path><path fill="#CD834D" d="M332.98 680.147C343.283 670.64 363.982 660.632 376.983 655.069C364.856 685.268 354.234 706.688 355.699 740.741C356.043 748.727 357.455 756.467 358.232 764.393C343.732 755.937 333.96 744.17 329.696 727.798C326.791 716.645 326.721 703.238 329.729 692.099C330.699 688.508 332.937 683.781 332.98 680.147Z" data-index="72"></path><path fill="#CD834D" d="M277.473 763.38C278.324 764.239 278.694 764.815 278.918 766.019C279.876 771.187 279.502 776.835 280.011 782.098C280.799 790.248 282.532 798.431 284.448 806.384C288.529 823.319 296.523 839.771 304.422 855.196C313.632 873.181 331.877 900.223 331.846 919.838C331.845 920.598 331.837 921.358 331.824 922.118C321.467 919.596 311.018 916.801 301.131 912.777C301.823 909.438 301.996 906.265 301.502 902.885C300.203 893.99 296.31 885.238 293.122 876.875C290.21 869.38 287.527 861.798 285.078 854.14C275.64 824.677 270.57 794.015 277.473 763.38Z" data-index="73" style="opacity: 1;"></path><path fill="#CD834D" d="M484.739 779.253C487.216 771.464 489.838 763.704 493.549 756.405C494.811 759.111 495.955 771.071 496.806 775.411C498.637 784.738 500.94 794.2 503.912 803.235C512.132 828.225 519.171 853.588 527.238 878.633C532.625 895.354 540.871 914.208 543.742 931.331L543.365 931.843C539.872 933.624 536.349 935.362 532.897 937.219C519.615 896.033 504.614 855.808 495.541 813.371C493.232 802.573 490.459 790.739 490.626 779.657C492.062 777.466 493.321 775.478 493.129 772.779L492.419 772.379C488.764 773.53 487.013 776.361 484.739 779.253Z" data-index="74"></path><path fill="#CD834D" d="M535.178 578.246C555.776 580.074 576.061 581.169 596.744 581.097C590.468 582.023 583.531 581.527 577.178 581.489C575.483 586.319 573.79 591.136 572.497 596.094C571.468 600.037 570.832 604.309 569.513 608.142C557.658 607.633 525.642 599.85 515.281 594.466C522.049 589.228 528.329 583.376 535.178 578.246Z" data-index="75"></path><path fill="#CD834D" d="M482.624 771.37C482.104 779.55 481.061 788.655 477.937 796.245C476.875 788.999 479.324 777.909 482.624 771.37Z" data-index="76"></path><path fill="#B56E43" d="M187.946 419.505C200.257 442.868 193.704 478.693 186.129 503.143C170.98 552.047 140.617 599.17 148.516 652.292C150.16 663.349 153.168 674.168 158.342 684.116C171.273 708.98 193.291 724.127 219.735 732.23C239.438 738.268 259.266 738.783 279.604 737.382L276.904 743.816C275.104 748.699 273.13 753.812 272.236 758.952L270.014 766.916C262.672 768.963 255.402 770.315 247.858 771.286C220.754 775.243 186.79 767.286 162.728 754.857C139.477 742.847 117.946 722.72 105.198 699.683C86.3752 665.67 85.1498 625.005 94.0785 587.759C101.408 557.186 113.684 527.909 121.845 497.592C125.157 485.291 128.871 469.795 124.839 457.333L124.612 456.65C127.07 452.945 129.788 449.48 132.532 445.988C132.739 445.733 132.938 445.472 133.151 445.223C144.45 432.01 159.496 420.978 177.295 419.902C180.801 419.284 184.628 420.568 187.946 419.505Z" data-index="77"></path><path fill="#E1A363" d="M187.946 419.505C200.257 442.868 193.704 478.693 186.129 503.143C170.98 552.047 140.617 599.17 148.516 652.292C150.16 663.349 153.168 674.168 158.342 684.116C171.273 708.98 193.291 724.127 219.735 732.23C239.438 738.268 259.266 738.783 279.604 737.382L276.904 743.816C275.104 748.699 273.13 753.812 272.236 758.952C263.884 760.105 255.646 761.753 247.185 761.907C243.9 761.09 239.764 761.445 236.366 761.336C230.97 761.195 225.582 760.837 220.215 760.261C211.271 759.232 202.913 756.169 194.138 754.383C182.052 750.968 166.547 742.838 156.12 735.743C159.253 727.923 164.366 717.285 172.276 713.308C161.495 701.911 154.221 689.819 148.053 675.502C144.383 663.698 141.917 652.551 141.019 640.187C140.787 625.488 141.874 610.678 145.744 596.437C148.658 584.887 153.673 568.003 158.842 557.365C165.192 541.96 170.99 526.452 176.79 510.836C181.632 497.479 184.092 483.299 186.866 469.422C187.992 456.921 188.901 431.241 181.716 420.655C180.517 419.772 178.734 419.964 177.295 419.902C180.801 419.284 184.628 420.568 187.946 419.505Z" data-index="78"></path><path fill="#DF8D55" d="M172.276 713.308C182.397 722.56 195.226 731.409 208.289 735.958C201.569 741.545 197.635 746.296 194.138 754.383C182.052 750.968 166.547 742.838 156.12 735.743C159.253 727.923 164.366 717.285 172.276 713.308Z" data-index="79"></path><path fill="#CD834D" d="M208.289 735.958C221.099 739.473 234.895 743.544 248.239 743.539C247.835 749.078 245.681 756.584 247.185 761.907C243.9 761.09 239.764 761.445 236.366 761.336C230.97 761.195 225.582 760.837 220.215 760.261C211.271 759.232 202.913 756.169 194.138 754.383C197.635 746.296 201.569 741.545 208.289 735.958Z" data-index="80" style="opacity: 1;"></path><path fill="#DF8D55" d="M248.239 743.539C257.788 743.982 267.349 744.074 276.904 743.816C275.104 748.699 273.13 753.812 272.236 758.952C263.884 760.105 255.646 761.753 247.185 761.907C245.681 756.584 247.835 749.078 248.239 743.539Z" data-index="81"></path><path fill="#CD834D" d="M132.532 445.988C132.739 445.733 132.938 445.472 133.151 445.223C144.45 432.01 159.496 420.978 177.295 419.902C178.734 419.964 180.517 419.772 181.716 420.655C188.901 431.241 187.992 456.921 186.866 469.422C184.092 483.299 181.632 497.479 176.79 510.836C160.048 503.661 147.414 504.687 130.106 508.605C133.12 499.588 133.76 489.872 135.94 480.65C136.406 476.051 136.657 471.433 136.692 466.811C136.731 461.162 136.765 450.246 132.532 445.988Z" data-index="82"></path><path fill="#DF8D55" d="M135.94 480.65C139.373 478.144 142.842 475.787 146.572 473.741C159.294 466.761 173.01 465.299 186.866 469.422C184.092 483.299 181.632 497.479 176.79 510.836C160.048 503.661 147.414 504.687 130.106 508.605C133.12 499.588 133.76 489.872 135.94 480.65Z" data-index="83"></path><path fill="#CD834D" d="M130.106 508.605C147.414 504.687 160.048 503.661 176.79 510.836C170.99 526.452 165.192 541.96 158.842 557.365C153.673 568.003 148.658 584.887 145.744 596.437C138.43 594.336 130.9 593.132 123.27 593.266C119.923 593.325 106.156 595.6 104.666 595.139C107.503 582.312 109.296 568.549 114.567 556.417C118.159 545.056 122.432 533.988 126.161 522.695C127.694 518.053 128.553 513.205 130.106 508.605Z" data-index="84"></path><path fill="#DF8D55" d="M114.567 556.417C132.601 552.616 140.836 553.061 158.842 557.365C153.673 568.003 148.658 584.887 145.744 596.437C138.43 594.336 130.9 593.132 123.27 593.266C119.923 593.325 106.156 595.6 104.666 595.139C107.503 582.312 109.296 568.549 114.567 556.417Z" data-index="85"></path><path fill="#CD834D" d="M104.666 595.139C106.156 595.6 119.923 593.325 123.27 593.266C130.9 593.132 138.43 594.336 145.744 596.437C141.874 610.678 140.787 625.488 141.019 640.187C125.949 638.057 117.78 639.477 104.374 646.844C102.185 629.333 101.87 612.623 104.666 595.139Z" data-index="86"></path><path fill="#CD834D" d="M148.053 675.502C154.221 689.819 161.495 701.911 172.276 713.308C164.366 717.285 159.253 727.923 156.12 735.743C141.667 727.687 125.387 707.96 118.751 692.781C130.161 684.471 135.158 681.433 148.053 675.502Z" data-index="87"></path><path fill="#DF8D55" d="M104.374 646.844C117.78 639.477 125.949 638.057 141.019 640.187C141.917 652.551 144.383 663.698 148.053 675.502C135.158 681.433 130.161 684.471 118.751 692.781C111.665 677.856 107.181 663.118 104.374 646.844Z" data-index="88"></path><defs><linearGradient id="gradient_1" gradientUnits="userSpaceOnUse" x1="294.55362" y1="256.76917" x2="381.33127" y2="226.45206"><stop offset="0" stop-color="#D07164"></stop><stop offset="1" stop-color="#F38F79"></stop></linearGradient></defs><path fill="url(#gradient_1)" d="M314.98 106.093C322.362 111.834 330.34 116.525 337.179 122.999C343.927 128.205 350.08 134.533 356.068 140.583C378.897 163.467 398.546 189.315 414.489 217.433C418.391 224.164 423.025 231.314 425.4 238.753C410.723 230.632 397.069 223.21 379.699 227.222L379.166 227.898L379.417 228.192C394.447 226.719 409.692 231.874 421.416 241.164C419.948 242.708 418.31 244.226 417.017 245.915L415.442 246.763C414.611 248.634 412.235 251.742 410.461 252.778C410.29 252.878 410.085 252.899 409.897 252.959C409.022 254.019 408.881 253.951 407.448 254.062C406.839 254.11 406.18 254.064 405.574 254.049L408.33 254.839C407.073 257.478 404.83 259.95 403.067 262.281C401.037 264.965 398.935 268.362 396.362 270.549C393.977 272.576 386.791 275.459 383.287 277.79L378.819 281.545C375.678 284.697 372.367 288.008 370.073 291.851L369.612 292.31C373.264 293.672 377.366 294.849 380.565 297.088C365.969 325.478 357.908 350.092 352.606 381.658C348.7 377.348 345.373 372.242 342.093 367.439C333.024 354.166 325.05 340.961 318.71 326.159C290.736 260.855 288.547 172.184 314.98 106.093Z" data-index="89"></path><path fill="#CE6D68" d="M337.179 122.999C343.927 128.205 350.08 134.533 356.068 140.583C378.897 163.467 398.546 189.315 414.489 217.433C418.391 224.164 423.025 231.314 425.4 238.753C410.723 230.632 397.069 223.21 379.699 227.222L379.166 227.898L370.63 227.859C372.073 226.734 376.898 227.34 378.775 227.365C373.795 198.579 363.706 171.351 350.45 145.393C348.82 142.201 347.262 138.909 345.324 135.891C342.676 131.766 338.929 127.558 337.179 122.999Z" data-index="90"></path><path fill="#CE6D68" d="M379.417 228.192C394.447 226.719 409.692 231.874 421.416 241.164C419.948 242.708 418.31 244.226 417.017 245.915L415.442 246.763C414.611 248.634 412.235 251.742 410.461 252.778C410.29 252.878 410.085 252.899 409.897 252.959C401.963 249.355 390.51 251.094 382.163 251.929C381.003 245.08 380.181 238.16 379.262 231.274C372.649 230.002 365.754 229.777 359.039 229.229C362.915 228.49 366.689 228.065 370.63 227.859L379.166 227.898L379.417 228.192Z" data-index="91"></path><path fill="#CE6D68" d="M379.417 228.192C394.447 226.719 409.692 231.874 421.416 241.164C419.948 242.708 418.31 244.226 417.017 245.915L415.442 246.763C404.035 239.583 392.345 234.574 379.262 231.274C372.649 230.002 365.754 229.777 359.039 229.229C362.915 228.49 366.689 228.065 370.63 227.859L379.166 227.898L379.417 228.192Z" data-index="92"></path><defs><linearGradient id="gradient_2" gradientUnits="userSpaceOnUse" x1="390.17398" y1="239.4395" x2="393.56293" y2="232.56586"><stop offset="0" stop-color="#472B2A"></stop><stop offset="1" stop-color="#693735"></stop></linearGradient></defs><path fill="url(#gradient_2)" d="M370.63 227.859L379.166 227.898L379.417 228.192C390.599 230.711 409.705 236.699 417.017 245.915L415.442 246.763C404.035 239.583 392.345 234.574 379.262 231.274C372.649 230.002 365.754 229.777 359.039 229.229C362.915 228.49 366.689 228.065 370.63 227.859Z" data-index="93"></path><path fill="#CE6D68" d="M381.171 254.775C388.446 252.903 398.134 253.045 405.574 254.049L408.33 254.839C407.073 257.478 404.83 259.95 403.067 262.281C401.037 264.965 398.935 268.362 396.362 270.549C393.977 272.576 386.791 275.459 383.287 277.79C382.867 275.069 382.952 272.438 383.029 269.699C382.762 265.44 383.723 260.274 382.508 256.157C382.189 255.075 382.082 255.266 381.171 254.775Z" data-index="94"></path><path fill="#562924" d="M382.163 251.929C390.51 251.094 401.963 249.355 409.897 252.959C409.022 254.019 408.881 253.951 407.448 254.062C406.839 254.11 406.18 254.064 405.574 254.049C398.134 253.045 388.446 252.903 381.171 254.775C375.784 255.338 370.464 256.087 365.115 256.935C370.728 254.658 376.21 253.08 382.163 251.929Z" data-index="95"></path><path fill="#E27A76" d="M378.819 281.545C378.825 281.38 378.828 281.215 378.836 281.05L378.886 280.227C379.118 275.926 381.194 274.35 382.672 270.632C382.795 270.323 382.91 270.01 383.029 269.699C382.952 272.438 382.867 275.069 383.287 277.79L378.819 281.545Z" data-index="96"></path><path fill="#EC8978" d="M716.175 30.7936C716.271 30.946 716.365 31.0996 716.463 31.2508C719.325 35.6691 723.204 39.5315 726.463 43.6771C733.036 52.2064 739.449 60.8581 745.698 69.6276C779.981 118.597 800.535 169.869 801.08 230.124C781.576 212.647 761.505 198.128 738.458 185.643C733.263 183.06 711.218 173.543 708.559 170.968C708.845 168.073 711.155 167.031 712.086 164.611C712.673 163.086 712.037 162.389 711.413 161.036C707.433 163.277 704.731 165.778 701.657 169.122L695.548 166.762C701.42 152.055 707.426 138.865 717.116 126.222C713.325 128.606 706.954 133.165 705.161 137.3L704.703 137.801C701.052 140.598 698.146 146.238 695.681 150.145C696.466 141.108 697.126 132.006 698.276 123.009C699.933 102.85 703.165 82.8518 707.944 63.1975C710.48 52.3445 713.582 41.6302 716.175 30.7936Z" data-index="97"></path><path fill="#CE6D68" d="M719.039 114.286C718.985 120.831 720.708 144.818 725.091 148.766C725.675 149.293 725.484 149.166 726.132 149.203C726.81 149.243 726.543 149.198 727.168 149.407L726.155 150.868C724.529 152.418 722.527 154.932 720.442 155.693C717.254 156.992 714.3 159.166 711.413 161.036C707.433 163.277 704.731 165.778 701.657 169.122L695.548 166.762C701.42 152.055 707.426 138.865 717.116 126.222C713.325 128.606 706.954 133.165 705.161 137.3L704.703 137.801C701.052 140.598 698.146 146.238 695.681 150.145C696.466 141.108 697.126 132.006 698.276 123.009L698.859 124.713C702.682 125.454 715.528 116.461 719.039 114.286Z" data-index="98"></path><path fill="#E27A76" d="M720.442 155.693C722.527 154.932 724.529 152.418 726.155 150.868C729.355 161.832 733.458 175.436 738.458 185.643C733.263 183.06 711.218 173.543 708.559 170.968C708.845 168.073 711.155 167.031 712.086 164.611C712.673 163.086 712.037 162.389 711.413 161.036C714.3 159.166 717.254 156.992 720.442 155.693Z" data-index="99"></path><path fill="#562924" d="M711.413 161.036C714.3 159.166 717.254 156.992 720.442 155.693C716.583 160.712 712.852 166.348 708.559 170.968C708.845 168.073 711.155 167.031 712.086 164.611C712.673 163.086 712.037 162.389 711.413 161.036Z" data-index="100"></path><defs><linearGradient id="gradient_3" gradientUnits="userSpaceOnUse" x1="612.50275" y1="829.466" x2="690.81635" y2="843.68848"><stop offset="0" stop-color="#C79561"></stop><stop offset="1" stop-color="#F0AF69"></stop></linearGradient></defs><path fill="url(#gradient_3)" d="M704.948 742.773C704.403 746.617 704.168 754.039 702.706 757.364C702.009 765.802 700.053 774.326 698.588 782.676C695.846 798.313 693.047 814.003 690.971 829.745C688.732 847.752 686.694 865.784 684.857 883.837C684.24 890.341 684.515 902.533 682.751 908.089L680.503 907.483C664.173 907.611 649.994 913.845 635.663 920.883C633.879 921.768 632.08 922.611 630.398 923.683C624.043 911.394 620.256 893.888 617.026 880.425C614.32 868.801 611.45 857.215 608.416 845.673C615.989 841.104 623.711 836.819 631.006 831.805C659.76 812.282 683.241 785.954 699.361 755.163C701.321 751.078 703.184 746.946 704.948 742.773Z" data-index="101"></path><path fill="#F5C184" d="M704.948 742.773C704.403 746.617 704.168 754.039 702.706 757.364C702.009 765.802 700.053 774.326 698.588 782.676C695.846 798.313 693.047 814.003 690.971 829.745C688.732 847.752 686.694 865.784 684.857 883.837C684.24 890.341 684.515 902.533 682.751 908.089L680.503 907.483C680.529 899.135 679.576 890.8 679.644 882.433C679.794 864.027 680.351 844.985 683.093 826.757C684.297 818.75 686.17 810.808 687.809 802.878C691 787.439 694.682 773.066 700.581 758.395C699.847 757.393 699.678 756.347 699.361 755.163C701.321 751.078 703.184 746.946 704.948 742.773Z" data-index="102"></path><path fill="#F1E6D4" d="M59.009 452.803C58.7861 446.428 60.1196 440.024 62.1693 434.012C68.7783 414.626 84.0205 398.858 102.283 389.941C117.278 382.619 135.805 380.63 151.699 386.152C168.498 391.989 180.275 403.696 187.946 419.505C184.628 420.568 180.801 419.284 177.295 419.902C159.496 420.978 144.45 432.01 133.151 445.223C132.938 445.472 132.739 445.733 132.532 445.988C129.788 449.48 127.07 452.945 124.612 456.65C123.748 455.279 122.884 453.85 121.817 452.628C117.769 447.994 111.473 445.932 105.476 445.71C89.5044 445.118 71.9326 454.101 60.4692 464.677C59.4403 460.777 59.0776 456.824 59.009 452.803Z" data-index="103"></path><path fill="#D7C2A8" d="M59.009 452.803C64.1578 449.388 67.6442 443.033 72.6133 439.077C82.0967 431.527 95.3681 427.336 107.455 428.799C114.569 429.66 122.157 432.358 126.859 437.99C128.791 440.305 130.161 443.009 132.026 445.359L132.532 445.988C129.788 449.48 127.07 452.945 124.612 456.65C123.748 455.279 122.884 453.85 121.817 452.628C117.769 447.994 111.473 445.932 105.476 445.71C89.5044 445.118 71.9326 454.101 60.4692 464.677C59.4403 460.777 59.0776 456.824 59.009 452.803Z" data-index="104"></path><path fill="#F1E6D4" d="M409.281 911.449C422.352 912.178 433.924 913.422 443.222 923.798C447.474 928.542 450.502 934.822 450.167 941.306C449.918 946.137 447.944 949.825 445.134 953.633C444.471 943.475 441.708 935.016 433.839 928.128C429.775 924.57 425.242 922.302 420.188 920.514L420.535 920.89C433.219 934.459 439.346 935.455 439.062 956.294C433.495 958.465 427.826 959.357 421.958 960.286C422.026 951.268 420.259 943.156 413.782 936.405C409.136 931.563 403.48 929.057 397.243 926.915C406.661 934.701 414.968 941.579 416.281 954.581C416.492 956.67 416.418 958.804 416.379 960.901C392.635 961.93 368.849 960.388 345.436 956.304C332.948 954.861 319.628 952.191 307.725 948.118C302.839 946.446 296.21 943.806 294.001 938.777C291.539 933.173 298.949 918.712 301.131 912.777C311.018 916.801 321.467 919.596 331.824 922.118L331.936 922.366C333.845 922.668 336.052 923.265 337.967 923.241C364.516 928.212 386.026 925.715 409.281 911.449Z" data-index="105" style="opacity: 1;"></path><path fill="#D7C2A8" d="M301.131 912.777C311.018 916.801 321.467 919.596 331.824 922.118L331.936 922.366C330.308 929.686 330.105 940.321 334.395 946.796C337.282 951.153 342.557 952.299 345.436 956.304C332.948 954.861 319.628 952.191 307.725 948.118C302.839 946.446 296.21 943.806 294.001 938.777C291.539 933.173 298.949 918.712 301.131 912.777Z" data-index="106"></path><path fill="#E1A363" d="M316.08 104.439C324.499 106.783 333.014 109.678 341.018 113.2C349.018 116.408 357.437 119.382 364.906 123.71C371.53 125.823 378.114 130.018 384.271 133.303C417.296 151.223 448.83 171.766 478.567 194.733C475.623 196.646 472.673 198.823 469.608 200.516C456.845 210.06 444.039 219.813 432.111 230.402L427.952 234.386C416.377 210.448 403.315 188.455 386.781 167.584C383.041 162.864 379.148 157.381 374.606 153.405C374.158 153.298 374.014 153.281 373.54 153.067C367.506 150.342 358.231 140.24 356.166 133.997C344.732 121.974 330.307 112.675 316.08 104.439Z" data-index="107"></path><path fill="#D7C2A8" d="M341.018 113.2C349.018 116.408 357.437 119.382 364.906 123.71C371.53 125.823 378.114 130.018 384.271 133.303C417.296 151.223 448.83 171.766 478.567 194.733C475.623 196.646 472.673 198.823 469.608 200.516C461.266 192.21 451.939 185.731 442.348 178.994C434.668 173.6 427.048 168.028 419.166 162.935C410.496 157.333 401.472 152.237 392.629 146.911C383.305 141.294 374.258 135.291 364.626 130.191C358.332 126.955 345.176 121.554 341.164 116.179C340.342 115.076 340.765 114.445 341.018 113.2Z" data-index="108"></path><path fill="#F5C184" d="M341.018 113.2C349.018 116.408 357.437 119.382 364.906 123.71C364.689 123.727 364.473 123.753 364.256 123.762C359.932 123.952 350.685 115.478 347.072 117.653C346.924 118.762 346.838 118.96 347.543 119.911C349.819 122.981 360.379 125.271 364.626 130.191C358.332 126.955 345.176 121.554 341.164 116.179C340.342 115.076 340.765 114.445 341.018 113.2Z" data-index="109"></path><path fill="#CD834D" d="M374.475 151.868C387.271 158.741 415.076 200.21 423.295 213.94C426.398 219.124 428.687 225.579 432.111 230.402L427.952 234.386C416.377 210.448 403.315 188.455 386.781 167.584C383.041 162.864 379.148 157.381 374.606 153.405L374.475 151.868Z" data-index="110"></path><path fill="#593E2D" d="M356.166 133.997C361.678 138.867 369.427 148.425 374.475 151.868L374.606 153.405C374.158 153.298 374.014 153.281 373.54 153.067C367.506 150.342 358.231 140.24 356.166 133.997Z" data-index="111"></path><path fill="#F1E6D4" d="M489.265 806.75C492.477 823.596 496.329 840.005 500.92 856.526C502.467 861.908 503.97 867.304 505.43 872.711C501.688 873.939 497.885 874.86 494.061 875.794C472.719 881.176 451.608 884.713 429.828 887.738C433.332 880.533 435.984 872.944 437.729 865.125C441.876 848.501 441.246 831.043 435.91 814.761C449.613 813.578 463.322 811.5 476.909 809.405L476.968 809.163C481.085 808.454 485.185 807.649 489.265 806.75Z" data-index="112"></path><path fill="#D7C2A8" d="M489.265 806.75C492.477 823.596 496.329 840.005 500.92 856.526C502.467 861.908 503.97 867.304 505.43 872.711C501.688 873.939 497.885 874.86 494.061 875.794C472.719 881.176 451.608 884.713 429.828 887.738C433.332 880.533 435.984 872.944 437.729 865.125C454.554 864.527 471.933 862.142 488.405 858.706C485.511 849.406 482.731 840.019 480.804 830.464C479.411 823.556 478.816 816.156 476.909 809.405L476.968 809.163C481.085 808.454 485.185 807.649 489.265 806.75Z" data-index="113"></path><path fill="#E1A363" d="M713.36 28.9521L713.646 29.2627C714.088 32.8311 706.015 57.3249 704.604 62.7243C702.621 70.2438 700.875 77.8237 699.368 85.4528C694.384 111.448 692.844 138.74 690.833 165.105C676.854 161.235 662.935 159.045 648.476 157.886C645.713 157.592 642.945 157.336 640.175 157.116C654.011 120.253 669.554 84.8758 693.07 53.0154C699.261 44.6271 705.881 36.2336 713.36 28.9521Z" data-index="114"></path><path fill="#F1E6D4" d="M543.742 931.331C555.096 926.929 579.498 921.321 591.228 924.784C592.207 926.26 592.21 926.19 593.934 926.641C605.36 930.23 615.158 933.516 620.97 944.939C623.071 949.067 624.327 954.157 622.657 958.652C621.469 961.849 618.706 964.18 615.616 965.47C612.832 966.632 609.061 967.668 606.072 967.934C606.25 963.01 606.146 958.414 604.786 953.643C602.098 944.215 596.454 938.704 588.033 933.989C589.167 935.182 590.281 936.394 591.373 937.625C598.994 946.322 602.106 956.278 601.352 967.708L600.553 969.333C595.833 969.911 581.255 972.101 577.877 970.26L578.279 964.122C576.904 952.692 573.037 945.603 564.584 937.859C569.8 947.07 575.232 958.332 572.934 969.275L572.631 969.52C572.226 969.949 572.144 970.139 571.601 970.356C566.692 972.321 548.387 967.817 543.603 965.225C532.644 959.286 535.899 947.558 533.022 937.626C532.983 937.49 532.939 937.355 532.897 937.219C536.349 935.362 539.872 933.624 543.365 931.843L543.742 931.331Z" data-index="115"></path><path fill="#D7C2A8" d="M532.897 937.219C536.349 935.362 539.872 933.624 543.365 931.843C541.573 939.688 539.818 947.665 544.592 954.911C551.43 965.289 561.902 966.263 572.631 969.52C572.226 969.949 572.144 970.139 571.601 970.356C566.692 972.321 548.387 967.817 543.603 965.225C532.644 959.286 535.899 947.558 533.022 937.626C532.983 937.49 532.939 937.355 532.897 937.219Z" data-index="116"></path><path fill="#D7C2A8" d="M578.279 964.122C578.34 964.269 578.41 964.413 578.462 964.563C578.766 965.445 578.789 966.304 578.86 967.228C583.862 970.032 594.965 964.432 600.553 969.333C595.833 969.911 581.255 972.101 577.877 970.26L578.279 964.122Z" data-index="117"></path><path fill="#D7C2A8" d="M455.801 889.243C473.146 887.626 490.469 883.144 507.186 878.426C510.337 887.086 513.03 895.968 515.923 904.721C519.832 916.044 523.92 927.305 528.184 938.5C516.133 938.825 474.657 939.757 466.135 932.145C460.15 926.799 460.262 914.471 458.72 906.983L455.801 889.243Z" data-index="118"></path><path fill="#CD834D" d="M455.801 889.243C473.146 887.626 490.469 883.144 507.186 878.426C510.337 887.086 513.03 895.968 515.923 904.721C496.703 906.44 478.026 907.175 458.72 906.983L455.801 889.243Z" data-index="119"></path><path fill="#F1E6D4" d="M680.503 907.483L682.751 908.089C694.128 907.465 704.884 910.934 713.48 918.552C717.635 922.235 720.875 927.123 721.288 932.788C721.591 936.608 720.271 940.379 717.652 943.177C716.201 944.746 714.309 945.918 712.538 947.093C712.729 938.998 711.724 932.191 705.753 926.104C701.235 921.499 695.196 918.724 689.233 916.506C697.241 922.573 707.073 929.778 708.559 940.558C708.943 943.342 708.695 946.746 707.447 949.304C703.221 949.833 699.072 951.146 694.829 951.611C692.738 951.84 690.28 952.204 688.581 950.826L688.394 948.449C687.824 944.141 686.271 939.743 683.878 936.122C678.305 927.686 669.354 924.356 659.92 922.398C663.175 924.059 666.402 925.75 669.463 927.752C677.238 932.836 681.924 939.495 683.813 948.62L684.06 950.828C683.653 951.759 683.822 951.867 682.811 952.316C677.17 954.82 654.572 951.613 648.637 949.029C638.301 944.53 634.378 933.373 630.398 923.683C632.08 922.611 633.879 921.768 635.663 920.883C649.994 913.845 664.173 907.611 680.503 907.483Z" data-index="120"></path><path fill="#D7C2A8" d="M630.398 923.683C632.08 922.611 633.879 921.768 635.663 920.883C635.304 927.576 637.895 934.111 642.275 939.182C648.459 946.34 659.976 948.388 668.983 948.901C672.658 949.11 680.612 950.203 683.813 948.62L684.06 950.828C683.653 951.759 683.822 951.867 682.811 952.316C677.17 954.82 654.572 951.613 648.637 949.029C638.301 944.53 634.378 933.373 630.398 923.683Z" data-index="121"></path><path fill="#D7C2A8" d="M688.394 948.449C694.751 949.976 701.182 947.783 707.447 949.304C703.221 949.833 699.072 951.146 694.829 951.611C692.738 951.84 690.28 952.204 688.581 950.826L688.394 948.449Z" data-index="122"></path><path fill="#E1A363" d="M715.904 27.8682C718.375 28.702 721.142 31.7113 723.001 33.5555C736.696 47.1434 749.893 61.1211 761.2 76.8138C795.593 124.548 816.117 186.701 816.466 245.605C812.98 242.36 809.924 238.627 806.818 235.024C809.844 179.09 782.984 114.273 750.64 69.6031C739.98 54.8802 727.333 41.932 715.904 27.8682Z" data-index="123"></path><path fill="#CD834D" d="M487.479 781.726C487.257 790.33 487.666 798.261 489.265 806.75C485.185 807.649 481.085 808.454 476.968 809.163C477 806.142 476.626 802.876 477.444 799.953C481.712 794.693 483.922 787.519 487.479 781.726Z" data-index="124"></path><path fill="#CE6D68" d="M370.073 291.851C377.784 285.384 385.106 278.936 394.284 274.606C389.5 281.973 384.661 289.308 380.565 297.088C377.366 294.849 373.264 293.672 369.612 292.31L370.073 291.851Z" data-index="125"></path><path fill="#EC8978" d="M705.161 137.3L706.269 136.843C706.03 139.021 703.492 141.88 702.472 143.968C700.155 148.709 698.248 153.66 696.118 158.486C695.109 160.773 693.813 162.776 693.087 165.194L692.567 165.321C693.942 159.465 695.323 152.486 698.516 147.358C700.474 144.212 703.143 141.134 704.703 137.801L705.161 137.3Z" data-index="126"></path><path fill="#593E2D" d="M894.742 476.829C896.716 476.663 900.745 478.552 901.937 478.11L900.485 476.563C914.345 481.562 938.452 491.389 949.773 499.867C946.145 499.317 932.125 491.675 927.333 489.643C916.572 485.081 905.592 481.152 894.742 476.829Z" data-index="127"></path></svg>