<svg xmlns="http://www.w3.org/2000/svg" xmlns:xlink="http://www.w3.org/1999/xlink" width="1024" height="1024" viewBox="0 0 1024 1024"><path fill="#4C2E48" d="M680.485 100.044C680.337 88.0109 680.342 74.6566 689.352 65.411C693.413 61.2443 698.152 59.4448 703.928 59.4608C708.63 59.4739 713.262 60.3993 717.921 59.3207C730.603 56.385 760.074 38.3734 770.348 39.5237C775.397 40.0891 779.999 43.9415 783.469 47.4353C797.949 62.0132 808.385 78.2141 828.195 86.2973C831.347 87.5833 834.779 88.79 838.152 89.3035C844.597 90.2848 859.529 88.7381 859.2 98.5319C859.095 101.649 857.03 104.163 854.811 106.149C845.42 114.551 831.963 115.87 819.914 115.006C811.948 114.434 804.187 112.507 796.269 111.694C808.642 129.185 820.398 148.056 836.935 161.985C846.382 156.264 855.563 150.061 865.318 144.87C880.48 136.802 922.28 118.788 938.282 122.487C943.25 123.635 947.115 126.395 949.749 130.77C952.626 135.548 953.618 141.316 954.735 146.705C967.414 158.839 973.575 177.124 973.909 194.501C974.093 204.083 972.716 213.946 969.43 222.978C968.328 226.008 966.371 229.175 965.753 232.312C964.97 236.288 966.853 240.552 966.634 244.643C965.721 261.7 955.72 277.907 944.047 289.839C923.522 310.82 897.846 321.724 869.831 328.769C862.254 330.674 854.097 331.549 846.727 334.015C835.132 337.893 823.927 343.585 812.799 348.614C781.055 362.961 743.215 384.257 731.436 419.463C728.195 429.15 727.374 439.591 727.474 449.745C727.625 464.95 730.577 479.791 732.749 494.78C736.586 497.563 740.985 500.37 741.72 505.471C742.489 510.797 738.985 514.235 737.773 519.067C735.913 526.489 735.245 534.491 734.165 542.068C733.307 548.085 730.771 559.774 730.746 565.182C730.731 568.432 731.905 572.034 732.293 575.297C733.275 583.554 732.435 593.002 731.083 601.179C727.654 621.907 720.434 641.989 715.455 662.371C704.323 707.942 699.658 766.237 709.255 812.403C711.001 820.803 715.332 839.089 721.772 844.807C723.018 845.914 724.419 846.264 726.039 846.059C729.414 845.632 732.891 843.798 736.062 842.613C744.081 839.615 753.739 839.274 761.039 844.356C763.944 846.379 766.447 849.177 768.966 851.658C788.856 854.607 808.719 857.732 828.553 861.034C844.302 863.629 860.296 866.099 875.805 869.899C874.273 865.398 863.034 837.964 863.955 835.544C864.833 835.351 865.36 835.5 866.162 835.855C875.893 840.158 882 860.151 885.609 869.645C884.94 857.812 881.074 832.154 883.809 821.752C884.791 820.729 885.005 820.443 886.514 820.371C889.016 820.252 891.694 822.399 893.15 824.221C901.838 835.093 900.754 857.617 899.364 870.706C901.325 865.132 903.78 858.484 909.133 855.273C910.47 854.472 911.497 854.288 913.029 854.704C913.986 855.452 914.495 856.032 914.818 857.236C916.6 863.892 911.316 872.596 907.997 877.976C925.146 883.936 950.992 889.827 960.76 906.676C950.205 922.57 920.233 933.137 902.371 938.391C866.125 949.053 829.921 954.461 792.518 958.86C758.609 962.759 724.617 965.896 690.568 968.27C644.954 971.847 599.279 974.575 553.564 976.454C491.049 978.205 428.491 977.718 366.01 974.995C296.37 973.056 226.913 966.855 158.031 956.425C123.476 950.844 86.2088 946.716 55.062 929.547C47.8116 925.551 30.4639 914.678 28.383 906.38C27.5829 903.19 28.6822 900.156 30.3236 897.433C41.9234 878.19 71.6978 865.02 92.7067 859.551C89.3286 855.877 74.5509 844.531 74.0398 840.645L75.0248 840.006C82.5577 839.53 88.077 844.642 93.3584 849.258C86.7622 837.168 78.2312 826.559 70.9603 814.934C69.6422 812.826 67.727 810.145 68.2987 807.632C69.0927 806.853 69.3617 806.545 70.4985 806.328C74.0432 805.648 79.4525 808.501 82.3405 810.404C95.0477 818.777 104.826 836.286 107.788 850.949C107.882 845.142 107.734 838.629 109.473 833.02C110.145 830.851 110.96 829.092 113.049 828.027C114.419 828.121 115.07 828.223 116.05 829.257C121.184 834.673 120.062 847.15 119.944 854.042C126.953 852.193 133.837 851.795 140.99 850.911C146.425 850.24 151.972 848.937 157.458 849.061C180.017 820.323 191.616 790.823 187.045 753.802C184.409 732.452 178.209 711.777 173.106 690.942C166.975 665.911 162.588 639.95 162.274 614.128C155.904 609.822 149.431 605.638 143.653 600.54C123.437 582.708 110.391 557.287 105.387 530.951C97.4889 489.379 110.518 446.559 134.216 412.297C148.58 391.53 178.023 360.774 203.854 356.217C206.607 355.732 210.045 355.419 212.52 357.019C213.821 357.861 214.643 359.178 214.913 360.7C215.274 362.742 214.757 364.863 214.039 366.768C212.118 371.86 208.911 376.728 206.265 381.478C201.701 389.673 197.148 397.924 193.052 406.364C174.512 444.566 164.852 491.942 177.137 533.397C179.775 542.301 183.688 550.567 188.081 558.713C205.05 541.759 221.816 525.786 240.971 511.252C251.426 503.319 262.485 496.281 273.593 489.311C324.635 457.281 380.379 432.493 436.558 410.957C436.108 408.915 435.764 406.932 435.561 404.85C440.572 393.842 450.756 389.06 461.386 384.7C457.748 383.944 451.073 383.204 448.651 380.134C448.111 379.449 448.285 379.123 448.3 378.315C451.014 374.113 458.349 372.421 463 371.429C470.153 369.903 477.429 369.026 484.688 368.178C487.323 362.716 493.354 358.432 497.38 353.846C502.854 347.611 508.193 341.043 512.792 334.134C516.067 329.213 522.042 315.438 527.489 313.518C530.18 312.569 532.822 312.999 535.308 314.319C537.337 315.398 539.062 316.844 540.749 318.387C544.293 313.031 547.924 307.733 551.642 302.496C532.488 292.552 503.179 274.777 496.574 253.065C494.988 247.854 495.758 243.309 498.41 238.597C502.176 231.903 508.261 226.019 513.778 220.756C516.146 218.496 518.925 216.226 520.821 213.547C523.588 209.637 525.514 205.001 527.669 200.734C530.298 195.604 533.028 190.525 535.856 185.502C542.47 173.792 567.955 135.373 580.188 131.655C584.106 130.465 587.965 131.8 591.391 133.74C596.507 136.639 600.925 140.826 605.219 144.797C624.133 128.998 644.571 114.684 667.312 104.96C671.575 103.137 675.97 101.13 680.485 100.044Z" data-index="1" style="opacity: 1;"></path><path fill="#A99092" d="M93.3584 849.258C86.7622 837.168 78.2312 826.559 70.9603 814.934C69.6422 812.826 67.727 810.145 68.2987 807.632C69.0927 806.853 69.3617 806.545 70.4985 806.328C74.0432 805.648 79.4525 808.501 82.3405 810.404C95.0477 818.777 104.826 836.286 107.788 850.949C107.882 845.142 107.734 838.629 109.473 833.02C110.145 830.851 110.96 829.092 113.049 828.027C114.419 828.121 115.07 828.223 116.05 829.257C121.184 834.673 120.062 847.15 119.944 854.042C126.953 852.193 133.837 851.795 140.99 850.911C146.425 850.24 151.972 848.937 157.458 849.061C153.58 853.759 147.858 859.247 148.619 865.86C150.188 879.501 172.68 897.329 183.381 905.289C199.579 917.337 216.303 928.486 232.349 940.784C234.169 943.221 237.553 945.387 239.747 947.689C243.574 948.804 247.432 949.804 251.318 950.689C277.73 956.528 321.49 959.091 344.688 944.31C344.335 938.161 342.194 932.481 339.648 926.928C333.057 912.556 321.658 893.694 305.838 888.103C291.72 883.114 276.265 890.325 263.648 896.198C245.507 888.607 228.925 880.186 212.867 868.808C227.277 866.266 241.303 860.346 254.713 854.688C259.284 852.76 264.525 849.768 269.215 848.474C279.272 855.153 292.946 858.463 304.346 862.379C338.047 873.957 372.466 886.793 407.959 891.471C421.85 893.302 436.911 893.372 450.657 890.631C455.655 889.634 462.517 888.49 466.49 885.005C467.35 884.429 467.57 884.134 468.128 883.3C469.47 875.592 463.115 864.922 458.811 858.789C452.336 849.561 442.862 842.216 431.538 840.324C422.436 838.803 414.985 841.28 407.568 846.539C392.757 840.775 373.365 836.359 357.524 835.349L354.608 834.766L354.94 834.091C357.347 832.876 359.76 831.475 362.347 830.695C367.704 831.477 378.116 829.778 383.968 829.443C395.77 828.858 407.581 828.467 419.396 828.27C454.509 827.6 489.589 828.954 524.685 829.732C536.254 862.349 549.365 893.813 566.356 924.035C571.55 933.274 576.746 943.152 584.272 950.716L585.007 950.772C592.518 951.387 599.85 953.398 607.381 954.09C624.28 955.641 663.567 955.024 676.823 944.537C678.242 943.415 679.343 942.282 679.518 940.401C680.28 932.187 666.222 914.622 660.766 908.914C653.741 901.566 644.915 896.514 634.496 896.323C626.489 896.176 619.504 899.572 613.477 904.592C600.412 882.664 594.968 857.961 592.166 832.867C602.21 833.163 666.963 836.345 668.92 835.566C675.908 848.883 687.514 871.811 697.24 883.053C718.682 889.022 742.889 890.48 764.693 886.038C768.656 885.231 773.224 884.404 776.798 882.439C778.553 881.475 780.172 880.032 780.684 878.025C782.212 872.037 776.017 861.974 772.847 857.156C771.596 855.294 770.302 853.461 768.966 851.658C788.856 854.607 808.719 857.732 828.553 861.034C844.302 863.629 860.296 866.099 875.805 869.899C874.273 865.398 863.034 837.964 863.955 835.544C864.833 835.351 865.36 835.5 866.162 835.855C875.893 840.158 882 860.151 885.609 869.645C884.94 857.812 881.074 832.154 883.809 821.752C884.791 820.729 885.005 820.443 886.514 820.371C889.016 820.252 891.694 822.399 893.15 824.221C901.838 835.093 900.754 857.617 899.364 870.706C901.325 865.132 903.78 858.484 909.133 855.273C910.47 854.472 911.497 854.288 913.029 854.704C913.986 855.452 914.495 856.032 914.818 857.236C916.6 863.892 911.316 872.596 907.997 877.976C925.146 883.936 950.992 889.827 960.76 906.676C950.205 922.57 920.233 933.137 902.371 938.391C866.125 949.053 829.921 954.461 792.518 958.86C758.609 962.759 724.617 965.896 690.568 968.27C644.954 971.847 599.279 974.575 553.564 976.454C491.049 978.205 428.491 977.718 366.01 974.995C296.37 973.056 226.913 966.855 158.031 956.425C123.476 950.844 86.2088 946.716 55.062 929.547C47.8116 925.551 30.4639 914.678 28.383 906.38C27.5829 903.19 28.6822 900.156 30.3236 897.433C41.9234 878.19 71.6978 865.02 92.7067 859.551C89.3286 855.877 74.5509 844.531 74.0398 840.645L75.0248 840.006C82.5577 839.53 88.077 844.642 93.3584 849.258Z" data-index="2"></path><path fill="#FCFCFA" d="M428.15 713.515C435.156 714.364 442.428 714.168 449.475 714.119C470.554 713.975 488.047 712.351 508.295 706.142C507.404 715.248 504.579 724.546 504.621 733.694C504.65 740.218 506.244 747.064 507.297 753.498C510.024 770.939 513.543 788.248 517.843 805.369C519.81 813.48 521.629 821.948 524.685 829.732C489.589 828.954 454.509 827.6 419.396 828.27C407.581 828.467 395.77 828.858 383.968 829.443C378.116 829.778 367.704 831.477 362.347 830.695C383.034 819.072 399.346 812.622 418.146 797.07C430.65 786.727 447.707 770.755 449.021 753.481C450.201 737.959 437.681 724.229 428.15 713.515Z" data-index="3"></path><path fill="#FCFCFA" d="M592.166 832.867C587.843 786.586 596.174 745.148 611.68 701.774C613.904 695.553 616.201 684.99 620.29 679.908C621.514 678.387 623.31 677.303 624.96 676.303C624.982 685.73 625.047 695.141 625.913 704.534C628.879 736.677 638.384 769.439 651.022 799.052C654.783 807.865 659.151 816.308 663.235 824.963C658.966 824.855 652.312 824.421 648.925 827.55C648.584 828.556 648.362 828.601 648.755 829.64C653.974 829.558 659.324 828.05 664.594 827.608C666.096 830.228 667.65 832.823 668.92 835.566C666.963 836.345 602.21 833.163 592.166 832.867Z" data-index="4"></path><path fill="#FCFCFA" d="M451.77 378.763C462.464 374.831 474.154 373.986 485.088 370.807C487.235 389.87 498.74 414.773 507.631 431.785C538.848 491.514 604.277 546.828 668.501 567.078C683.232 572.433 698.803 575.778 714.529 575.221C714.007 592.283 707.724 609.888 699.052 624.563C700.279 617.662 704.319 603.33 702.132 597.102L701.549 596.809C698.515 600.955 697.18 607.644 695.262 612.506C689.157 628.311 679.36 642.427 666.689 653.675C672.334 645.664 679.2 633.796 679.413 623.746L678.955 623.135C675.844 625.5 668.588 642.531 665.471 647.433C660.985 654.486 655.505 660.531 650.333 667.039L650.216 668.087C651.31 668.586 651.812 668.591 652.942 668.087C655.439 666.973 657.793 665.061 660.064 663.539C675.365 653.283 688.967 638.479 696.738 621.675C696.798 624.156 696.363 627.282 698.253 629.118C701.41 628.303 705.57 621.092 707.25 618.206C714.481 605.775 719.032 589.273 716.327 574.909C720.256 574.256 723.926 573.419 727.563 571.736C727.568 578.444 727.853 585.307 727.018 591.973C724.826 609.462 717.508 628.071 713.211 645.354C700.23 697.557 691.974 759.348 703.841 812.393C706.548 824.495 709.637 840.221 718.312 849.347C719.392 850.483 719.985 850.966 719.621 852.662C722.458 853.039 726.217 850.141 728.714 848.813C744.181 840.587 756.329 842.263 767.178 856.427C769.966 860.015 772.256 863.964 773.986 868.165L773.664 867.792C767.409 860.407 762.508 849.36 751.52 848.349L750.675 848.774L750.71 849.582C753.2 851.586 756.024 853.083 758.481 855.094C765.695 860.998 770.618 870.353 773.736 878.982C769.355 880.115 764.918 881.149 760.587 882.46C760.194 874.393 757.017 866.694 751.024 861.151C747.472 857.866 742.925 855.564 737.99 855.885C734.308 856.124 730.433 858.144 728.044 860.935L728.138 861.631C730.045 861.851 732 860.642 733.832 860.144C740.571 858.311 746.369 860.599 750.575 866.067C754.383 871.018 756.348 877.122 756.686 883.311C738.092 886.326 717.174 884.201 698.859 880.185C689.223 861.846 678.928 843.724 669.762 825.16C653.068 791.349 638.819 753.936 634.092 716.342C632.253 701.717 632.71 686.978 632.011 672.288C644.003 663.265 664.167 648.127 666.569 632.675C652.661 648.568 639.075 660.257 621.991 672.547C631.843 643.798 642.887 604.583 630.521 575.228C630.707 581.392 631.417 587.511 631.56 593.682C631.875 607.223 630.268 620.494 627.312 633.686C620.531 663.955 605.609 691.512 596.512 721.004C581.758 768.832 577.3 821.656 592.303 870.016C596.5 883.544 601.422 896.027 611.155 906.576C605.93 911.551 600.612 916.482 596.89 922.738L597.528 922.371C608.958 915.693 627.159 897.429 641.317 900.887C652.769 903.684 661.811 919.734 667.271 929.342C669.708 933.629 671.705 937.866 673.322 942.523L667.204 944.971C662.387 931.552 655.298 915.311 641.68 908.742C639.291 907.589 636.902 907.004 634.329 906.473C649.932 916.019 657.489 929.359 663.987 946.119C657.216 947.944 646.856 948.403 641.169 950.491L640.963 950.131C639.502 947.524 638.494 944.714 637.147 942.051C632.858 933.574 626.207 924.684 616.716 921.814C614.718 921.21 612.585 920.979 610.52 920.707C622.537 926.019 630.397 933.668 635.222 946.041C635.859 947.675 636.6 949.359 636.882 951.096C629.637 950.602 622.207 950.947 614.926 950.686C604.983 950.33 595.076 949.327 585.171 948.416C578.961 938.36 573.56 927.762 568.181 917.245C542.816 868.19 524.836 815.658 514.822 761.349C513.484 754.212 510.321 746.22 510.298 738.992C510.284 734.4 512.971 728.628 514.133 724.089C515.033 720.574 515.708 716.99 516.319 713.413C520.501 688.954 519.498 660.861 515.581 636.442C511.549 611.301 505.1 591.77 494.958 568.652C493.664 565.703 491.561 559.007 489.013 557.164C488.253 559.531 497.785 588.383 499.204 593.715C507.898 626.384 513.621 663.769 509.446 697.555C478.148 711.093 409.674 708.401 374.926 706.17C372.292 698.93 369.279 691.833 365.898 684.91C349.412 651.525 323.37 622.401 293.466 600.436C285.907 594.885 278.088 589.168 269.135 586.147C274.332 590.06 279.744 593.633 284.859 597.677C305.019 613.509 322.897 632.047 337.987 652.769C352.207 672.397 377.468 721.326 373.077 745.726C371.675 753.516 367.506 760.806 363.077 767.241C337.722 804.078 284.118 833.138 244.568 852.444C238.231 855.58 231.809 858.543 225.31 861.329C220.6 863.31 214.229 864.92 210.064 867.747C209.997 869.105 210.32 869.266 210.992 870.397C224.049 883.434 242.588 892.727 259.809 899.106C250.816 905.035 243.281 911.129 238.989 921.28C252.501 909.269 279.057 889.186 298.066 890.539C306.117 891.113 312.126 896.222 317.081 902.149C326.485 913.399 336.189 928.444 340.489 942.482L331.493 945.293C328.407 929.625 321.468 910.868 307.594 901.531C306.292 900.654 304.814 899.516 303.175 899.6L302.816 900.321C304.387 904.943 310.663 909.509 313.818 913.355C321.072 922.2 325.624 935.215 328.005 946.201C318.814 948.066 309.543 949.742 300.156 950.176C297.731 936.525 293.074 918.244 280.995 909.761C279.927 909.011 278.735 908.38 277.594 907.753C287.953 923.352 292.309 931.858 295.346 950.464C276.373 950.664 258.563 947.327 239.849 944.982C238.165 942.351 236.437 940.108 234.221 937.889C231.501 933.624 225.96 929.566 222.026 926.382C202.322 910.439 163.92 890.059 155.402 865.457C160.123 857.758 167.152 851.13 172.451 843.724C203.483 800.356 200.306 764.899 189.04 716.004C183.637 692.556 177.554 669.386 173.626 645.619C182.98 645.193 192.778 641.678 200.973 637.293C232.783 620.27 251.677 587.837 261.784 554.354C268.778 550.361 276.328 547.146 283.455 543.346C314.452 526.814 342.527 502.194 357.356 469.849C360.59 462.794 362.737 455.487 364.994 448.08C384.512 439.232 404.259 430.926 423.715 421.937C434.033 417.171 444.482 412.511 454.272 406.719C461.13 402.661 467.498 397.959 473.895 393.224C461.956 397.272 451.062 404.683 439.429 409.726C442.355 392.959 463.175 389.755 474.802 380.608L475.358 380.166C467.054 381.31 459.792 381.547 451.77 378.763Z" data-index="5"></path><path fill="#FCFCFA" d="M609.158 148.826L608.688 148.544C612.934 138.697 652.932 118.064 664.63 113.42C667.105 112.438 669.63 111.508 672.292 111.224C685.613 109.805 708.653 114.63 720.733 119.966C735.654 126.556 748.573 137.606 760.362 148.712C771.274 158.992 785.938 176.946 800.147 181.58C805.27 183.251 810.099 182.066 814.964 180.208C827.544 175.405 837.131 167.268 848.336 160.234C865.621 149.384 885.148 139.84 904.593 133.594C891.673 143.702 865.909 166.159 863.82 183.099C863.324 187.123 864.635 190.7 867.164 193.822C876.981 205.94 899.63 210.08 914.165 211.265C925.525 212.192 937.161 211.453 946.227 203.77C954.204 197.009 958.347 186.293 959.072 176.052C959.675 167.539 956.972 159.894 954.95 151.759C967.236 167.744 970.948 189.264 968.41 208.996C967.506 216.239 965.506 223.301 962.478 229.942C958.876 227.139 955.243 224.993 950.47 225.581C945.947 226.138 942.346 229.242 939.746 232.8C934.607 239.833 931.586 248.537 926.682 255.902C908.03 283.919 881.528 299.614 848.501 305.012C829.775 308.072 809.859 307.723 791.147 304.771C786.917 304.104 773.612 300.486 770.63 301.868C771.117 303.094 772.209 303.453 773.388 304C778.57 306.406 784.885 307.287 790.489 308.326C819.495 313.7 851.191 312.032 878.776 301.191C903.792 291.359 922.673 273.352 935.183 249.762C938.394 243.708 941.349 235.088 947.015 230.974C949.746 228.992 953.181 228.055 956.365 229.52C958.892 230.681 960.599 232.923 961.458 235.524C964.617 245.095 959.888 258.275 955.317 266.685C940.74 293.507 912.908 311.341 884.158 319.692C865.38 325.146 846.133 328.71 827.154 333.351C796.65 340.507 766.683 349.781 737.47 361.106C722.107 367.051 706.389 373.39 692.185 381.784C687.348 384.643 682.367 387.816 677.941 391.295C676.283 392.599 674.102 395.237 672.105 395.821C669.591 392.812 670.304 386.041 670.621 382.322C672.435 361.106 685.205 349.377 699.527 335.346L690.426 339.427C679.97 348.945 668.204 358.798 661.627 371.578C661.398 372.347 661.373 372.578 661.452 373.419C664.754 372.776 669.549 366.528 671.923 364.045C668.534 371.952 666.578 379.114 665.364 387.64C637.218 371.405 616.34 351.24 602.143 321.533C607.038 323.001 612.025 324.071 617.009 325.186C623.96 326.577 631.27 328.34 638.36 328.599C643.479 328.786 648.693 327.825 652.458 324.098C659.745 316.884 659.868 302.824 660.002 293.3C660.665 246.045 643.919 184.148 610.362 149.604L609.158 148.826Z" data-index="6"></path><path fill="#E9A56D" d="M622.585 141.202C642.992 131.291 685.733 135.692 706.896 143.03C735.147 152.828 763.918 174.541 777.034 201.951C784.138 216.797 785.521 232.52 779.914 248.069C769.149 277.917 736.284 302.454 711.966 321.584C704.805 327.218 697.551 334.113 689.633 338.596L690.426 339.427C679.97 348.945 668.204 358.798 661.627 371.578C661.398 372.347 661.373 372.578 661.452 373.419C664.754 372.776 669.549 366.528 671.923 364.045C668.534 371.952 666.578 379.114 665.364 387.64C637.218 371.405 616.34 351.24 602.143 321.533C607.038 323.001 612.025 324.071 617.009 325.186C623.96 326.577 631.27 328.34 638.36 328.599C643.479 328.786 648.693 327.825 652.458 324.098C659.745 316.884 659.868 302.824 660.002 293.3C660.665 246.045 643.919 184.148 610.362 149.604C614.607 148.337 618.923 145.739 623.07 144.007L622.772 143.25L620.979 143.104L620.989 142.87L621.794 142.627L621.906 141.664L622.585 141.202Z" data-index="7"></path><path fill="#3D1A3F" d="M622.585 141.202C642.992 131.291 685.733 135.692 706.896 143.03C735.147 152.828 763.918 174.541 777.034 201.951C784.138 216.797 785.521 232.52 779.914 248.069C769.149 277.917 736.284 302.454 711.966 321.584C704.805 327.218 697.551 334.113 689.633 338.596C689.275 338.761 688.917 338.921 688.556 339.078C685.328 340.473 678.706 343.199 675.457 341.924L676.029 342.534L675.434 342.42C675.68 340.74 691.463 331.853 693.909 330.138C700.354 325.62 706.474 320.516 712.737 315.739C734.377 299.232 758.726 281.203 772.233 256.967C779.961 243.355 781.76 227.168 777.208 212.192C770.006 187.83 746.138 166.394 724.382 154.541C694.89 138.472 655.287 134.59 623.07 144.007L622.772 143.25L620.979 143.104L620.989 142.87L621.794 142.627L621.906 141.664L622.585 141.202Z" data-index="8"></path><path fill="#DB9165" d="M602.143 321.533C607.038 323.001 612.025 324.071 617.009 325.186C622.373 338.069 649.287 363.554 661.627 371.578C661.398 372.347 661.373 372.578 661.452 373.419C664.754 372.776 669.549 366.528 671.923 364.045C668.534 371.952 666.578 379.114 665.364 387.64C637.218 371.405 616.34 351.24 602.143 321.533Z" data-index="9"></path><path fill="#4C2E48" d="M705.108 180.178C716.13 178.938 728.208 183.786 736.892 190.277C751.294 201.041 762.199 217.535 764.781 235.479C766.203 245.355 764.573 255.353 758.417 263.426C751.226 272.857 740.364 276.971 728.956 278.454C715.773 278.897 704.012 275.141 693.437 267.169C680.135 257.14 670.686 240.658 668.468 224.163C667.098 213.969 669.779 202.775 676.159 194.595C682.929 185.914 694.459 181.442 705.108 180.178Z" data-index="10"></path><path fill="#FCFCFA" d="M707.349 185.702C718.516 184.917 729.047 189.356 737.703 196.164C750.456 206.192 759.454 221.839 761.237 238.036C762.206 246.836 760.361 255.697 754.595 262.618C748.216 270.273 738.173 274.114 728.435 274.841C714.782 275.859 702.081 270.136 691.848 261.442C685.345 255.567 678.016 246.462 675.493 237.93C677.804 241.665 680.198 245.248 683.447 248.245C688.572 253.046 695.47 255.485 702.473 254.974C707.293 254.658 711.634 252.63 714.695 248.852C719.144 243.362 720.422 235.515 719.798 228.625C718.857 218.237 713.294 207.242 705.241 200.568C698.523 194.999 692.159 193.805 683.675 194.553C690.68 188.95 698.589 186.76 707.349 185.702Z" data-index="11"></path><path fill="#FCFCFA" d="M676.837 208.545C677.547 208.544 678.257 208.564 678.967 208.605C680.635 208.716 682.576 209.228 683.612 210.669C684.445 211.83 684.788 212.973 684.53 214.401C684.047 217.079 681.981 218.587 679.792 219.876C678.875 219.944 677.905 220.04 676.987 219.95C675.76 219.83 674.332 218.898 673.657 217.875C672.744 216.493 672.441 215.019 672.812 213.412C673.382 210.941 674.721 209.772 676.837 208.545Z" data-index="12"></path><path fill="#3D1A3F" d="M661.607 144.605L662.204 144.545C663.304 144.428 664.39 144.321 665.499 144.345C668.43 144.409 673.209 145.165 675.048 147.663C679.333 153.479 670.538 163.851 669.694 170.316C668.995 175.661 670.865 181.575 669.417 186.734C668.575 189.736 666.647 191.008 664.035 192.453C662.247 192.608 660.445 192.768 658.742 192.075C655.064 190.58 652.657 186.928 651.171 183.421C647.538 174.853 647.088 163.066 650.912 154.499C653.241 149.278 656.328 146.567 661.607 144.605Z" data-index="13"></path><path fill="#6B495F" d="M662.495 149.572C665.258 149.221 669.566 148.871 671.857 150.795C672.961 151.722 673.268 153.115 672.672 154.433C671.617 156.764 669.716 158.871 668.517 161.197C664.34 169.297 666.033 175.524 666.338 183.957C666.422 186.295 665.675 186.965 664.195 188.602C663.155 188.569 661.96 188.582 660.982 188.195C658.565 187.24 656.47 184.151 655.397 181.912C652.234 175.309 651.1 165.207 653.754 158.322C655.567 153.62 658.02 151.55 662.495 149.572Z" data-index="14"></path><path fill="#350D29" d="M609.158 148.826C613.443 145.3 617.34 142.996 622.585 141.202L621.906 141.664L621.794 142.627L620.989 142.87L620.979 143.104L622.772 143.25L623.07 144.007C618.923 145.739 614.607 148.337 610.362 149.604L609.158 148.826Z" data-index="15"></path><path fill="#4C2E48" d="M836.043 255.869C837.407 255.803 838.017 256.05 839.086 256.779L839.274 258.027C838.306 260.659 836.875 262 834.516 263.463C833.516 263.5 832.9 263.58 831.99 263.076C831.21 262.644 831.357 262.302 831.165 261.502C831.995 258.853 833.835 257.388 836.043 255.869Z" data-index="16"></path><path fill="#3D1A3F" d="M682.448 362.997C682.671 363.262 682.689 363.645 682.791 363.975C681.247 367.771 678.904 371.472 676.658 374.898C676.528 374.705 676.387 374.518 676.267 374.318C675.684 373.351 675.583 372.815 675.842 371.714C676.708 368.031 679.297 364.974 682.448 362.997Z" data-index="17"></path><path fill="#3D1A3F" d="M830.648 236.362C831.441 236.334 831.985 236.325 832.751 236.588C833.546 236.862 833.499 237.227 833.853 237.937C833.611 239.794 832.75 241.074 831.795 242.656L829.718 242.488C828.644 241.784 828.667 241.8 828.325 240.561C828.688 238.836 829.601 237.749 830.648 236.362Z" data-index="18"></path><path fill="#FCFCFA" d="M554.78 304.005C568.507 309.92 582.061 315.846 596.438 320.051C598.191 325.781 601.252 331.25 604.263 336.402C617.357 358.805 637.026 378.458 660.165 390.55C661.838 391.425 663.57 392.188 665.303 392.935C666.097 395.887 667.394 400.326 670.321 401.837C671.113 402.246 671.639 402.108 672.494 402.088C675.248 400.253 677.384 397.741 679.933 395.651C683.837 392.449 688.443 389.599 692.785 387.018C718.613 371.663 753.551 364.095 782.6 357.262C759.279 371.608 742.684 383.695 729.804 409.005C721.689 428.269 720.143 446.706 723.396 467.336C724.549 474.643 731.877 499.484 730.071 504.872L732.154 503.374C731.916 501.11 732.142 499.002 732.365 496.751C734.532 500.142 737.605 505.67 736.817 509.817C736.415 511.932 734.783 513.807 733.002 514.937C731.139 516.118 728.747 516.38 726.617 516.728L728.148 516.865L728.673 517.855C730.518 517.558 732.396 517.318 734.216 516.89C732.783 523.049 731.584 529.259 730.62 535.508C729.561 541.966 728.982 549.693 726.475 555.734L726.076 557.136C725.775 561.271 724.452 565.07 722.961 568.906C722.303 569.084 721.667 569.248 720.995 569.361C686.553 575.098 629.81 546.411 601.703 527.107C557.522 496.764 527.738 461.215 503.981 413.326C497.254 399.767 490.145 384.417 487.385 369.481C489.62 367.467 491.926 365.52 494.198 363.546L495.221 369.631L496.288 368.426L494.907 362.815C502.964 355.021 508.372 345.915 515.188 337.225C515.721 336.546 516.021 336.307 516.837 336.04C517.136 334.395 517.182 334.456 518.51 333.418C519.468 330.238 521.017 327.191 522.52 324.235C523.893 321.534 526.278 317.186 529.531 316.525C531.618 316.102 533.16 317.336 534.689 318.526C536.049 319.719 537.436 320.888 538.733 322.15L535.017 327.555L536.271 327.058C536.679 327.413 537.099 327.727 537.422 328.164C542.954 324.176 548.52 314.203 552.372 308.492L554.78 304.005Z" data-index="19"></path><path fill="#EB6957" d="M518.51 333.418C519.468 330.238 521.017 327.191 522.52 324.235C523.893 321.534 526.278 317.186 529.531 316.525C531.618 316.102 533.16 317.336 534.689 318.526C536.049 319.719 537.436 320.888 538.733 322.15L535.017 327.555L534.159 328.218L533.346 327.882C532.403 325.751 532.453 323.318 532.294 321.019C530.582 322.847 530.509 324.678 530.611 327.067C530.902 333.909 533.28 341 535.107 347.572C539.133 362.053 545.238 375.54 552.179 388.832C568.265 419.633 587.996 445.83 614.045 468.929C635.977 488.378 670.719 512.493 701.068 512.568C703.447 519.63 708.938 542.114 712.493 546.588C713.193 546.67 713.502 546.894 714.101 546.402C718.668 542.661 719.819 524.443 720.056 518.533C722.965 518.428 725.792 518.298 728.673 517.855C730.518 517.558 732.396 517.318 734.216 516.89C732.783 523.049 731.584 529.259 730.62 535.508C729.561 541.966 728.982 549.693 726.475 555.734L726.076 557.136C725.775 561.271 724.452 565.07 722.961 568.906C722.303 569.084 721.667 569.248 720.995 569.361C686.553 575.098 629.81 546.411 601.703 527.107C557.522 496.764 527.738 461.215 503.981 413.326C497.254 399.767 490.145 384.417 487.385 369.481C489.62 367.467 491.926 365.52 494.198 363.546L495.221 369.631L496.288 368.426L494.907 362.815C502.964 355.021 508.372 345.915 515.188 337.225C515.721 336.546 516.021 336.307 516.837 336.04C517.136 334.395 517.182 334.456 518.51 333.418Z" data-index="20"></path><path fill="#EB6957" d="M487.385 369.481C489.62 367.467 491.926 365.52 494.198 363.546L495.221 369.631L496.288 368.426C509.456 414.365 533.766 450.711 566.632 484.986C572.954 490.965 579.126 497.504 585.864 502.996C618.22 529.372 669.105 558.43 711.887 557.428C716.793 557.332 721.678 556.764 726.475 555.734L726.076 557.136C725.775 561.271 724.452 565.07 722.961 568.906C722.303 569.084 721.667 569.248 720.995 569.361C686.553 575.098 629.81 546.411 601.703 527.107C557.522 496.764 527.738 461.215 503.981 413.326C497.254 399.767 490.145 384.417 487.385 369.481Z" data-index="21"></path><path fill="#3D1A3F" d="M495.221 369.631L496.288 368.426C509.456 414.365 533.766 450.711 566.632 484.986C572.954 490.965 579.126 497.504 585.864 502.996C618.22 529.372 669.105 558.43 711.887 557.428C716.793 557.332 721.678 556.764 726.475 555.734L726.076 557.136C720.728 558.389 715.261 559.06 709.769 559.136C667.795 559.701 618.703 532.208 586.693 506.479C578.877 500.197 571.795 493.115 564.599 486.149C559.188 481.895 554.396 475.86 549.828 470.738C524.307 442.116 504.169 407.132 495.221 369.631Z" data-index="22"></path><path fill="#3D1A3F" d="M516.837 336.04C517.136 334.395 517.182 334.456 518.51 333.418C522.471 382.194 556.421 430.511 589.957 464.151C614.272 486.253 642.947 506.078 674.627 515.86C679.869 517.449 685.199 518.731 690.591 519.697C694.532 520.432 698.734 520.858 702.526 522.153C669.545 521.691 638.957 504.413 612.784 485.759C604.634 479.95 596.171 473.837 589.177 466.643C589.029 466.49 588.891 466.328 588.748 466.17C588.626 466.09 588.497 466.021 588.383 465.93C579.941 459.212 572.449 449.879 565.699 441.527C541.67 411.796 519.451 375.176 516.837 336.04Z" data-index="23"></path><path fill="#3D1A3F" d="M587.779 496.392C584.259 494.464 581.415 491.136 580.198 487.3C579.4 484.785 579.346 481.731 580.631 479.359C581.257 478.184 582.344 477.322 583.631 476.98C586.186 476.298 588.147 477.418 590.347 478.596C593.99 481.507 596.743 484.708 597.159 489.543C597.341 491.659 597.064 494.259 595.419 495.791C593.988 497.123 592.036 497.363 590.183 497.061C589.345 496.924 588.567 496.711 587.779 496.392Z" data-index="24"></path><path fill="#FCFCFA" d="M590.601 494.157C589.968 493.983 589.341 493.816 588.728 493.578C586.052 492.542 584.108 490.351 583.113 487.688C582.42 485.832 582.004 483.161 583.103 481.362C583.568 480.6 584.151 480.112 584.989 479.853C587.046 479.217 588.485 480.138 590.237 481.085C592.33 483.539 595.085 487.113 594.707 490.566C594.579 491.731 594.182 492.882 593.165 493.577C592.415 494.088 591.468 494.085 590.601 494.157Z" data-index="25"></path><path fill="#FCFCFA" d="M632.482 527.895C631.663 527.302 630.953 526.655 630.271 525.911C628.461 523.938 627.066 521.413 627.311 518.655C627.477 516.779 628.395 515.086 629.948 514C631.541 512.888 633.633 512.681 635.483 513.168C638.965 514.084 641.242 517.027 642.972 519.983C643.813 522.002 644.46 524.188 643.651 526.338C643.063 527.901 641.805 529.044 640.252 529.617C637.994 530.451 635.869 529.826 633.823 528.757C633.141 528.401 633.226 528.418 632.482 527.895Z" data-index="26"></path><path fill="#350D29" d="M632.482 527.895C631.663 527.302 630.953 526.655 630.271 525.911C628.461 523.938 627.066 521.413 627.311 518.655C627.477 516.779 628.395 515.086 629.948 514C631.541 512.888 633.633 512.681 635.483 513.168C638.965 514.084 641.242 517.027 642.972 519.983L640.726 520.315C639.318 518.126 637.745 515.687 635.056 514.986C633.82 514.664 632.487 514.789 631.402 515.498C630.385 516.164 629.813 517.385 629.68 518.564C629.409 520.964 630.792 523.138 632.392 524.784C632.834 525.238 633.308 525.64 633.79 526.05L632.482 527.895Z" data-index="27"></path><path fill="#3D1A3F" d="M642.972 519.983C643.813 522.002 644.46 524.188 643.651 526.338C643.063 527.901 641.805 529.044 640.252 529.617C637.994 530.451 635.869 529.826 633.823 528.757C633.141 528.401 633.226 528.418 632.482 527.895L633.79 526.05C635.274 526.723 637.188 527.537 638.845 527.1C640.002 526.796 640.802 526.06 641.225 524.949C641.799 523.441 641.166 521.767 640.726 520.315L642.972 519.983Z" data-index="28"></path><path fill="#FCFCFA" d="M549.179 434.76C550.428 434.116 551.374 433.863 552.752 434.243C555.246 434.93 557.424 437.356 558.658 439.537C558.727 439.66 558.78 439.792 558.84 439.92C560.506 442.696 562.03 445.396 561.181 448.716C561.099 449.036 561.006 449.353 560.919 449.671C560.537 450.412 560.043 451.327 559.395 451.881C558.041 453.039 556.512 453.388 554.774 453.056C551.449 452.419 549.167 449.039 547.601 446.373C547.452 445.608 547.289 444.843 547.16 444.074C546.552 440.46 547.094 437.758 549.179 434.76Z" data-index="29"></path><path fill="#3D1A3F" d="M558.84 439.92C560.506 442.696 562.03 445.396 561.181 448.716C561.099 449.036 561.006 449.353 560.919 449.671C560.537 450.412 560.043 451.327 559.395 451.881C558.041 453.039 556.512 453.388 554.774 453.056C551.449 452.419 549.167 449.039 547.601 446.373L549.762 445.456C551.463 447.686 552.941 449.367 555.768 449.969C557.05 449.593 557.52 449.512 558.198 448.232C558.599 447.475 558.657 446.009 558.762 445.167L558.378 443.456C559.084 442.119 558.9 441.41 558.84 439.92Z" data-index="30"></path><path fill="#3D1A3F" d="M549.179 434.76C550.428 434.116 551.374 433.863 552.752 434.243C555.246 434.93 557.424 437.356 558.658 439.537C558.727 439.66 558.78 439.792 558.84 439.92C558.9 441.41 559.084 442.119 558.378 443.456C557.628 441.743 556.625 439.784 555.241 438.496C553.628 436.994 552.149 436.816 550.032 436.963L549.179 434.76Z" data-index="31"></path><path fill="#350D29" d="M549.179 434.76L550.032 436.963C549.22 440.064 549.157 442.332 549.762 445.456L547.601 446.373C547.452 445.608 547.289 444.843 547.16 444.074C546.552 440.46 547.094 437.758 549.179 434.76Z" data-index="32"></path><path fill="#E4DED7" d="M554.78 304.005C568.507 309.92 582.061 315.846 596.438 320.051C598.191 325.781 601.252 331.25 604.263 336.402C617.357 358.805 637.026 378.458 660.165 390.55C661.838 391.425 663.57 392.188 665.303 392.935C666.097 395.887 667.394 400.326 670.321 401.837C671.113 402.246 671.639 402.108 672.494 402.088C675.248 400.253 677.384 397.741 679.933 395.651C683.837 392.449 688.443 389.599 692.785 387.018C718.613 371.663 753.551 364.095 782.6 357.262C759.279 371.608 742.684 383.695 729.804 409.005C724.202 410.253 714.981 418.907 709.929 422.584C700.348 429.558 690.104 433.607 678.116 431.606C652.833 427.388 631.633 398.85 618.636 378.447C615.083 372.87 611.215 367.091 608.504 361.056C605.788 355.011 598.137 330.753 594.535 327.477C591.982 325.156 586.201 324.36 582.973 323.378C574.647 320.844 557.282 315.465 552.372 308.492L554.78 304.005Z" data-index="33"></path><path fill="#3D1A3F" d="M701.068 512.568C670.719 512.493 635.977 488.378 614.045 468.929C587.996 445.83 568.265 419.633 552.179 388.832C545.238 375.54 539.133 362.053 535.107 347.572C533.28 341 530.902 333.909 530.611 327.067C530.509 324.678 530.582 322.847 532.294 321.019C532.453 323.318 532.403 325.751 533.346 327.882L534.159 328.218L535.017 327.555L536.271 327.058C536.679 327.413 537.099 327.727 537.422 328.164C536.27 329.187 534.687 330.193 534.391 331.777C535.87 342.01 541.11 354.235 545.099 363.785C564.083 409.237 592.413 448.015 631.965 477.631C649.596 490.832 669.316 502.449 690.791 507.987C695.148 509.11 699.506 509.273 703.831 510.205C705.356 516.09 707.306 521.833 708.942 527.684C710.286 532.484 711.339 537.461 713.029 542.148C715.701 532.771 717.643 523.122 717.401 513.325C717.102 511.381 716.956 509.424 716.787 507.466C718.901 507.127 720.027 506.998 721.356 505.202C722.482 506.203 723.394 506.205 724.82 506.322L725.889 505.835C727.196 502.307 715.624 473.769 713.249 468.619C712.219 466.388 710.475 463.895 710.16 461.463C711.017 461.223 710.872 461.073 711.563 461.444C718.22 465.021 726.813 490.926 728.625 498.861C729.095 500.92 729.392 502.922 729.511 505.034L730.071 504.872L732.154 503.374C731.916 501.11 732.142 499.002 732.365 496.751C734.532 500.142 737.605 505.67 736.817 509.817C736.415 511.932 734.783 513.807 733.002 514.937C731.139 516.118 728.747 516.38 726.617 516.728L728.148 516.865L728.673 517.855C725.792 518.298 722.965 518.428 720.056 518.533C719.819 524.443 718.668 542.661 714.101 546.402C713.502 546.894 713.193 546.67 712.493 546.588C708.938 542.114 703.447 519.63 701.068 512.568Z" data-index="34"></path><path fill="#EB6957" d="M732.365 496.751C734.532 500.142 737.605 505.67 736.817 509.817C736.415 511.932 734.783 513.807 733.002 514.937C731.139 516.118 728.747 516.38 726.617 516.728L720.917 517.262L720.365 516.888C719.6 514.867 719.939 512.146 719.954 509.992C723.41 509.663 728.4 509.868 731.019 507.215C732.096 506.124 732.084 504.799 732.154 503.374C731.916 501.11 732.142 499.002 732.365 496.751Z" data-index="35"></path><path fill="#4C2E48" d="M705.111 478.121C712.249 486.226 717.728 495.011 721.356 505.202C720.027 506.998 718.901 507.127 716.787 507.466C714.511 497.095 709.506 487.698 705.111 478.121Z" data-index="36"></path><path fill="#AD7869" d="M581.002 135.511C582.238 135.515 583.547 135.608 584.752 135.887C596.936 138.702 612.262 160.362 618.404 170.335C628.314 186.688 636.418 204.069 642.574 222.172C649.942 244.2 658.234 290.01 652.593 312.813C651.379 317.718 649.605 320.788 645.29 323.439C622.034 324.632 585.215 309.727 563.63 300.656C550.7 294.778 537.786 288.655 526.47 279.948C518.329 273.685 501.972 258.653 500.98 247.737C499.894 235.778 529.28 213.992 537.929 206.532C542.981 202.174 547.836 197.802 552.252 192.785C544.55 196.295 537.554 202.022 530.915 207.224C537.93 189.645 565.412 145.654 581.002 135.511Z" data-index="37"></path><path fill="#E4DED7" d="M376.765 710.303C391.698 712.292 406.881 712.844 421.916 713.646C430.582 723.334 442.645 737.781 442.789 751.545C443.009 772.514 404.385 800.468 387.517 810.212C378.566 815.383 369.379 820.189 360.291 825.114C353.224 828.944 345.038 832.472 339.27 838.167L338.708 838.727C339.488 838.52 340.274 838.328 341.053 838.115C346.479 836.633 350.723 837.02 356.243 837.333C365.801 839.264 375.465 841.014 384.915 843.417C391.782 845.163 398.688 847.669 405.622 849.019C403.185 852.212 401.363 854.652 400.335 858.595L400.674 859.188C405.394 856.644 407.697 850.635 412.463 847.975C412.734 847.824 413.001 847.667 413.273 847.518C418.829 844.45 424.968 843.384 431.132 845.244C442.935 848.804 452.032 863.121 457.287 873.461C458.795 876.427 460.236 879.503 461.412 882.619C459.893 883.021 458.029 883.299 456.61 883.93C452.592 884.67 448.584 885.471 444.59 886.332C444.37 878.626 441.91 870.741 436.878 864.806C430.607 857.408 422.825 855.183 413.51 854.336C418.593 856.197 423.794 858.25 428.216 861.426C437.191 867.872 439.637 876.499 441.331 886.829C394.886 890.407 346.906 871.554 303.239 857.212C292.972 853.84 282.672 850.067 272.185 847.47C281.865 841.125 292.699 836.373 302.687 830.457C327.49 815.769 364.78 788.639 377.19 762.105C385.357 744.644 383.241 727.874 376.765 710.303Z" data-index="38"></path><path fill="#E9A56D" d="M359.003 450.945L359.624 451.046L359.936 451.712C347.444 489.106 320.482 516.968 286.83 536.351C278.017 541.427 265.526 546.128 258.004 552.222C257.849 552.348 257.696 552.478 257.542 552.606C253.295 571.025 244.116 589.053 232.81 604.048C219.689 621.451 198.419 639.488 175.964 642.247C174.623 642.412 174.104 642.734 173.008 641.898C170.477 627.371 167.797 608.43 172.847 594.408C177.738 580.826 187.496 570.601 197.229 560.327C241.816 513.264 300.759 478.327 359.003 450.945Z" data-index="39"></path><path fill="#FCFCFA" d="M120.838 547.651C113.969 531.078 112.128 509.548 113.668 491.86C117.095 452.486 140.322 404.53 171.009 379.006C177.905 373.271 198.693 357.598 207.628 359.252C209.087 359.523 209.647 359.999 210.541 361.135C211.977 365.495 205.682 373.456 203.486 377.222C188.063 403.674 174.889 430.487 168.178 460.552C154.578 467.644 142.382 484.759 137.166 498.827C134.813 504.05 132.601 515.766 130.447 519.064L130.042 518.132C130.624 512.031 130.025 505.254 128.504 499.332L127.779 498.817C125.318 500.175 124.015 503.791 123.294 506.357C120.735 515.455 120.299 526.312 120.579 535.724C120.693 539.524 121.446 543.929 120.838 547.651Z" data-index="40"></path><path fill="#AD7869" d="M765.365 43.6176C765.615 43.5909 765.864 43.5615 766.113 43.5375C769.108 43.2505 771.413 43.3415 774.081 44.8191C779.651 47.9041 783.902 53.3367 788.051 58.04C797.885 69.1885 807.93 81.0104 821.514 87.6849C825.81 89.8234 830.376 91.3706 835.087 92.2843C840.124 93.2741 850.401 92.3101 854.203 95.8726C854.928 96.5528 855.511 97.502 855.48 98.5144C855.402 100.993 853.152 102.799 851.382 104.254C836.027 116.874 811.032 109.891 793.264 107.893C788.225 102.791 783.131 97.5756 776.539 94.5073C772.971 92.846 769.122 91.6008 765.691 89.6653C761.566 87.3383 758.082 84.517 753.365 83.367C748.8 82.254 744.871 82.8529 740.917 85.3193C739.536 86.5526 738.475 87.8566 737.355 89.3273C717.872 90.2264 702.105 94.0004 683.551 99.3861C683.128 91.1711 683.453 81.9756 686.916 74.3495C694.777 57.0387 712.229 63.6555 726.398 66.8595C733.656 68.5007 740.813 69.803 748.279 69.6277C751.372 69.5551 754.778 69.6082 757.684 68.4213C759.039 67.8677 761.05 67.1325 761.593 65.7593C757.376 65.0126 752.341 66.5369 747.96 66.3478C738.911 65.9572 729.675 64.0372 720.827 62.1516C736.025 56.8246 750.143 48.7935 765.365 43.6176Z" data-index="41"></path><path fill="#E9A56D" d="M141.741 494.578C149.143 483.174 156.802 473.141 167.35 464.438C160.907 501.22 165.015 532.056 182.593 565.211C172.638 577.093 165.259 588.423 162.787 603.953C149.251 593.156 129.502 572.777 124.595 555.941C124.234 550.256 123.455 544.623 123.329 538.92C123.109 529.021 124.36 518.126 125.809 508.32C127.282 510.344 127.397 517.708 127.739 520.324L130.042 518.132L130.447 519.064L132.997 520.885C134.708 511.48 137.905 503.275 141.741 494.578Z" data-index="42"></path><path fill="#3D1A3F" d="M130.042 518.132L130.447 519.064L132.997 520.885C131.928 527.062 131.955 533.266 131.642 539.507C129.472 533.306 128.718 526.791 127.739 520.324L130.042 518.132Z" data-index="43"></path><path fill="#E9A56D" d="M729.145 93.75C731.295 93.4794 733.527 93.4545 735.693 93.323C734.783 94.9369 733.831 96.5316 732.976 98.1759C731.676 100.677 730.904 104.064 731.904 106.801C732.601 108.709 734.04 110.054 735.913 110.797C739.894 112.376 744.968 111.641 748.766 109.896C755.495 106.804 760.977 100.685 763.598 93.8387C777.367 98.7702 786.798 105.389 795.135 117.609C797.481 121.049 799.252 125.02 802.009 128.135C802.702 128.918 803.233 129.372 803.509 130.402C801.418 129.572 799.337 126.383 797.687 124.806C793.484 120.793 787.548 117.578 782.028 115.838C777.154 114.301 771.224 113.621 766.596 116.24C763.236 118.142 761.711 121.092 760.713 124.684L760.541 125.323C759.303 135.205 763.695 142.736 768.113 151.134C736.196 121.836 724.274 111.737 679.362 107.34C695.834 100.945 711.431 95.533 729.145 93.75Z" data-index="44"></path><path fill="#FCFCFA" d="M771.644 120.102C772.824 119.952 773.995 119.856 775.186 119.852C784.211 119.821 792.461 124.223 798.716 130.531C806.959 138.843 814.18 151.924 816.041 163.538C816.656 167.377 816.524 171.314 816.491 175.19C812.294 176.637 807.996 177.841 803.748 179.13C798.632 177.222 794.54 174.744 790.213 171.433L783.211 165.757C785.211 165.698 787.373 165.783 789.215 164.901C792.052 163.544 794.212 161.386 795.235 158.38C797.006 153.179 795.449 147.253 793.207 142.432C789.97 135.469 782.259 124.365 774.571 121.951C773.49 121.611 772.456 121.624 771.451 122.156C767.251 124.38 768.065 131.273 766.592 135.156C766.215 136.149 766.175 136.235 765.195 136.72C765.097 136.51 764.993 136.302 764.902 136.089C763.753 133.411 763.889 127.346 765.123 124.791C766.482 121.976 768.862 121.107 771.644 120.102Z" data-index="45"></path><path fill="#6B495F" d="M771.523 124.392C772.799 124.635 773.822 124.957 774.974 125.575C782.348 129.528 789.777 140.278 791.913 148.279C792.765 151.467 793.198 155.438 791.267 158.337C789.86 160.45 787.824 161.265 785.446 161.807L780.3 162.428C776.93 159.472 771.998 155.204 770.801 150.774C771.358 149.047 773.379 148.012 774.676 146.729C775.949 145.47 777.017 143.918 776.862 142.031C776.557 138.318 772.926 135.654 770.205 133.609C769.964 130.107 770.247 127.678 771.523 124.392Z" data-index="46"></path><path fill="#FCFCFA" d="M932.984 131.121C935.93 130.918 939.689 131.511 942.111 133.317C942.912 133.914 942.884 134.021 943.059 135.044C941.354 136.031 936.747 135.291 934.558 135.578C918.118 137.731 897.733 162.483 888.173 175.314L882.806 182.911C884.275 176.257 887.793 169.776 891.412 164.054C900.451 149.763 916.081 134.989 932.984 131.121Z" data-index="47"></path><path fill="#6B495F" d="M746.143 87.189C749.714 87.3839 755.444 87.3235 758.227 89.7745C759.111 90.5532 759.528 91.6428 759.398 92.8127C758.872 97.5295 751.69 103.356 748.021 105.969C746.677 106.721 745.238 107.344 743.74 107.719C741.798 108.206 739.486 108.415 737.766 107.185C736.649 106.386 736.084 105.183 735.906 103.855C735.346 99.6927 737.945 94.6839 740.316 91.4289C742.106 88.9705 743.047 87.6993 746.143 87.189Z" data-index="48"></path><path fill="#DB9165" d="M818.182 149.766C820.053 151.38 821.49 153.681 823.172 155.517C826.407 159.049 829.91 161.848 833.71 164.732L829.26 167.634L821.956 171.819C821.24 164.192 820.395 157.143 818.182 149.766Z" data-index="49"></path><path fill="#FCFCFA" d="M768.951 137.147C770.555 137.708 772.421 138.589 773.138 140.234C774.168 142.598 772.682 144.982 771.614 147.018L770.663 147.121C769.281 146.282 768.673 144.827 768.293 143.304C767.682 140.858 767.694 139.369 768.951 137.147Z" data-index="50"></path></svg>