<svg xmlns="http://www.w3.org/2000/svg" xmlns:xlink="http://www.w3.org/1999/xlink" width="1024" height="1024" viewBox="0 0 1024 1024"><path fill="#412624" d="M252.035 184.393C246.811 174.862 245.769 163.242 246.527 152.556C248.307 127.463 263.59 105.017 282.246 89.0617C296.318 77.0255 313.185 68.0528 330.603 61.9046C335.559 60.1554 340.928 58.0656 346.264 58.6388C349.125 58.9461 352.407 60.0976 354.124 62.5522C360.272 71.3406 335.244 85.7088 329.462 90.0854C324.754 93.6496 320.14 97.5757 316.141 101.931C310.1 108.512 305.867 116.102 304.228 124.936C301.15 141.535 310.595 155.577 319.508 168.581C323.463 169.543 327.359 170.979 331.234 172.232C331.346 171.001 331.443 169.723 331.7 168.512C332.17 166.298 334.021 163.846 335.923 162.654C338.519 161.026 341.676 161.415 344.501 162.133C356.19 165.107 363.615 174.035 369.472 184.022C368.129 178.852 366.665 173.249 367.927 167.905C368.537 165.318 369.908 162.811 372.259 161.431C374.919 159.869 378.117 159.96 380.973 160.906C386.187 162.633 390.314 167.048 392.696 171.881C397.323 181.266 396.532 191.338 393.292 200.956C395.784 201.01 398.336 201.166 400.8 201.538C407.675 202.576 418.615 205.75 422.589 212.009C423.314 213.151 423.233 213.764 422.998 215.045C421.566 216.772 419.039 217.325 417.095 218.411C420.743 222.784 426.333 225.867 430.416 229.995C444.234 243.966 454.331 260.731 461.549 278.923C466.923 278.234 472.179 277.197 477.215 275.139C498.434 266.468 510.517 243.802 515.15 222.401C516.64 215.52 516.617 207.892 519.465 201.403C520.554 198.92 522.159 196.379 524.821 195.402C526.851 194.657 529.309 194.82 531.227 195.817C535.003 197.778 536.709 202.407 537.813 206.263C544.125 228.297 540.591 260.773 532.8 281.927C529.899 289.803 525.887 297.054 521.791 304.348C559.525 298.329 595.125 284.895 631.836 274.906C643.32 271.781 668.994 265.603 680.362 266.582C695.227 267.862 724.642 290.76 736.122 301.136C760.869 323.504 781.724 349.414 796.808 379.25C804.954 395.288 811.863 411.926 817.474 429.017C820.464 438.159 822.788 447.515 825.841 456.621C837.322 490.858 851.546 525.457 874.556 553.685C882.269 563.147 891.531 572.769 902.257 578.81C914.01 585.43 927.813 588.829 941.03 584.982C951.907 581.817 960.187 575.384 965.553 565.372C975.027 547.692 974.4 519.036 970.787 499.628C969.542 492.938 967.446 486.484 965.452 479.99C962.136 480.044 958.739 480.159 955.493 479.389C944.207 476.713 935.845 468.043 930.128 458.358C921.461 443.676 919.684 425.802 923.983 409.421C927.295 396.799 933.679 385.692 942.482 376.11C944.545 373.865 947.087 371.06 949.822 369.666C951.097 369.016 951.717 368.967 953.069 369.34C954.327 371.842 950.474 381.526 949.724 384.575C955.204 377.119 961.689 364.451 971.475 361.744C972.747 361.393 974.175 361.412 975.316 362.127C976.037 362.579 975.877 362.962 976.008 363.733C974.767 366.722 972.015 368.672 970.134 371.242C968.804 373.06 968.404 375.775 968.134 377.958C966.017 395.097 975.229 411.743 980.203 427.62C981.674 432.304 982.707 437.115 983.286 441.99C984.73 454.336 983.946 464.894 976.069 474.849C985.303 502.008 988.144 534.132 979.272 561.797C974.238 577.495 964.213 593.045 949.176 600.706C936.318 607.257 919.809 607.585 906.265 603.043C877.865 593.518 855.645 567.751 840.785 542.63C835.589 533.847 831.254 524.744 826.722 515.618C824.066 540.246 819.385 564.613 812.727 588.472C810.484 596.659 807.946 604.895 804.926 612.83C799.225 627.808 790.59 643.36 791.248 659.824C791.587 668.315 795.802 671.295 801.58 676.66C797.17 721.085 780.015 763.237 762.498 803.865C780.37 806.149 798.195 808.787 815.963 811.776C825.381 813.421 839.947 816.887 848.937 817.477C851.353 825.574 853.277 834.226 856.175 842.119C854.463 842.858 852.724 843.534 850.963 844.147C833.958 849.968 815.524 852.492 797.912 855.937C775.749 860.147 753.676 864.822 731.71 869.96C705.715 875.79 679.813 882.125 653.772 887.734C594.529 900.685 534.858 911.594 474.865 920.44C431.352 926.824 388.264 931.639 344.237 932.253C320.413 932.585 295.68 931.944 272.239 927.245C259.277 924.647 242.484 917.601 230.491 911.606C227.941 910.332 224.612 908.565 223.759 905.622C223.181 903.63 223.644 901.531 224.618 899.743C227.793 893.916 236.029 889.484 241.477 885.886C249.187 880.795 256.879 875.439 264.922 870.898C293.826 854.58 325.08 842.735 355.648 830.038C376.065 821.558 401.364 810.465 422.566 804.902C433.878 764.907 436.665 723.123 436.49 681.751C429.024 677.702 421.785 673.241 414.357 669.119C398.795 687.097 381.883 703.181 363.675 718.474C376.218 735.836 389.235 754.607 397.82 774.31C400.004 779.321 401.295 784.512 399.091 789.766C396.217 796.617 379.012 815.006 371.982 817.664C371.021 818.027 371.043 817.826 370.166 817.462C367.747 814.635 367.335 810.929 366.607 807.392C362.746 813.08 356.976 817.789 351.083 821.247C347.465 823.37 338.972 828.563 334.762 827.218C334.137 827.018 333.591 826.535 333.385 825.878C332.418 822.779 333.491 809.586 333.455 805.121C333.41 799.447 333.137 793.595 332.404 787.971C329.648 766.816 311.234 742.906 301.497 723.743C298.775 718.387 294.038 710.65 294.705 704.559C295.37 698.489 309.092 674.591 312.367 667.983C317.555 657.258 322.631 646.479 327.593 635.648C332.761 624.245 336.949 612.62 340.831 600.731C337.005 595.146 332.297 589.976 328.22 584.546C319.99 573.498 312.853 561.677 306.909 549.249C265.337 560.867 221.53 565.654 179.037 556.095C132.223 545.565 86.5426 516.319 60.7529 475.302C47.4638 454.167 34.529 422.628 40.4706 397.455C43.5843 384.262 54.2323 374.755 65.308 367.806C66.5663 357.902 68.5454 348.068 76.5121 341.254C84.5553 334.374 94.1154 332.959 104.326 333.581C115.931 313.145 130.617 294.119 146.562 276.889C152.396 270.585 158.721 264.757 164.592 258.493C154.446 258.518 144.767 256.892 135.282 253.216C116.639 245.992 102.664 231.709 94.8062 213.433C91.4725 205.68 86.5846 191.529 90.2228 183.284C91.4411 180.522 93.9476 178.507 96.7294 177.46C101.97 175.489 108.945 175.973 114.511 175.816C153.627 175.09 192.388 183.347 227.811 199.952C235.658 194.398 243.911 189.52 252.035 184.393Z" data-index="1"></path><path fill="#E1D8BD" d="M609.813 795.175C631.258 794.846 652.838 796.015 674.242 797.229C681.902 797.663 689.984 797.466 697.56 798.38C694.352 804.402 691.047 810.423 687.439 816.216C684.626 820.732 681.445 825.091 678.813 829.706C678.099 830.958 677.268 832.289 677.188 833.753C678.244 835.934 679.706 836.767 681.952 837.54C687.96 839.607 694.856 839.599 701.099 838.893L703.022 843.518C709.609 848.311 716.816 848.586 724.568 847.358C733.493 845.945 743.061 842.261 748.586 834.79C754.934 826.207 758.526 813.763 762.498 803.865C780.37 806.149 798.195 808.787 815.963 811.776C825.381 813.421 839.947 816.887 848.937 817.477C851.353 825.574 853.277 834.226 856.175 842.119C854.463 842.858 852.724 843.534 850.963 844.147C833.958 849.968 815.524 852.492 797.912 855.937C775.749 860.147 753.676 864.822 731.71 869.96C705.715 875.79 679.813 882.125 653.772 887.734C594.529 900.685 534.858 911.594 474.865 920.44C431.352 926.824 388.264 931.639 344.237 932.253C320.413 932.585 295.68 931.944 272.239 927.245C259.277 924.647 242.484 917.601 230.491 911.606C227.941 910.332 224.612 908.565 223.759 905.622C223.181 903.63 223.644 901.531 224.618 899.743C227.793 893.916 236.029 889.484 241.477 885.886C249.187 880.795 256.879 875.439 264.922 870.898C293.826 854.58 325.08 842.735 355.648 830.038C376.065 821.558 401.364 810.465 422.566 804.902C418.357 819.872 412.632 834.911 403.071 847.359C400.047 851.296 392.258 857.634 390.784 861.873C391.021 862.725 391.284 863.035 391.961 863.65C399.033 870.086 409.29 867.219 417.612 866.409C418.048 867.921 418.146 869.586 418.333 871.147C419.139 872.638 420.555 873.181 422.104 873.68C435.107 877.867 453.362 876.603 465.479 870.217C468.95 868.388 472.874 865.905 475.11 862.631C479.043 856.871 492.4 809.985 495.754 799.274C504.691 797.776 513.9 796.629 522.957 796.241C529.45 795.963 536.072 796.373 542.516 795.497C539.941 800.204 536.664 804.581 533.148 808.621C530.775 811.348 527.914 814.094 526.104 817.224C525.401 818.438 524.866 819.637 525.345 821.051C527.074 826.153 538.72 828.973 543.536 829.894C546.206 830.404 550.302 830.524 552.58 831.851C552.741 832.457 552.906 833.298 553.207 833.871C553.745 834.898 554.814 835.124 555.835 835.471C566.013 838.931 581.407 838.773 591.05 833.647C603.185 827.197 606.243 807.375 609.813 795.175Z" data-index="2"></path><path fill="#412624" d="M655.331 854.664C661.333 854.358 668.556 855.035 673.719 858.366C675.471 859.496 677.731 861.535 677.956 863.766C678.077 864.977 677.859 865.944 677.127 866.93C674.744 870.142 669.686 871.266 665.951 871.946C659.528 872.409 652.219 872.524 646.511 869.096C644.403 867.83 642.245 865.847 641.882 863.281C641.72 862.14 642.033 861.076 642.691 860.144C645.291 856.464 651.13 855.243 655.331 854.664Z" data-index="3"></path><path fill="#BBCB80" d="M654.86 859.182C659.642 858.991 666.071 859.256 670.371 861.54C671.55 862.167 672.094 862.571 672.466 863.848C672.366 864.008 672.282 864.18 672.166 864.328C670.872 865.975 667.604 866.283 665.639 866.693C663.099 866.995 660.538 867.065 657.986 866.902C654.817 866.68 649.258 865.9 647.283 863.259C646.795 862.605 647.004 862.707 647.233 861.795C649.348 859.889 652.146 859.577 654.86 859.182Z" data-index="4"></path><path fill="#412624" d="M327.747 870.194C331.427 870.325 334.898 870.521 337.959 872.861C339.802 874.27 341.108 876.191 341.29 878.547C341.417 880.191 340.762 881.832 339.681 883.055C337.026 886.061 333.104 886.322 329.379 886.589C325.491 886.56 321.341 886.167 318.089 883.824C316.551 882.716 315.099 880.941 314.974 878.967C314.865 877.242 315.374 875.752 316.496 874.431C319.27 871.164 323.746 870.577 327.747 870.194Z" data-index="5"></path><path fill="#BBCB80" d="M324.218 875.054C325.638 874.929 327.063 874.883 328.488 874.916C330.855 874.983 334.575 875.796 336.158 877.72C336.652 878.322 336.392 878.721 336.296 879.426C335.079 880.805 333.513 881.061 331.814 881.543C329.268 881.652 326.383 881.814 323.889 881.224C322.141 880.811 319.903 880.222 318.942 878.602L319.267 877.471C320.751 876.141 322.354 875.685 324.218 875.054Z" data-index="6"></path><path fill="#412624" d="M285.691 892.146C288.424 891.951 291.751 892.258 294.267 893.397C296.11 894.231 297.947 895.697 298.422 897.762C298.686 898.91 298.412 900.034 297.817 901.03C296.061 903.97 292.359 904.764 289.289 905.548C285.999 905.67 282.563 905.937 279.484 904.542C277.586 903.682 275.631 902.227 275.117 900.092C274.799 898.772 275.161 897.5 275.949 896.431C278.122 893.487 282.298 892.703 285.691 892.146Z" data-index="7"></path><path fill="#BBCB80" d="M284.733 896.157C286.742 896.071 288.896 895.896 290.844 896.507C292.02 896.876 292.937 897.352 293.547 898.462L293.138 899.55C291.684 900.693 290.353 901.03 288.579 901.487C286.44 901.566 283.709 901.93 281.67 901.215C280.479 900.798 279.484 900.364 278.887 899.197L279.283 898.222C280.937 896.938 282.746 896.625 284.733 896.157Z" data-index="8"></path><path fill="#322610" d="M615.387 834.629C617.324 834.416 619.264 834.253 621.213 834.361C623.586 834.492 627.828 835.857 629.186 837.97C629.911 839.097 629.847 839.407 629.605 840.632C627.98 842.795 625.643 843.34 623.126 843.919C619.513 844.242 613.365 844.924 610.595 842.041C609.594 841.001 609.625 840.661 609.612 839.307C610.816 836.809 613.008 835.815 615.387 834.629Z" data-index="9"></path><path fill="#BBCB80" d="M616.022 837.115C619.419 836.956 623.63 836.615 626.599 838.516L626.724 839.286C625.965 840.155 625.214 840.217 624.125 840.464C621.65 840.498 619.149 840.751 616.675 840.677C615.356 840.637 614.352 840.705 613.431 839.694C613.946 838.432 614.954 837.872 616.022 837.115Z" data-index="10"></path><path fill="#412624" d="M346.304 904.565C348.12 904.463 350.018 904.402 351.768 904.992C353.956 905.729 355.221 906.95 356.167 909.014C356.138 910.003 356.244 910.43 355.74 911.319C354.58 913.362 352.37 913.875 350.26 914.47L349.798 914.488C346.687 914.589 343.719 914.364 341.423 911.993C340.238 910.77 340.233 909.969 340.292 908.391C341.679 905.795 343.661 905.367 346.304 904.565Z" data-index="11"></path><path fill="#BBCB80" d="M345.348 907.996C347.608 908.085 350.567 907.915 352.582 908.965L352.447 909.794L350.859 910.843C348.448 910.995 345.223 911.486 343.206 910.01C343.631 908.795 344.301 908.662 345.348 907.996Z" data-index="12"></path><path fill="#412624" d="M563.403 880.962C565.086 881.158 567.168 881.413 568.375 882.752C569.217 883.686 569.439 884.644 569.178 885.861C568.858 887.348 567.12 888.22 565.941 888.975C564.003 888.891 561.74 888.66 560.496 886.927C559.835 886.007 559.798 884.936 560.175 883.893C560.671 882.523 562.235 881.692 563.403 880.962Z" data-index="13"></path><path fill="#322610" d="M371.378 884.972C373.487 884.953 375.7 885.118 377.281 886.723C378.284 887.74 378.321 888.082 378.424 889.424C377.662 890.869 377.242 891.209 375.857 891.932C373.537 892.184 371.132 892.494 369.288 890.696C368.361 889.792 368.426 889.251 368.451 888.074C369.219 886.507 369.931 885.922 371.378 884.972Z" data-index="14"></path><path fill="white" d="M680.601 704.271C683.103 699.626 686.205 696.072 689.888 692.317C698.047 699.054 706.323 704.608 715.433 709.968C715.616 742.104 711.824 769.072 697.56 798.38C689.984 797.466 681.902 797.663 674.242 797.229C652.838 796.015 631.258 794.846 609.813 795.175C616.773 775.154 622.05 754.139 627.203 733.587C631.373 735.032 636.685 736.433 640.907 734.489C643.813 733.15 645.541 730.373 646.558 727.446C648.021 723.236 648.339 713.354 653.348 711.634C653.977 711.418 654.906 711.155 655.544 711.494C660.483 714.124 663.599 730.902 677.632 727.461C679.298 727.052 680.542 725.956 681.374 724.48C684.287 719.315 681.578 709.874 680.601 704.271Z" data-index="15"></path><path fill="white" d="M527.427 703.437C540.715 706.268 553.652 706.669 567.186 706.578C566.052 737.481 558.921 768.981 542.516 795.497C536.072 796.373 529.45 795.963 522.957 796.241C513.9 796.629 504.691 797.776 495.754 799.274C501.818 779.863 508.228 760.562 514.98 741.379C519.293 728.806 523.891 716.253 527.427 703.437Z" data-index="16"></path><path fill="#E1D8BD" d="M513.18 314.425C513.359 314.421 513.538 314.42 513.717 314.414C524.505 314.096 535.878 311.425 546.36 308.968C568.532 303.771 589.974 296.98 611.789 290.595C625.953 286.449 640.62 283.042 655.097 280.219C662.137 278.847 671.31 276.523 678.335 278.082C692.89 281.313 721.122 303.538 732.814 314.385C781.086 359.17 814.769 425.551 817.194 491.869C818.532 528.485 810.059 568.579 797.818 602.934C791.683 620.15 781.798 637.703 780.93 656.217C780.431 666.857 783.836 673.944 791.415 681.184C787.773 699.888 783.71 718.517 777.866 736.678C771.567 756.253 763.486 775.163 756.419 794.454C756.328 795.718 756.245 795.543 755.455 796.41L754.63 796.691C745.549 798.234 734.648 799.836 725.584 797.802C720.157 796.583 714.833 794.593 709.427 793.205C709.297 792.491 709.282 792.793 709.45 792.044C709.647 791.172 710.205 791.112 710.928 790.657C711.99 784.61 715.603 778.411 717.324 772.446C722.885 753.167 724.72 734.387 724.244 714.36C730.292 716.634 737.027 718.905 743.472 719.592C745.368 719.794 746.84 719.936 748.366 718.699C748.433 718.22 748.48 718.128 748.36 717.584C748.003 715.97 746.604 714.469 745.253 713.619C741.715 711.393 737.111 710.475 733.272 708.744C723.782 704.513 714.684 699.452 706.083 693.622C675.058 672.426 655.155 638.977 648.27 602.311C635.279 533.135 665.556 452.274 704.973 396.3C710.558 388.37 716.438 380.76 723.114 373.709C727.813 368.746 734.048 364.036 737.808 358.367C737.904 358.221 737.994 358.073 738.088 357.925C736.69 358.762 735.343 359.682 734.054 360.679C703.95 383.804 673.904 435.309 659.651 469.798C649.389 494.631 641.685 521.298 638.334 547.993C634.161 581.236 637.684 616.468 653.011 646.639C658.573 657.587 665.423 667.346 672.944 677.021C634.769 689.253 589.016 698.071 548.829 694.401C544.294 693.987 538.894 693.916 534.56 692.694L534.278 691.823C533.252 691.788 533.352 691.635 532.639 690.975C531.54 692.107 531.501 692.273 529.962 692.502C529.249 691.475 529.342 691.547 529.572 690.392C531.004 683.205 533.979 675.883 535.841 668.72C542.232 644.133 547.998 619.138 549.454 593.698C549.717 589.1 550.714 582.909 549.132 578.543L548.526 578.401C547.168 584.416 547.382 593.747 546.598 600.327C544.601 616.723 541.38 632.947 536.963 648.863C525.132 690.802 509.08 731.5 495.804 773.006C491.248 787.249 486.407 801.523 483.031 816.103C464.771 822.784 446.06 820.88 427.861 815.121C443.856 769.703 447.158 712.193 441.032 664.639C439.972 656.409 439.326 646.115 435.832 638.558C435.393 637.608 435.488 637.641 434.541 637.047C432.926 639.917 435.311 665.808 435.92 670.688C394.954 648.886 356.744 608.431 330.957 570.308C325.908 562.845 320.031 554.817 316.341 546.573C326.505 543.586 336.726 540.681 346.583 536.769C369.528 527.661 395.953 511.689 408.092 489.61C419.823 468.272 427.423 441.74 431.595 417.825C444.954 443.46 458.931 466.571 488.259 475.97C505.071 481.358 527.314 480.347 543.085 472.018C548.375 469.224 556.587 463.864 558.443 457.898C559.186 455.512 558.79 453.372 557.592 451.224C553.994 444.773 530.551 424.363 523.284 416.927C505.826 398.989 489.037 380.412 472.953 361.233C468.008 355.273 462.746 349.412 458.177 343.168C479.242 342.074 496.76 332.747 510.855 317.186C511.668 316.298 512.443 315.376 513.18 314.425Z" data-index="17"></path><path fill="#412624" d="M532.639 690.975C546.637 662.65 555.788 632.179 559.712 600.828C560.075 597.951 561.214 581.956 562.717 580.981C566.89 588.962 555.441 640.087 552.208 650.413C548.333 662.788 542.301 681.85 534.278 691.823C533.252 691.788 533.352 691.635 532.639 690.975Z" data-index="18"></path><path fill="#412624" d="M709.427 793.205C709.297 792.491 709.282 792.793 709.45 792.044C709.647 791.172 710.205 791.112 710.928 790.657C717.794 791.833 724.804 794.605 731.605 795.296C739.751 796.124 748.198 794.363 756.419 794.454C756.328 795.718 756.245 795.543 755.455 796.41L754.63 796.691C745.549 798.234 734.648 799.836 725.584 797.802C720.157 796.583 714.833 794.593 709.427 793.205Z" data-index="19"></path><path fill="#412624" d="M427.646 458.846C428.787 463.904 422.997 479.309 420.999 484.451C410.309 511.964 379.306 554.658 351.936 566.719C352.061 565.537 352.355 565.393 353.185 564.595C360.416 557.639 369.021 552.261 376.526 544.762C393.976 527.327 409.169 505.876 418.841 483.135C422.223 475.184 424.531 466.886 427.646 458.846Z" data-index="20"></path><path fill="#E1D8BD" d="M374.292 165.386C375.445 165.517 376.641 165.654 377.759 165.97C381.507 167.028 384.713 170.83 386.489 174.113C390.33 181.214 391.723 193.556 387.77 200.827C386.481 203.198 383.833 204.716 383.013 207.284C384.292 209.332 386.736 208.441 388.817 208.225C399.068 207.159 406.808 208.448 415.736 213.693C409.9 214.764 402.937 214.009 397.482 216.264L397.194 217.051C398.939 219.412 408.025 222.086 411.145 223.87C427.261 233.085 438.346 248.969 446.851 265.015C449.278 269.595 451.86 274.257 453.207 279.286C447.498 278.382 440.689 274.801 435.031 275.566C431.333 276.066 427.727 279.831 425.571 282.623C419.63 290.317 417.455 300.2 418.716 309.737C420.292 321.648 426.418 330.668 435.737 337.892C435.007 345.137 433.042 352.63 431.796 359.846C425.806 394.535 412.936 461.162 392.547 488.995C371.421 517.832 306.135 537.5 272.042 542.911C274.603 541.419 277.21 539.937 279.634 538.227C293.07 528.751 302.84 514.488 305.709 498.265C311.157 499.025 321.692 502.214 326.668 500.992L326.829 499.635C326.383 499.149 325.963 498.697 325.447 498.283C316.478 491.086 306.32 489.739 295.156 490.703C291.564 491.013 284.563 492.61 282.265 495.666C281.698 496.421 281.857 496.081 281.994 497.129C285.36 500.127 295.265 498.08 299.697 497.976C299.498 498.66 299.294 499.331 299.063 500.005C293.682 515.698 281.945 529.756 267.047 537.181C270.92 527.338 271.992 518.722 271.991 508.201C272.073 492.152 269.239 474.874 263.402 459.927C247.991 420.462 208.398 385.907 169.882 369.314C148.809 360.235 123.701 353.321 100.728 356.842C90.9805 358.336 81.8259 361.561 72.707 365.184C73.9075 357.682 76.398 350.837 82.4637 345.842C89.9201 339.701 98.936 339.894 107.981 340.595C122.831 316.664 139.898 295.473 159.395 275.173C174.793 258.972 190.694 243.256 207.074 228.049C237.184 200.469 268.705 174.893 312.235 177.05C320.813 177.475 329.479 179.192 337.27 182.901C340.563 184.469 343.81 186.435 346.703 188.657C348.345 189.918 349.786 191.603 351.613 192.587C352.249 192.93 352.832 192.951 353.534 192.937C354.21 192.128 354.139 192.508 354.096 191.526C353.867 186.264 344.389 179.28 340.634 176.046C338.955 174.6 336.433 172.471 336.423 170.078C336.42 169.221 336.87 169.003 337.395 168.4C339.32 167.604 341.159 167.385 343.222 167.802C353.802 169.946 363.521 183.929 368.387 192.696C370.1 195.782 371.382 199.957 373.516 202.694C374.301 203.701 374.776 203.877 376.006 203.991C378.557 200.295 371.44 178.664 371.455 172.417C371.462 169.591 371.916 167.745 373.941 165.726C374.056 165.611 374.175 165.499 374.292 165.386Z" data-index="21"></path><path fill="#412624" d="M331.402 323.702C336.21 323.049 341.687 323.171 346.471 324.071C358.079 326.254 368.265 333.44 374.862 343.147C383.641 356.065 385.105 372.774 382.249 387.816C377.811 411.186 364.454 433.271 346.743 448.971C341.132 453.946 334.969 458.175 328.801 462.414C331.679 465.715 334.535 469.069 336.893 472.77C338.117 474.691 339.878 477.337 339.387 479.642C339.232 479.652 339.077 479.685 338.923 479.673C336.144 479.448 331.736 474.324 329.691 472.377C318.487 461.431 305.114 454.886 289.418 453.844C283.812 453.471 278.193 453.918 272.587 453.441L271.861 453.376C271.764 453.067 271.659 452.759 271.57 452.447C269.945 446.796 267.193 441.977 264.692 436.696C261.156 429.343 258.82 421.47 257.771 413.378C255.277 392.946 261.338 373.146 274.104 357.095C288.203 339.369 308.604 326.238 331.402 323.702Z" data-index="22"></path><path fill="white" d="M334.062 332.209C337.071 332.129 340.196 332.267 343.168 332.751C352.473 334.265 361.331 339.396 366.855 347.093C374.582 357.861 376.199 372.265 374.008 385.062C370.327 406.567 357.522 428.255 341.674 443.052C335.76 448.574 329.093 453.137 322.508 457.804C318.918 455.597 315.441 453.611 311.545 451.981C300.185 447.818 289.616 447.067 277.636 447.062C269.791 435.77 264.867 423.522 263.817 409.767C262.394 391.127 268.493 375.157 280.693 361.212C294.478 345.456 312.807 333.609 334.062 332.209Z" data-index="23"></path><path fill="#412624" d="M325.074 385.108C328.452 384.824 331.495 385.29 334.551 386.82C338.121 388.607 340.356 391.583 341.462 395.382C343.245 401.512 342.175 407.922 339.02 413.398C333.858 422.36 325.159 429.306 315.163 431.918C311.49 432.507 307.819 431.964 304.559 430.056C301.21 428.095 299.392 424.752 298.586 421.044C297.089 414.154 299.045 407.376 302.752 401.548C308.01 393.278 315.414 387.242 325.074 385.108Z" data-index="24"></path><path fill="white" d="M330.961 391.126C332.217 391.083 333.292 391.231 334.436 391.768C336.261 392.626 337.613 393.852 338.231 395.807C339.033 398.345 338.351 401.265 337.093 403.533C335.092 407.139 332.579 408.227 328.773 409.266C327.349 409.118 326.133 408.953 324.854 408.266C322.83 407.179 321.188 405.334 320.658 403.071C320.062 400.523 320.748 397.94 322.209 395.817C324.44 392.574 327.245 391.809 330.961 391.126Z" data-index="25"></path><path fill="#412624" d="M224.188 247.694C224.383 247.67 224.577 247.64 224.773 247.621C234.317 246.719 244.66 249.068 252.119 255.305C259.144 261.178 262.703 269.979 263.39 278.969C265.096 301.262 250.337 325.229 236.131 341.452C224.56 354.667 208.978 364.994 191.124 366.233C182.23 367.294 172.739 363.805 165.836 358.303C158.004 352.061 153.382 343.604 152.267 333.665C150.086 314.219 159.467 293.46 171.451 278.633C184.283 262.757 203.625 249.89 224.188 247.694Z" data-index="26"></path><path fill="white" d="M222.687 256.173C230.753 255.115 239.895 256.426 246.484 261.505C252.327 266.009 254.892 272.91 255.703 280.013C257.908 299.332 247.736 318.646 236.048 333.281C225.651 346.298 210.396 358.602 193.308 360.57C184.97 360.614 177.134 359.109 170.293 354.066C163.475 349.039 160.002 341.764 158.861 333.558C156.546 316.903 163.966 299.271 173.812 286.188C185.629 270.488 203.093 258.968 222.687 256.173Z" data-index="27"></path><path fill="#412624" d="M220.413 307.576C223.09 307.321 225.738 307.4 228.341 308.127C231.791 309.092 234.948 310.777 236.621 314.085C238.52 317.84 238.432 322.388 236.942 326.256C233.628 334.86 223.55 345.504 215.099 349.225C211.432 349.895 207.997 349.89 204.54 348.29C201.57 346.916 199.475 344.432 198.389 341.369C196.364 335.663 197.512 329.254 200.245 323.991C204.587 315.629 211.533 310.375 220.413 307.576Z" data-index="28"></path><path fill="white" d="M228.729 316.547C230.12 316.559 231.576 316.552 232.813 317.295C234.186 318.121 235.038 319.697 235.348 321.233C235.865 323.792 235.001 326.602 233.485 328.68C231.889 330.866 230.006 331.44 227.424 331.791C226.359 331.626 225.231 331.498 224.21 331.144C222.512 330.555 220.8 329.107 220.216 327.374C219.726 325.92 220.002 324.444 220.608 323.077C222.252 319.367 225.214 318.031 228.729 316.547Z" data-index="29"></path><path fill="#412624" d="M360.843 254.587C365.21 254.329 368.978 255.38 372.674 257.723C384.671 265.325 391.963 283.025 394.654 296.348C395.817 302.111 396.585 309.009 393.013 314.093C390.651 317.454 387.565 318.639 383.665 319.312C379.921 318.975 376.834 318.389 373.444 316.616C362.085 310.676 353.98 297.877 350.36 285.908C348.17 278.668 346.686 268.754 350.63 261.892C352.98 257.801 356.424 255.811 360.843 254.587Z" data-index="30"></path><path fill="#8B6155" d="M360.493 259.565C362.799 259.421 364.922 259.578 367.099 260.425C376.349 264.022 382.548 275.588 386.255 284.186C389.264 291.167 393.063 302.374 389.852 309.772C388.606 312.642 386.805 313.694 383.988 314.797C382.536 314.53 381.027 314.236 379.615 313.801C370.456 310.983 363.145 302.668 358.779 294.451C354.816 286.994 351.026 275.191 353.854 266.827C355.1 263.143 357.067 261.239 360.493 259.565Z" data-index="31"></path><path fill="#412624" d="M265.346 206.191C265.583 206.16 265.821 206.127 266.059 206.099C276.073 204.921 287.953 207.39 295.826 213.907C299.617 217.045 303.193 221.6 303.526 226.697C303.774 230.49 302.224 234.053 299.601 236.747C294.027 242.475 285.795 243.445 278.241 243.539C267.832 243.66 256.894 241.172 247.995 235.617C244.201 233.248 240.097 229.756 239.186 225.164C238.608 222.25 239.523 219.381 241.286 217.043C246.449 210.2 257.236 207.17 265.346 206.191Z" data-index="32"></path><path fill="#8B6155" d="M262.298 210.605C271.691 209.667 281.384 211.248 289.752 215.751C293.604 217.824 298.003 221.19 299.179 225.632C299.654 227.427 299.439 229.232 298.396 230.79C295.206 235.551 286.981 237.512 281.631 238.349C271.875 239.833 260.385 236.766 251.913 231.983C248.985 230.329 245.761 227.91 244.967 224.443C244.542 222.565 244.897 220.594 245.951 218.982C249.091 214.078 256.94 211.681 262.298 210.605Z" data-index="33"></path><path fill="#D1967E" d="M104.338 363.209C120.742 361.176 143.963 366.07 159.102 372.283C199.035 388.671 240.33 422.344 256.884 462.783C264.831 482.195 269.306 505.212 264.837 525.987C263.386 532.729 260.906 538.996 258.248 545.327C243.139 548.338 226.698 548.271 211.376 547.437C171.838 544.088 134.323 531.857 103.363 506.392C81.3157 488.259 65.2965 467.664 55.3059 440.707C52.1722 432.252 49.6338 423.767 48.8009 414.749C47.7849 403.749 49.3208 392.875 56.6218 384.209C67.7824 370.962 87.6342 364.627 104.338 363.209Z" data-index="34"></path><path fill="#412624" d="M232.059 446.632C234.61 446.792 236.931 447.047 239.151 448.42C242.251 450.338 244.037 453.638 244.789 457.126C247.594 470.14 241.228 486.93 234.16 497.645C226.004 510.012 214.628 517.585 200.171 520.536C196.948 520.593 194.326 520.585 191.48 518.795C188.539 516.945 186.955 514.093 186.367 510.716C183.967 496.948 192.112 481 199.938 470.28C207.826 459.475 218.27 448.76 232.059 446.632Z" data-index="35"></path><path fill="#8B6155" d="M230.452 452.027C232.227 451.913 234.185 451.777 235.763 452.733C237.772 453.952 239.017 456.193 239.581 458.418C242.22 468.827 236.269 483.794 231.099 492.605C224.125 504.492 214.544 511.257 201.315 514.786C199.203 514.997 197.204 515.386 195.242 514.372C193.446 513.442 192.292 511.981 191.735 510.042C189.37 501.811 195.165 488.944 199.054 481.902C205.611 470.028 216.888 455.954 230.452 452.027Z" data-index="36"></path><path fill="#412624" d="M116.182 373.629C119.026 373.405 121.65 373.8 124.185 375.183C127.068 376.756 128.812 379.486 129.716 382.584C132.971 393.731 126.61 408.626 121.321 418.208C113.458 432.452 101.399 443.361 85.593 447.91C82.2832 448.391 79.2197 448.449 76.3601 446.451C73.6815 444.58 72.4343 441.627 71.9409 438.485C69.5839 423.48 78.6022 405.578 87.0691 393.822C94.2753 383.815 103.746 375.667 116.182 373.629Z" data-index="37"></path><path fill="#8B6155" d="M116.023 378.571C117.489 378.632 119.046 378.803 120.359 379.496C122.639 380.7 124.115 382.816 124.739 385.288C127.136 394.799 121.05 408.725 116.392 416.78C109.816 428.153 98.9559 438.866 85.9829 442.357C84.1343 442.721 81.8304 443.317 80.0903 442.362C78.5317 441.506 77.5968 439.944 77.1383 438.267C74.4595 428.467 82.6711 410.254 87.7978 402.054C94.1434 391.905 103.917 381.301 116.023 378.571Z" data-index="38"></path><path fill="#E1D8BD" d="M345.884 607.326C350.857 611.346 358.571 621.684 363.916 627.088C377.585 640.907 392.279 653.08 408.038 664.413C396.762 675.474 385.203 686.264 373.783 697.177C367.401 703.276 360.626 709.305 354.864 715.992C357.159 721.1 360.559 725.881 363.457 730.671C368.891 739.652 374.174 748.783 380.328 757.296C378.125 758.906 375.755 760.242 373.406 761.624C362.045 767.652 350.698 773.175 338.283 776.717C329.438 751.931 314.292 729.223 301.198 706.511C308.178 692.036 316.885 678.32 324.038 663.897C332.914 646.004 339.736 626.293 345.884 607.326Z" data-index="39"></path><path fill="#E1D8BD" d="M438.114 339.496L445.394 342.339C450.611 350.23 456.811 357.638 462.738 365C479.972 386.196 498.266 406.507 517.55 425.857C525.439 433.785 542.649 448.387 548.384 456.533C545.996 458.83 542.967 460.54 539.988 461.955C524.424 469.35 504.205 469.362 488.164 463.495C467.545 455.954 452.574 437.717 443.04 418.568C439.242 410.938 436.265 402.883 432.7 395.132C431.581 392.053 436.486 367.137 437.22 361.987C440.268 368.171 443.816 374.115 447.247 380.092C446.889 384.355 447.811 388.919 448.557 393.121C451.105 407.472 455.279 422.887 464.912 434.222C475.578 446.772 493.204 454.957 509.521 456.141C513.523 456.432 519.414 456.806 522.596 454.06C522.841 453.405 523.267 452.786 523.069 452.081C521.763 447.441 503.943 433.219 499.585 429.284C487.822 418.662 476.248 407.132 466.079 394.96C461.158 389.071 456.291 383.05 451.7 376.899C447.805 371.68 442.311 361.01 437.406 357.485C438.07 351.496 438.087 345.512 438.114 339.496Z" data-index="40"></path><path fill="#8B6155" d="M491.091 279.504L504.49 268.352C509.086 273.819 514.479 276.78 521.364 278.5C513.372 298.737 497.727 316.835 477.548 325.517C466.882 330.105 454.566 331.277 443.624 326.887C436.575 324.058 430.249 319.578 427.355 312.291C424.899 306.107 425.284 298.208 427.962 292.106C429.43 288.762 431.494 286.538 434.175 284.178C440.631 287.021 447.541 287.628 454.373 289.056C455.495 289.153 455.057 288.962 455.757 289.428C457.121 288.43 469.099 287.681 471.85 287.273C469.693 291.6 468.495 295.957 469.979 300.743C470.895 303.699 472.15 306.192 474.952 307.663C475.627 307.086 473.214 300.943 472.947 299.564C472.072 295.051 473.226 290.641 474.949 286.514C479.473 284.589 483.917 282.451 488.382 280.392C489.077 279.912 489.792 279.492 490.518 279.062L491.091 279.504Z" data-index="41"></path><path fill="#412624" d="M454.373 289.056C455.495 289.153 455.057 288.962 455.757 289.428C452.174 297.093 449.507 304.462 452 313.003C452.243 313.834 452.442 314.4 452.374 315.279C451.819 315.165 451.203 315.07 450.69 314.817C449.218 314.089 448.603 312.363 448.356 310.857C447.084 303.094 449.713 295.18 454.373 289.056Z" data-index="42"></path><path fill="#412624" d="M488.382 280.392C489.077 279.912 489.792 279.492 490.518 279.062L491.091 279.504C492.799 285.556 495.274 289.893 498.502 295.233L497.937 295.781C495.282 295.264 492.937 293.726 491.404 291.498C489.219 288.339 488.442 284.175 488.382 280.392Z" data-index="43"></path><path fill="#E1D8BD" d="M580.361 705.167L585.105 704.816C584.553 708.702 584.006 713.1 584.571 717.003C584.967 719.732 586.561 722.187 588.803 723.775C601.423 732.714 608.49 715.231 613.712 714.435C616.597 716.234 618.336 724.319 620.111 727.554C620.215 727.744 620.324 727.932 620.43 728.121C615.918 744.767 611.128 761.337 606.06 777.822L602.998 786.484C589.574 788.136 574.673 784.947 561.593 782.18C568.011 765.59 572.887 746.91 574.626 729.177C575.379 721.502 575.162 713.748 576.219 706.106C577.497 705.225 578.847 705.313 580.361 705.167Z" data-index="44"></path><path fill="#8B6155" d="M312.022 79.8048C314.336 82.3883 316.857 84.2856 319.73 86.1835C315.283 89.8541 311.266 94.0061 307.178 98.0653C303.252 96.7636 300.278 94.675 297.022 92.2137C298.45 96.8814 299.949 98.6716 303.877 101.48C301.514 105.084 298.59 109.024 297.268 113.159C296.595 114.76 296.103 115.42 294.506 116.274C295.216 118.066 292.742 128.862 291.78 130.907C291.719 131.036 291.639 131.154 291.568 131.278C291.929 132.52 292.045 133.401 291.968 134.692C292.636 140.604 293.566 146.238 295.317 151.937C286.572 154.881 280.509 154.44 271.655 152.46C280.367 158.114 287.687 157.57 297.415 155.708C300.093 159.692 302.922 163.626 305.048 167.94C298.46 168.405 291.706 168.794 285.247 170.22C280.109 171.354 267.013 177.625 263.06 176.889C262.281 176.744 261.778 175.805 261.435 175.144C255.851 164.388 256.855 145.935 260.462 134.709C267.869 111.655 290.895 90.6054 312.022 79.8048Z" data-index="45"></path><path fill="#412624" d="M291.968 134.692C289.623 134.977 287.238 135.326 284.878 135.428C280.202 135.628 277.09 133.825 273.803 130.731C280.252 132.381 285.003 133.21 291.568 131.278C291.929 132.52 292.045 133.401 291.968 134.692Z" data-index="46"></path><path fill="#412624" d="M294.506 116.274C293.153 116.073 291.821 115.814 290.514 115.401C288.184 114.665 284.477 112.758 283.273 110.5C286.212 109.291 292.922 112.98 296.619 113.138C296.835 113.147 297.051 113.152 297.268 113.159C296.595 114.76 296.103 115.42 294.506 116.274Z" data-index="47"></path><path fill="#E1D8BD" d="M112.302 183.209C140.941 179.304 195.478 193.755 222.113 204.559C219.14 207.838 215.759 210.622 212.356 213.431C182.848 200.559 144.451 197.648 112.544 199.602C113.766 204.14 115.21 208.458 116.876 212.85C120.556 221.133 126.397 228.538 134.248 233.2C150.406 242.795 170.12 240.847 187.543 236.38C184.456 239.444 181.135 242.309 177.918 245.237C176.971 245.463 176.021 245.675 175.068 245.873C158.439 249.347 141.267 247.868 126.869 238.3C111.952 228.388 101.087 210.922 97.6883 193.451C97.2377 191.135 96.4445 187.705 97.8433 185.654C101.692 183.262 107.847 183.543 112.302 183.209Z" data-index="48"></path><path fill="#8B6155" d="M944.779 381.372C945.667 387.471 941.115 397.042 944.763 402.327L945.781 402.308C947.981 400.165 954.78 385.915 956.789 382.276C957.581 390.084 958.649 397.894 960.942 405.422C965.453 420.228 972.418 433.435 973.352 449.284C973.797 456.847 972.424 463.484 967.266 469.292C959.14 463.507 952.714 458.169 946.6 450.189C944.87 447.969 942.787 442.644 940.517 441.32C939.815 442.28 939.658 442.516 939.711 443.779C940.13 453.76 954.269 466.743 961.359 472.51C956.152 470.974 951.473 469.436 947.025 466.212C937.334 459.188 931.644 447.317 929.892 435.697C926.901 415.862 933.103 397.259 944.779 381.372Z" data-index="49"></path><path fill="#8B6155" d="M426.893 818.961C445.102 824.939 462.587 826.234 480.96 820.553C478.509 829.696 472.83 853.357 466.709 858.948C458.006 866.897 442.885 866.943 431.876 866.435L426.156 865.832C433.294 857.789 435.456 851.019 435.939 840.305C431.558 846.523 426.998 852.165 420.32 856.048C416.434 858.307 408.312 861.449 403.747 860.27C403.016 858.511 406.568 855.332 407.761 853.974C416.85 843.629 422.292 831.859 426.893 818.961Z" data-index="50"></path><path fill="#D1967E" d="M118.096 204.477C125.275 204.513 132.575 205.268 139.747 205.726C163.343 207.236 185.961 209.59 208.618 216.619C205.556 219.675 202.157 222.468 198.917 225.339C195.865 228.235 193.212 230.238 189.269 231.771C175.398 237.167 154.173 237.739 140.48 231.48C127.973 225.763 122.623 216.88 118.096 204.477Z" data-index="51"></path><path fill="#8B6155" d="M709.427 793.205C714.833 794.593 720.157 796.583 725.584 797.802C734.648 799.836 745.549 798.234 754.63 796.691C754.872 797.283 754.93 797.198 754.865 797.783C754.393 802.044 745.057 821.416 742.509 825.789C740.878 828.588 738.891 831.851 736.343 833.889C730.923 838.226 721.428 840.654 714.576 839.911C712.916 839.731 711.733 839.394 710.66 838.027C709.933 833.937 715.642 815.2 716.501 808.884C709.693 815.226 707.814 825.506 699.983 830.882C695.788 831.033 691.709 831.014 687.533 830.566C695.72 818.599 703.455 806.458 709.427 793.205Z" data-index="52"></path><path fill="#8B6155" d="M560.031 785.424C573.408 789.815 587.799 790.311 601.731 790.993C599.461 798.941 594.276 820.7 588.08 825.027C580.22 830.515 566.699 829.165 557.771 827.853C559.993 822.69 562.491 817.65 565.253 812.755C568.996 806.35 572.962 800.072 576.017 793.3C566 801.523 559.43 813.984 550.217 823.121C545.784 822.472 541.611 821.399 537.409 819.861C545.758 808.725 553.276 797.607 560.031 785.424Z" data-index="53"></path><path fill="#8B6155" d="M380.986 758.78C381.181 758.877 381.394 758.946 381.572 759.071C384.412 761.071 393.575 778.026 393.593 781.531C393.629 788.488 379.084 802.09 374.034 807.141C372.054 799.13 369.39 791.03 363.815 784.781C364.125 792.522 363.936 797.128 360.035 803.994C354.97 810.752 348.127 814.878 340.806 818.829C342.68 806.996 342.049 795.54 340.267 783.754C354.822 779.344 372.345 772.014 380.986 758.78Z" data-index="54"></path><path fill="#D1967E" d="M680.586 684.955C682.05 685.207 683.267 686.717 684.331 687.694C680.384 692.979 674.868 699.952 675.034 706.929C675.095 709.52 676.151 712.056 676.061 714.656C676.016 715.97 675.97 717.563 674.798 718.375C673.455 719.307 671.403 719.856 669.815 719.431C664.948 718.126 661.512 709.538 659.335 705.323C656.45 703.916 651.936 701.474 648.687 702.59C642.162 704.83 643.551 718.645 640.907 724.132C640.06 725.891 638.665 727.151 636.77 727.674C634.34 728.343 630.674 728.081 628.552 726.633C623.067 722.889 622.223 713.178 621.202 707.087C621.128 706.978 621.075 706.851 620.981 706.758C620.088 705.869 619.271 705.879 618.065 705.846C608.36 705.572 602.323 719.416 595.067 718.742C593.874 718.631 593.02 717.779 592.435 716.791C590.914 714.223 590.885 709.132 591.98 706.41C593.244 703.27 601.724 703.64 604.87 703.321C632.03 700.563 655.361 695.731 680.586 684.955Z" data-index="55"></path><path fill="#D1967E" d="M452.397 388.352C458.24 395.137 463.797 402.056 469.885 408.643C477.537 416.922 485.746 424.725 493.829 432.582C500.329 438.901 508.725 444.551 514.377 451.532C499.516 451.97 482.058 444.708 471.347 434.489C459.821 423.492 452.704 404.069 452.397 388.352Z" data-index="56"></path><path fill="#E1D8BD" d="M826.533 479.846C829.111 482.832 835.307 500.473 837.413 505.449C849.309 533.559 870.868 566.458 896.599 583.556C909.416 592.073 924.982 596.757 940.296 593.41C944.326 592.529 947.928 590.116 951.932 589.314L951.232 590.047C943.989 594.715 936.114 597.805 927.421 597.982C907.148 598.393 887.437 586.007 873.422 572.305C857.676 556.909 846.358 537.615 836.328 518.214C832.995 511.768 829.069 504.536 827.446 497.462C826.163 491.876 826.599 485.566 826.533 479.846Z" data-index="57"></path><path fill="#8B6155" d="M528.979 226.528L529.563 226.625L530.016 227.458C530.154 245.631 527.641 258.183 522.432 275.36C516.188 274.723 511.501 272.471 507.239 267.887C507.56 263.689 515.034 253.82 517.109 249.029C519.402 249.902 522.028 251.318 524.415 250.366L524.55 249.487C523.632 248.848 523.999 248.957 522.994 248.759C521.405 248.446 520.023 248.24 518.515 247.627C517.357 245.656 521.697 231.511 522.483 228.245C524.813 227.914 526.789 227.389 528.979 226.528Z" data-index="58"></path><path fill="#8B6155" d="M331.194 70.9875C333.152 72.2987 335.272 73.3575 337.347 74.4698L333.19 77.4062C330.29 79.4416 324.225 84.6939 320.902 84.1106C318.313 82.4098 315.54 80.908 312.871 79.3301C318.805 76.098 324.942 73.5183 331.194 70.9875Z" data-index="59"></path><path fill="#8B6155" d="M526.319 206.913C526.454 207.18 526.678 207.597 526.791 207.897C527.876 210.765 530.432 222.626 529.08 225.425L527.891 225.325C526.521 225.129 525.148 224.946 523.775 224.775C522.716 221.919 525.391 210.227 526.319 206.913Z" data-index="60"></path><path fill="#8B6155" d="M344.905 67.1807C344.891 67.2712 344.897 67.3672 344.863 67.4522C344.158 69.2145 342.526 71.2213 340.764 71.954C338.626 72.843 337.611 72.1232 335.609 71.3696L334.519 70.8222L334.626 70.3368C337.698 68.6103 341.488 67.9511 344.905 67.1807Z" data-index="61"></path><path fill="#412624" d="M148.839 879.486L148.859 878.894C149.031 871.794 148.056 864.49 147.673 857.387C147.1 846.778 146.927 836.069 146.923 825.445C146.894 760.775 157.916 685.828 206.85 638.701C213.187 632.598 220.346 626.143 228.848 623.356L228.625 624.007C225.816 632.037 221.023 639.814 217.29 647.481C211.452 659.638 206.185 672.06 201.504 684.707C178.533 748.203 170.598 807.502 166.188 874.47C165.112 890.806 163.002 907.487 163.644 923.847C166.302 910.469 168.712 896.966 171.93 883.714C181.836 842.922 197.543 802.92 223.924 769.904C231.298 760.675 240.444 750.269 250.314 743.626C252.013 742.483 253.954 741.084 256.038 741.501C256.995 742.92 256.613 744.545 256.298 746.124C251.201 771.627 240.222 795.682 229.701 819.315C215.066 852.191 199.142 884.306 182.903 916.411C179.203 923.725 174.636 936.915 170.485 942.965L169.226 943.477C168.702 943.153 168.425 943.006 168.067 942.491L167.316 941.561C165.609 941.53 164.985 942.191 163.557 943.079C163.48 943.176 163.414 943.282 163.326 943.369C162.342 944.354 162.058 944.198 160.698 944.209C159.451 943.396 159.398 943.477 159.039 942.047L158.237 941.375L158.12 941.994C157.976 942.723 157.791 943.421 157.588 944.135C156.19 943.243 155.813 942.333 155.157 940.887L153.985 942.885L151.979 943.437C151.215 942.662 117.57 845.048 112.92 833.362C103.902 811.018 93.7968 789.128 82.6402 767.772C77.9506 758.623 71.2888 748.672 67.4364 739.347C95.8071 751.601 122.303 793.92 133.55 822.055C138.335 834.026 142.334 847.072 145.078 859.657C146.481 866.096 146.814 873.287 148.839 879.486Z" data-index="62"></path><path fill="#E1D8BD" d="M157.588 944.135C156.26 929.564 154.542 914.947 153.465 900.369C152.809 891.487 152.689 882.609 152.273 873.719C150.784 841.858 150.002 809.217 153.137 777.444C157.606 732.148 171.582 683.568 202.093 648.721C208.174 641.776 215.089 635.688 222.214 629.846C174.323 717.215 159.621 832.435 159.94 931.266C159.589 934.606 160.064 938.932 159.039 942.047L158.237 941.375L158.12 941.994C157.976 942.723 157.791 943.421 157.588 944.135Z" data-index="63"></path><path fill="#E1D8BD" d="M164.69 938.205C170.017 920.715 172.745 902.638 177.005 884.885C189.344 833.463 209.46 781.189 252.024 747.144C240.738 791.07 221.57 829.6 201.066 869.823C189.009 893.479 175.832 916.959 168.067 942.491L167.316 941.561C165.609 941.53 164.985 942.191 163.557 943.079C163.908 941.45 164.311 939.828 164.69 938.205Z" data-index="64"></path><path fill="#E1D8BD" d="M74.2385 746.44L74.9066 746.843C79.0761 749.334 82.9181 752.726 86.3912 756.105C93.1001 762.633 99.0408 770.301 104.585 777.84C133.903 817.706 143.706 861.428 150.476 909.508C151.936 919.877 155.022 930.405 155.157 940.887L153.985 942.885C154.771 935.362 146.459 914.154 143.781 906.321C136.372 884.652 129.174 862.823 120.836 841.492C112.447 820.033 102.542 798.646 92.0104 778.159C86.4525 767.348 81.1905 756.44 74.2385 746.44Z" data-index="65"></path><path fill="#412624" d="M857.683 789.298C864.964 756.866 871.017 733.97 893.647 707.775C900.425 699.928 908.323 692.267 917.106 686.682C918.789 685.612 920.538 684.701 922.329 683.825C915.31 701.974 905.12 719.367 896.668 736.914C884.925 761.292 877.52 787.314 873.098 813.954C872.177 819.501 871.399 824.999 870.865 830.597C870.394 835.539 870.398 841.2 869.011 845.974C868.596 847.404 868.229 847.786 867.005 848.597L865.171 848.693L862.923 848.636C861.13 848.982 860.711 849.22 858.986 848.483C857.354 846.74 856.873 844.354 856.175 842.119C853.277 834.226 851.353 825.574 848.937 817.477C842.611 797.424 836.788 777.191 829.717 757.377C828.27 753.323 826.77 749.24 824.969 745.33C823.162 741.408 820.547 737.431 819.59 733.214L819.978 732.491C827.759 734.717 842.589 756.504 846.591 763.707C851.154 771.918 854.503 780.486 857.683 789.298Z" data-index="66"></path><path fill="#E1D8BD" d="M828.416 745.223C847.866 769.195 855.322 793.355 860.475 823.091C861.904 831.335 862.573 840.796 865.171 848.693L862.923 848.636C856.633 830.535 852.061 811.815 846.439 793.499C841.339 777.083 835.322 760.965 828.416 745.223Z" data-index="67"></path><path fill="#E1D8BD" d="M913.289 694.494C913.316 695.157 892.251 735.28 889.625 741.281C879.979 763.328 874.079 785.548 869.192 809.016C867.976 814.852 867.818 821.101 866.389 826.807C865.798 826.058 865.811 824.319 865.671 823.343C864.616 814.018 861.258 804.602 861.809 795.212C862.4 785.138 864.706 775.309 867.61 765.679C876.246 737.048 890.837 714.345 913.289 694.494Z" data-index="68"></path><path fill="#E1D8BD" d="M757.598 946.381L756.023 946.403C753.345 943.76 753.133 929.66 753.1 925.984C753.005 915.242 753.541 894.68 761.161 886.661C762.752 884.987 764.753 883.863 767.102 883.827C769.751 883.787 772.086 884.907 773.901 886.803C778.822 891.943 778.901 901.665 778.585 908.347C778.415 911.924 778.067 915.56 777.38 919.077C784.416 910.222 795.58 897.047 807.605 895.458C809.97 895.146 812.691 895.321 814.672 896.795C816.594 898.225 817.332 900.46 817.582 902.758C818.639 912.457 810.927 923.841 805 930.891C801.65 934.875 791.016 946.639 785.977 947.694C785.031 947.892 784.227 947.497 783.417 947.076C775.468 945.957 765.605 944.974 757.598 946.381Z" data-index="69"></path><path fill="#412624" d="M757.598 946.381L756.023 946.403C753.345 943.76 753.133 929.66 753.1 925.984C753.005 915.242 753.541 894.68 761.161 886.661C762.752 884.987 764.753 883.863 767.102 883.827C769.751 883.787 772.086 884.907 773.901 886.803C778.822 891.943 778.901 901.665 778.585 908.347C778.415 911.924 778.067 915.56 777.38 919.077C784.416 910.222 795.58 897.047 807.605 895.458C809.97 895.146 812.691 895.321 814.672 896.795C816.594 898.225 817.332 900.46 817.582 902.758C818.639 912.457 810.927 923.841 805 930.891C801.65 934.875 791.016 946.639 785.977 947.694C785.031 947.892 784.227 947.497 783.417 947.076C785.974 943.795 789.46 940.865 792.397 937.896C800.233 929.972 811.665 917.515 813.431 906.052C813.719 904.182 813.503 902.251 812.239 900.759C811.636 900.048 810.793 899.551 809.883 899.455C806.657 899.117 802.935 901.193 800.204 902.768C787.584 910.047 779.784 923.035 772.97 935.468C771.704 937.779 770.384 941.788 768.486 943.464L767.691 943.358C766.591 940.929 773.088 919.22 773.804 914.768C774.939 907.709 775.973 896.879 771.327 890.873C770.084 889.266 768.902 888.416 766.86 888.159C765.882 888.421 765.287 888.621 764.519 889.322C758.279 895.01 756.875 920.062 756.803 928.092C756.749 934.187 757.315 940.295 757.598 946.381Z" data-index="70"></path><path fill="#E1D8BD" d="M601.229 969.47C600.352 961.675 596.709 941.671 602.269 935.188C603.172 934.135 604.29 933.545 605.682 933.473C608.372 933.333 610.706 934.456 612.587 936.322C619.758 943.435 621.587 957.216 621.565 966.792C625.183 960.155 629.724 953.357 637.476 951.172C640.152 950.417 643.045 950.425 645.517 951.827C647.338 952.859 648.495 954.484 648.983 956.512C650.325 962.092 646.987 968.662 643.941 973.22C640.764 977.973 635.728 984.801 630.47 987.311C629.419 987.298 628.781 987.187 627.816 986.765C627.649 986.798 627.483 986.833 627.315 986.863L626.502 987.002C620.161 988.146 612.375 986.499 605.85 986.387C603.501 986.086 601.165 985.63 598.832 985.222C597.924 986.188 597.527 987.039 596.172 987.214C590.148 983.848 579.536 974.827 577.68 968.015C577.3 966.622 577.183 965.079 577.851 963.747C578.558 962.335 580.11 961.664 581.57 961.338C586.278 960.286 591.286 961.37 595.242 964.053C597.447 965.549 599.409 967.534 601.229 969.47Z" data-index="71"></path><path fill="#412624" d="M601.229 969.47C600.352 961.675 596.709 941.671 602.269 935.188C603.172 934.135 604.29 933.545 605.682 933.473C608.372 933.333 610.706 934.456 612.587 936.322C619.758 943.435 621.587 957.216 621.565 966.792C625.183 960.155 629.724 953.357 637.476 951.172C640.152 950.417 643.045 950.425 645.517 951.827C647.338 952.859 648.495 954.484 648.983 956.512C650.325 962.092 646.987 968.662 643.941 973.22C640.764 977.973 635.728 984.801 630.47 987.311C629.419 987.298 628.781 987.187 627.816 986.765C632.049 980.031 637.975 974.465 642.099 967.568C643.655 964.966 645.928 960.857 644.815 957.784C644.418 956.69 643.498 955.769 642.383 955.411C640.682 954.865 638.564 955.479 636.976 956.116C625.355 960.775 621.235 979.647 617.424 981.419C615.534 978.192 617.315 967.156 617.101 962.737C616.868 957.924 616.256 953.044 614.655 948.478C613.36 944.783 610.991 940.074 607.337 938.291C606.043 938.281 605.961 938.298 604.904 939.042C600.138 947.863 607.068 970.933 607.361 981.214C606.45 982.257 605.61 982.259 604.314 982.628C602.709 976.637 597.107 969.667 591.753 966.596C589.767 965.457 586.672 964.347 584.353 964.972C583.038 965.326 582.865 965.535 582.282 966.648C582.879 973.166 594.512 980.325 598.832 985.222C597.924 986.188 597.527 987.039 596.172 987.214C590.148 983.848 579.536 974.827 577.68 968.015C577.3 966.622 577.183 965.079 577.851 963.747C578.558 962.335 580.11 961.664 581.57 961.338C586.278 960.286 591.286 961.37 595.242 964.053C597.447 965.549 599.409 967.534 601.229 969.47Z" data-index="72"></path><path fill="#412624" d="M222.015 946.205C220.521 946.936 220.226 947.266 218.54 946.981C215.025 944.411 213.231 940.289 211.944 936.24C210.791 932.613 210.076 928.02 212.093 924.542C212.884 923.179 214.242 922.069 215.781 921.686C218.478 921.015 221.871 921.875 224.198 923.3C228.589 925.988 229.926 931.022 231.184 935.659C233.943 931.958 236.784 928.66 240.685 926.117C244.274 923.777 248.518 922.282 252.806 923.348C254.904 923.869 256.89 925.125 257.928 927.068C259.277 929.593 258.915 932.718 258.028 935.331C256.834 938.845 253.352 944.728 249.934 946.425C248.215 946.658 247.333 946.006 245.922 945.169C242.328 943.385 233.118 947.346 228.167 946.081L227.391 946.042C225.569 946.518 223.862 946.424 222.015 946.205Z" data-index="73"></path><path fill="#E1D8BD" d="M228.167 946.081C228.674 945.951 229.033 945.702 229.479 945.437C232.159 940.161 235.821 935.445 240.269 931.543C242.704 929.395 246.073 926.632 249.53 927.005C251.563 927.224 253.085 928.393 254.294 929.956C254.55 931.257 254.616 932.272 254.311 933.577C253.305 937.869 249.625 942.746 245.922 945.169C242.328 943.385 233.118 947.346 228.167 946.081Z" data-index="74"></path><path fill="#E1D8BD" d="M222.015 946.205C219.209 941.708 213.977 934.283 215.363 928.688C215.563 927.879 216.023 927.293 216.513 926.637C217.937 925.91 218.947 925.492 220.538 926.028C222.914 926.83 224.708 928.974 225.733 931.185C227.993 936.058 226.226 941.098 227.391 946.042C225.569 946.518 223.862 946.424 222.015 946.205Z" data-index="75"></path><path fill="#412624" d="M86.0963 896.541C87.7432 896.56 89.3012 896.657 90.8532 897.268C100.607 901.104 106.991 914.533 111.163 923.448C111.347 922.91 111.535 922.374 111.726 921.838C112.953 918.391 114.73 913.499 118.478 912.075C119.979 911.504 121.46 911.535 122.897 912.26C125.762 913.704 127.434 917.117 128.359 920.025C130.116 925.553 130.643 934.86 127.604 940.041C126.935 941.181 126.186 942.105 124.879 942.4C122.637 939.015 126.923 927.71 124.164 921.349C123.382 919.546 122.413 918.415 120.557 917.698C119.148 917.855 118.682 917.855 117.605 918.881C114.305 922.027 114.632 929.169 114.373 933.382C114.281 934.864 113.998 935.866 112.893 936.856C109.843 934.974 102.559 910.891 92.417 903.798C90.3734 902.369 88.5662 901.49 86.0619 901.906C80.3505 914.411 101.568 933.172 100.165 940.379C97.4287 941.683 83.1016 931.355 76.9799 931.936C75.641 932.062 75.4267 932.217 74.5955 933.153C74.97 939.066 85.8647 941.747 87.8959 946.828C86.7654 947.407 85.8881 947.139 84.6726 946.789C79.9779 945.436 72.6333 940.391 70.3646 935.988C69.6511 934.603 69.6339 932.688 70.2034 931.227C70.7898 929.722 71.7679 928.744 73.2903 928.184C79.0549 926.063 87.0296 929.935 92.2194 932.269C89.0399 927.094 85.2901 922.533 82.7093 916.954C80.6644 912.533 78.4571 906.416 80.4026 901.671C81.5522 898.868 83.4139 897.71 86.0963 896.541Z" data-index="76"></path><path fill="#412624" d="M924.154 762.501C925.196 762.753 925.752 763.142 926.594 763.797C926.721 764.732 926.816 765.008 926.228 765.83C924.339 768.472 916.744 774.315 913.62 777.842C901.569 791.448 894.017 808.85 889.252 826.238C887.985 830.86 887.408 835.643 885.936 840.207C885 841.148 885.078 841.413 883.694 841.556C883.179 840.942 883.08 840.569 882.955 839.748C882.198 834.791 884.155 827.746 885.529 823.036C891.529 802.47 899.462 788.394 913.164 772.164C910.405 774.295 907.758 776.589 905.081 778.822C889.441 793.07 881.171 808.026 876.99 828.663C876.002 833.54 876.139 839.01 874.676 843.685C874.273 844.973 873.96 845.518 872.772 846.124C871.755 845.524 871.992 845.915 871.693 844.862C868.576 833.912 876.301 809.722 881.69 799.842C889.834 784.912 907.526 767.355 924.154 762.501Z" data-index="77"></path><path fill="#412624" d="M929.894 807.12C931.568 807.121 933.228 807.301 934.753 808.054C936.595 808.963 937.775 810.408 938.356 812.371C940.656 820.138 934.192 830.795 930.813 837.523C936.82 835.85 942.864 834.497 949.14 834.802C953.473 835.013 958.077 836.209 961.008 839.65C961.968 840.777 962.546 842.142 962.213 843.638C961.709 845.906 959.622 847.638 957.774 848.842C952.72 852.133 937.594 857.085 931.901 855.554C930.905 855.286 931.008 855.041 930.51 854.216L930.835 852.982C934.891 850.485 948.205 849.096 955.117 845.304C956.597 844.492 957.434 843.898 957.947 842.275C957.845 842.119 957.761 841.951 957.643 841.807C955.898 839.667 950.447 839.442 947.796 839.163C943.433 839.335 938.49 839.334 934.265 840.49C930.655 841.477 927.359 844.181 923.489 844.03L922.922 843.413C923.34 840.427 926.451 836.965 927.953 834.296C930.733 829.355 933.528 823.756 934.52 818.123C934.867 816.151 934.98 814.525 933.78 812.836C932.434 811.969 930.852 811.621 929.252 811.717C918.215 812.376 911.591 831.309 905.816 837.638L904.811 837.627L903.837 836.565C903.126 832.263 907.847 826.006 910.148 822.579C914.897 815.506 921.229 808.829 929.894 807.12Z" data-index="78"></path><path fill="#412624" d="M251.522 847.024C252.701 846.949 253.97 846.821 255.138 847.036C256.953 847.371 259.309 848.761 260.165 850.451C260.663 851.437 260.535 852.477 260.002 853.412C259.288 854.667 257.551 855.12 256.278 855.574C252.9 855.696 250.269 855.617 247.654 853.293C247.351 852.518 246.992 852.067 247.189 851.218C247.701 849.012 249.735 848.1 251.522 847.024Z" data-index="79"></path></svg>