<svg xmlns="http://www.w3.org/2000/svg" xmlns:xlink="http://www.w3.org/1999/xlink" width="1024" height="1024" viewBox="0 0 1024 1024"><path fill="#1F2227" d="M191.286 625.549C163.888 652.32 137.765 688.556 117.476 720.987C109.414 733.873 101.744 750.463 92.8324 762.259C90.4215 765.45 86.9814 769.101 82.65 768.951C79.1439 768.83 76.2393 766.872 73.9672 764.323C60.5506 749.268 59.7523 713.488 61.2897 693.888C63.1713 669.899 70.3423 645.132 80.1481 623.213C97.9089 583.512 123.728 551.547 154.012 520.684C166.927 507.521 180.419 494.917 193.258 481.689C209.783 464.742 225.291 446.832 239.701 428.053C246.426 419.28 253.643 410.243 259.396 400.827C262.987 394.948 263.475 384.809 264.943 377.952C266.41 371.103 267.995 364.165 269.973 357.443C275.281 339 282.281 321.087 290.884 303.932C308.928 267.381 334.199 234.765 362.361 205.48C371.279 196.206 386.706 184.082 393.456 174.297C400.244 164.456 401.981 153.303 405.713 142.23C414.639 115.746 431.777 87.8356 453.131 69.6C487.715 40.2646 532.51 25.8206 577.716 29.4277C604.319 31.5801 634.023 40.9399 651.868 61.835C659.098 70.3011 663.739 81.4713 668.06 91.6564C694.667 84.6938 723.858 76.2377 749.34 91.2518C754.324 94.1882 762.156 99.9386 763.74 105.724C764.105 107.056 763.975 108.148 763.6 109.465C758.955 111.859 752.086 108.992 746.989 111.326C741.979 113.619 737.086 116.609 732.238 119.246C712.183 130.155 693.076 142.244 675.352 156.696L675.362 157.327C675.514 176.667 669.646 194.268 655.916 208.089C648.643 215.409 640.366 222.121 631.961 228.099C627.144 231.526 621.521 234.726 617.208 238.749C613.393 242.307 610.652 247.673 607.886 252.071C596.522 270.142 584.91 290.065 585.004 312.072C585.054 323.712 589.091 333.577 597.385 341.776C605.317 349.618 616.361 354.291 626.59 358.413C665.209 373.976 710.521 375.761 751.635 378.447C792.692 381.129 835.856 387.068 873.507 404.593C882.884 408.958 891.765 414.244 900.486 419.789C916.928 430.158 931.877 442.723 944.921 457.136C955.822 469.357 971.971 488.877 972.104 505.943C972.123 508.323 971.903 510.823 970.145 512.609C967.396 515.402 962.25 515.607 958.561 515.483C939.066 514.831 913.089 503.965 894.133 498.36C881.603 494.655 868.207 492.288 855.263 490.472C843.848 488.87 832.192 487.708 820.663 487.475C808.744 487.234 781.019 490.629 772.019 487.164C761.144 482.977 745.23 461.566 734.563 453.289C740.005 460.016 757.702 479.396 757.164 487.307C757.103 488.196 756.734 488.208 756.094 488.715C739.589 492.221 700.547 479.742 684.223 472.857C676.691 469.68 669.664 465.515 662.219 462.276C710.373 531.018 749.791 610.532 752.819 695.86C753.16 706.454 753.025 717.058 752.415 727.64C751.837 737.373 747.964 754.535 750.474 763.329C752.15 769.2 754.847 774.965 757.299 780.547C771.883 813.758 795.372 838.935 824.714 859.743C831.42 864.498 838.838 867.955 845.583 872.557C829.613 872.737 811.368 871.477 796.054 866.864C803.267 874.337 810.751 880.08 820.219 884.376C799.766 889.191 778.141 885.131 759.952 875C764.571 882.709 769.777 890.052 775.525 896.961C752.21 895.508 738.085 885.69 721.842 869.79C720.997 881.796 721.262 893.953 725.991 905.252C726.875 907.363 729.999 912.053 728.827 914.126L727.061 914.649C726.662 915.929 726.999 916.635 727.571 917.803C740.763 944.736 803.772 954.308 825.557 981.484C827.038 983.332 829.421 986.276 828.759 988.785C827.482 989.985 827.059 990.027 825.317 989.943C821.399 989.753 817.417 989.016 813.502 988.639C802.003 987.531 788.353 987.614 777.915 993.191C774.912 994.796 768.853 999.86 766.029 1000.24C762.052 1000.77 743.327 995.991 737.25 995.179C728.391 993.994 719.557 993.565 710.625 993.497C707.065 993.47 703.528 993.228 700.029 994.023C697.971 994.49 684.13 999.518 683.577 999.313C682.966 999.087 681.817 997.82 681.385 997.306C677.303 992.452 676.939 985.689 677.569 979.632C678.19 973.661 680.908 968.546 682.285 962.808C685.216 950.596 677.061 936.1 670.5 926.405C669.233 930.741 667.945 935.055 666.988 939.473C666.839 939.305 666.688 939.138 666.541 938.969C660.538 932.077 658.385 922.748 652.821 915.536C648.183 909.525 640.06 905.68 634.104 901.006C628.141 896.326 622.537 891.198 616.628 886.455C607.59 887.006 598.67 888.181 589.598 888.378C571.668 888.767 545.968 885.317 529.217 879.172C515.725 885.296 490.349 909 482.33 921.599C479.267 926.412 477.248 932.025 474.828 937.189C467.221 953.423 456.145 976.526 437.247 981.002C417.378 985.709 376.052 981.049 354.679 979.654C340.521 978.704 326.331 978.31 312.142 978.473C306.203 978.562 288.942 980.879 284.901 979.955L284.506 979.201C285.665 977.037 287.84 975.437 289.645 973.806L284.706 972.842C278.783 972.093 272.943 970.968 266.991 970.41C259.668 969.723 252.232 969.683 244.883 969.475C246.909 966.566 249.313 964.2 252.112 962.046C256.205 958.898 260.759 956.429 265.308 954.013C292.573 939.528 322.627 938.492 352.539 942.711C361.781 944.015 370.871 946.598 380.118 947.699L380.798 947.778C393.717 942.13 402.976 935.079 412.495 924.868L416.091 920.259C413.093 921.162 410.142 922.052 407.059 922.621C411.555 914.789 416.953 908.054 419.782 899.311C413.872 885.715 408.642 871.839 402.742 858.25C387.898 824.212 371.965 790.66 354.97 757.645C350.902 749.805 345.539 742.873 340.542 735.636C335.257 727.981 330.15 720.045 325.428 712.026C299.474 667.224 280.376 618.787 268.77 568.328L268.36 568.609C262.643 572.606 257.341 577.58 251.814 581.887C242.101 589.456 232.094 596.62 222.3 604.077C217.873 607.449 209.428 615.282 204.238 616.818C203.052 616.208 202.753 615.64 202.33 614.369C199.714 606.513 201.396 588.856 201.489 580.001C196.427 595.009 193.291 609.842 191.286 625.549Z" data-index="1"></path><path fill="#FEFEFD" d="M350.139 732.906C300.607 656.54 267.783 553.022 267.79 461.745C267.793 430.691 271.899 400.298 278.316 369.967C282.884 348.375 300.757 292.598 318.72 280.674C325.748 276.008 334.621 273.997 342.912 275.86C352.201 277.947 360.424 283.581 367.641 289.548C369.538 291.116 371.297 293.062 373.271 294.498C374.439 295.348 375.142 295.571 376.564 295.553C378.509 294.332 379.546 290.632 380.071 288.465C385.114 267.636 371.278 252.337 369.78 233.435C369.325 227.693 370.387 221.844 371.952 216.336C373.525 210.8 375.762 204.951 378.942 200.124C382.295 195.035 387.108 191.102 390.916 186.389C394.963 210.355 403.332 221.587 423.252 235.776C447.988 253.396 487.44 268.132 517.761 271.187C532.776 272.7 548.32 271.858 563.174 269.264C573.879 267.395 583.577 264.094 592.984 258.671C589.374 263.867 586.499 270.798 582.306 275.382C561.765 297.834 519.241 304.982 490.885 311.687C480.384 314.17 468.365 316.71 458.942 322.06C456.425 323.489 452.758 325.645 452.753 328.839C455.503 332.164 471.067 334.668 475.846 336.193C491.355 341.142 514.013 352.693 512.119 371.971C511.154 381.796 507.669 391.508 507.778 401.436C508.235 442.786 538.645 487.809 563.791 518.886C589.565 550.739 618.011 580.513 641.401 614.255C666.89 651.319 683.437 693.789 689.741 738.327C694.739 774.746 693.922 809.498 702.154 846.023C705.656 861.563 710.752 876.892 716.314 891.806C718.588 897.901 721.883 904.164 723.645 910.368C723.023 910.987 723.21 911.045 722.425 911.084C718.984 911.252 714.913 906.595 712.31 904.594C713.334 908.117 715.435 912.997 714.11 916.538C713.079 917.26 712.61 917.447 711.337 917.167C707.762 916.382 703.676 913.927 700.399 912.252C701.055 915.72 701.413 919.422 703.413 922.416C704.775 922.446 704.892 922.274 705.834 923.227C705.776 924.54 705.69 925.852 705.575 927.162C706.426 927.902 706.391 927.684 707.445 927.618C698.669 929.895 691.009 934.422 681.693 934.498L680.862 931.486C678.974 929.83 677.131 928.117 675.577 926.135C673.774 923.834 671.711 918.697 669.282 917.402C666.866 919.351 666.256 927.44 665.624 930.656C663.296 925.533 660.906 920.606 657.707 915.961C634.619 882.441 594.333 850.711 553.919 843.115C552.16 842.252 550.642 841.037 548.832 840.184C533.683 833.041 517.915 827.142 502.406 820.837C471.399 808.233 440.328 795.152 411.498 778.029C403.105 773.044 395.022 767.305 387.254 761.403C379.172 755.262 357.218 734.656 350.139 732.906Z" data-index="2" style="opacity: 1;"></path><path fill="#2C2E34" d="M681.51 918.796C683.679 921.749 686.508 927.293 689.905 928.679C693.173 927.566 691.036 921.915 693.193 919.858C695.726 920.803 697.141 923.365 699.369 924.784C700.371 925.422 700.612 925.289 701.72 925.081C702.613 924.183 703.011 923.62 703.413 922.416C704.775 922.446 704.892 922.274 705.834 923.227C705.776 924.54 705.69 925.852 705.575 927.162C706.426 927.902 706.391 927.684 707.445 927.618C698.669 929.895 691.009 934.422 681.693 934.498L680.862 931.486C681.375 927.351 681.263 922.974 681.51 918.796Z" data-index="3"></path><path fill="#131519" d="M624.901 685.266C625.964 685.355 627.15 685.401 628.049 686.045C629.594 687.155 630.901 689.572 631.358 691.391C632.08 694.265 632.11 696.501 630.653 699.092C629.897 699.091 628.964 699.15 628.232 698.967C626.662 698.574 625.253 696.839 624.594 695.419C623.037 692.067 623.711 688.575 624.901 685.266Z" data-index="4"></path><path fill="#1F2227" d="M346.14 372.305L347.401 372.687C347.467 372.847 347.554 372.999 347.597 373.166C347.973 374.613 347.257 376.402 346.646 377.7C345.004 381.187 342.62 384.275 338.948 385.644C338.609 385.429 338.066 385.114 337.81 384.814C337.006 383.872 336.98 382.663 337.216 381.51C338.056 377.408 342.745 374.242 346.14 372.305Z" data-index="5"></path><path fill="#1F2227" d="M395.704 349.44C397.007 349.633 396.971 349.614 397.808 350.631C397.916 351.534 397.881 352.248 397.582 353.105C396.367 356.585 393.505 359.078 390.253 360.551C389.106 359.669 388.137 358.932 387.687 357.465C387.311 356.241 387.608 355.113 388.231 354.04C389.725 351.467 393.031 350.23 395.704 349.44Z" data-index="6"></path><path fill="#131519" d="M475.283 509.199C476.374 509.401 477.34 509.602 478.238 510.301C479.565 511.333 480.573 513.46 480.825 515.089C481.199 517.51 480.724 518.889 479.246 520.809C478.541 520.702 477.833 520.571 477.172 520.289C475.605 519.619 474.395 517.915 473.957 516.286C473.221 513.553 473.852 511.528 475.283 509.199Z" data-index="7"></path><path fill="#131519" d="M602.296 707.376C603.202 707.413 604.075 707.52 604.975 707.625C606.055 708.428 606.957 709.248 607.253 710.644C607.779 713.128 607.108 715.275 605.808 717.378C604.91 717.414 604.281 717.336 603.408 717.178C602.036 716.184 601.233 715.186 600.93 713.496C600.503 711.11 600.938 709.338 602.296 707.376Z" data-index="8"></path><path fill="#131519" d="M498.386 493.153C499.151 493.341 499.883 493.618 500.626 493.874C501.814 495.108 502.502 496.256 502.579 498.017C502.686 500.468 501.958 502.253 500.317 504.026C499.613 503.816 498.673 503.601 498.058 503.203C497.009 502.526 496.294 501.077 496.137 499.845C495.807 497.26 496.791 495.111 498.386 493.153Z" data-index="9"></path><path fill="#131519" d="M454.378 538.959C454.97 539.143 455.859 539.354 456.407 539.692C457.654 540.461 458.394 542.089 458.53 543.516C458.768 546.004 457.898 547.9 456.423 549.826C455.7 549.558 454.675 549.215 454.104 548.667C452.779 547.394 452.171 545.442 452.272 543.637C452.386 541.614 452.901 540.331 454.378 538.959Z" data-index="10"></path><path fill="#131519" d="M342.757 325.167C343.651 325.528 344.041 325.962 344.667 326.683C344.965 327.755 345.115 328.351 344.923 329.484C344.551 331.693 343.057 333.182 341.294 334.381C340.574 333.703 339.896 332.981 339.207 332.272C338.891 331.366 338.57 330.588 338.775 329.605C339.205 327.539 341.121 326.244 342.757 325.167Z" data-index="11"></path><path fill="#131519" d="M420.436 387.761C421.238 387.932 422.014 388.201 422.797 388.444C423.307 389.179 423.659 389.501 423.793 390.412C424.104 392.521 422.955 394.34 421.703 395.902C420.978 395.627 419.898 395.326 419.291 394.859C418.226 394.038 418.259 393.295 418.053 392.07C418.573 390.263 419.262 389.22 420.436 387.761Z" data-index="12"></path><path fill="#E2E1DD" d="M350.139 732.906C357.218 734.656 379.172 755.262 387.254 761.403C395.022 767.305 403.105 773.044 411.498 778.029C440.328 795.152 471.399 808.233 502.406 820.837C517.915 827.142 533.683 833.041 548.832 840.184C550.642 841.037 552.16 842.252 553.919 843.115L553.583 844.249C554.142 845.146 554.687 845.574 555.578 846.096C560.567 849.022 565.981 851.387 571.084 854.137C580.064 858.978 588.495 864.267 596.862 870.1C601.127 873.073 605.471 875.98 608.966 879.869C596.292 880.5 583.669 880.727 571.015 879.524C534.74 876.077 499.346 862.363 465.806 848.805C456.972 845.234 436.414 835.193 428.287 834.363L428.034 834.999C437.848 846.235 503.377 870.858 520.645 877.079C506.087 886.093 492.7 899.232 481.108 911.784C475.271 918.105 470.3 924.975 463.22 930.018C463.484 926.848 464.299 923.374 462.338 920.688C461.88 918.228 460.973 916.102 459.834 913.887C457.346 909.045 454.453 904.308 451.459 899.763C442.341 885.923 432.426 872.555 422.971 858.941C417.837 851.55 413.304 843.641 407.889 836.459C407.121 835.44 406.584 834.566 405.324 834.154L404.64 834.892C401.286 830.067 399.007 822.516 396.273 817.089C391.067 806.754 385.242 796.786 379.687 786.643C388.426 795.178 398.987 807.127 409.677 812.862C403.218 803.544 395.268 794.979 388.258 786.032C374.742 768.783 362.034 751.324 350.139 732.906Z" data-index="13"></path><path fill="#5A595A" d="M436.095 920.536C435.914 922.03 435.607 923.236 436.424 924.598C437.773 925.111 438.374 925.049 439.726 924.499C443.609 922.919 446.284 918.879 450.26 917.578C452.402 918.905 453.099 925.872 454.796 928.426C454.05 930.154 453.368 931.952 452.351 933.539C452.979 933.845 453.321 934.224 454.033 934.004C454.951 933.719 455.443 933.138 456.116 932.492L456.962 932.478C457.581 933.419 458.144 934.332 458.973 935.108C460.111 934.972 459.697 935.231 460.318 934.527L462.054 932.389C462.948 933.143 463.343 933.72 464.009 934.666C466.874 933.78 470.924 929.716 473.367 927.843C468.572 941.849 460.746 957.648 450.422 968.405L448.927 970.363C443.802 976.374 433.867 978.181 426.351 978.784C416.234 979.595 406.115 979.08 396 978.56C366.864 977.062 330.916 972 302.411 974.854C298.81 975.215 294.885 975.282 291.493 976.508C291.205 976.612 290.655 976.715 290.331 976.78L290.246 976.343C289.655 975.269 289.627 975.037 289.645 973.806L284.706 972.842C278.783 972.093 272.943 970.968 266.991 970.41C259.668 969.723 252.232 969.683 244.883 969.475C246.909 966.566 249.313 964.2 252.112 962.046C256.205 958.898 260.759 956.429 265.308 954.013C292.573 939.528 322.627 938.492 352.539 942.711C361.781 944.015 370.871 946.598 380.118 947.699L380.798 947.778C393.717 942.13 402.976 935.079 412.495 924.868L413.287 926.057C415.879 925.814 419.219 924.921 421.625 925.867C421.818 925.942 422.016 926.003 422.211 926.073C422.339 926.119 422.465 926.167 422.593 926.214C426.495 925.246 429.993 923.645 433.486 921.688C434.195 920.96 435.14 920.829 436.095 920.536Z" data-index="14"></path><path fill="#414146" d="M340.602 951.28C344.55 951.645 348.934 951.032 352.967 951.175C358.52 951.372 365.108 953.076 370.544 952.402C372.231 952.193 374.367 951.526 375.697 950.45L375.083 949.749C376.41 949.083 378.234 950.457 379.647 950.378C382.642 950.211 387.735 945.32 391.028 946.086C387.727 947.615 377.463 950.767 375.822 953.727C376.86 954.659 378.268 954.616 379.639 954.637C377.863 955.461 376.913 955.322 375.082 954.753L375.365 955.743C377.514 956.649 379.747 957.167 382 957.742C384.396 958.742 386.861 959.676 389.18 960.844C391.385 961.954 392.612 963.431 395.123 963.961C397.627 965.619 399.783 967.288 401.783 969.568L402.704 969.708C403.234 970.815 403.267 971.126 404.475 971.591C405.888 972.136 407.979 972.322 409.484 972.143L409.581 971.571C409.294 971.495 409.006 971.424 408.721 971.343C408.247 971.208 407.78 971.053 407.31 970.905C408.389 970.837 409.464 970.867 410.544 970.86C413.055 970.843 413.67 970.907 415.476 969.071L415.792 968.746C416.964 968.948 417.137 969.696 417.797 970.63C417.963 970.643 418.129 970.665 418.296 970.667C419.963 970.689 439.504 967.878 441.17 967.425C442.391 967.093 443.084 966.521 443.993 965.667C445.639 967.224 447.341 968.747 448.927 970.363C443.802 976.374 433.867 978.181 426.351 978.784C416.234 979.595 406.115 979.08 396 978.56C366.864 977.062 330.916 972 302.411 974.854C298.81 975.215 294.885 975.282 291.493 976.508C291.205 976.612 290.655 976.715 290.331 976.78L290.246 976.343C289.655 975.269 289.627 975.037 289.645 973.806L284.706 972.842L284.991 972.184C286.224 972.347 287.105 972.45 288.343 972.202L286.442 971.266L291.843 971.308C297.624 967.638 303.423 964.15 309.602 961.166C313.127 959.464 317.158 958.3 320.491 956.313C327.365 954.427 333.464 952.303 340.602 951.28Z" data-index="15"></path><path fill="#131519" d="M340.602 951.28C344.55 951.645 348.934 951.032 352.967 951.175C358.52 951.372 365.108 953.076 370.544 952.402C372.231 952.193 374.367 951.526 375.697 950.45L375.083 949.749C376.41 949.083 378.234 950.457 379.647 950.378C382.642 950.211 387.735 945.32 391.028 946.086C387.727 947.615 377.463 950.767 375.822 953.727C376.86 954.659 378.268 954.616 379.639 954.637C377.863 955.461 376.913 955.322 375.082 954.753L375.365 955.743C377.514 956.649 379.747 957.167 382 957.742C384.396 958.742 386.861 959.676 389.18 960.844C391.385 961.954 392.612 963.431 395.123 963.961L397.313 966.926L397.217 967.488C388.098 965.736 380.409 957.96 371.257 956.215C367.499 954.949 363.745 954.308 359.777 954.341C357.23 952.661 345.172 953.569 341.957 954.178C341.384 954.286 340.609 954.42 340.121 954.734C325.42 956.106 302.936 968.254 290.246 976.343C289.655 975.269 289.627 975.037 289.645 973.806L284.706 972.842L284.991 972.184C286.224 972.347 287.105 972.45 288.343 972.202L286.442 971.266L291.843 971.308C297.624 967.638 303.423 964.15 309.602 961.166C313.127 959.464 317.158 958.3 320.491 956.313C327.365 954.427 333.464 952.303 340.602 951.28Z" data-index="16"></path><path fill="#5A595A" d="M340.121 954.734C340.609 954.42 341.384 954.286 341.957 954.178C345.172 953.569 357.23 952.661 359.777 954.341C359.962 954.49 360.141 954.647 360.332 954.789C361.111 955.366 361.774 955.609 362.678 955.912L362.564 956.792C362.708 956.846 362.849 956.91 362.997 956.952C363.762 957.172 364.349 957.135 365.131 957.156C366.891 957.203 368.754 957.619 369.984 958.944C366.928 959.348 363.978 959.444 360.905 959.195L361.046 961.235L360.345 962.015C359.879 962.077 359.704 962.135 359.19 962C357.631 961.589 356.893 960.748 356.182 959.42L355.098 959.191C351.08 959.409 337.834 960.927 335.097 958.823L335.858 958.049C337.905 958.149 339.708 958.209 341.708 957.698C341.857 957.66 342.004 957.617 342.152 957.577L338.588 957.157L338.422 956.516L340.121 954.734Z" data-index="17"></path><path fill="#2C2E34" d="M340.121 954.734C340.609 954.42 341.384 954.286 341.957 954.178C345.172 953.569 357.23 952.661 359.777 954.341C359.962 954.49 360.141 954.647 360.332 954.789C361.111 955.366 361.774 955.609 362.678 955.912L362.564 956.792C355.674 956.663 349.005 956.691 342.152 957.577L338.588 957.157L338.422 956.516L340.121 954.734Z" data-index="18"></path><path fill="#2C2E34" d="M354.465 968.229C354.78 968.361 355.098 968.484 355.41 968.623C359.398 970.402 363.091 970.977 367.423 971.109L367.293 971.492C366.485 971.519 365.74 971.584 364.938 971.709C364.67 971.75 364.404 971.798 364.137 971.843C360.662 971.445 357.026 971.568 353.524 971.5L352.734 970.853L352.404 971.035C352.591 970.904 352.785 970.781 352.965 970.641C354.147 969.729 354.219 969.656 354.465 968.229Z" data-index="19"></path><path fill="#5A595A" d="M346.764 960.601C348.953 960.974 353.001 960.534 354.648 961.66L353.909 962.713C353.308 962.868 352.629 963.078 352.004 963.136C349.969 963.324 347.939 962.955 346.348 961.645L346.764 960.601Z" data-index="20"></path><defs><linearGradient id="gradient_0" gradientUnits="userSpaceOnUse" x1="332.49677" y1="933.30609" x2="335.45657" y2="967.94495"><stop offset="0" stop-color="#1B1D22"></stop><stop offset="1" stop-color="#47474D"></stop></linearGradient></defs><path fill="url(#gradient_0)" d="M380.798 947.778C393.717 942.13 402.976 935.079 412.495 924.868L413.287 926.057C415.879 925.814 419.219 924.921 421.625 925.867C421.818 925.942 422.016 926.003 422.211 926.073C422.339 926.119 422.465 926.167 422.593 926.214C418.324 927.654 413.103 929.258 410.108 932.778L409.433 933.936C406.321 935.757 403.509 938.182 400.676 940.41C408.381 941.665 433.609 945.887 438.46 950.251L438.471 950.901C434.046 951.249 428.187 948.381 423.765 947.262C415.699 945.222 407.287 944.797 399.288 942.331C397.172 943.199 395.077 944.053 393.034 945.087C398.21 944.96 403.269 944.843 408.4 945.731L408.636 946.082C402.848 946.589 396.854 945.973 391.028 946.086C387.735 945.32 382.642 950.211 379.647 950.378C378.234 950.457 376.41 949.083 375.083 949.749L375.697 950.45C374.367 951.526 372.231 952.193 370.544 952.402C365.108 953.076 358.52 951.372 352.967 951.175C348.934 951.032 344.55 951.645 340.602 951.28C333.464 952.303 327.365 954.427 320.491 956.313C317.158 958.3 313.127 959.464 309.602 961.166C303.423 964.15 297.624 967.638 291.843 971.308L286.442 971.266L288.343 972.202C287.105 972.45 286.224 972.347 284.991 972.184L284.706 972.842C278.783 972.093 272.943 970.968 266.991 970.41C259.668 969.723 252.232 969.683 244.883 969.475C246.909 966.566 249.313 964.2 252.112 962.046C256.205 958.898 260.759 956.429 265.308 954.013C292.573 939.528 322.627 938.492 352.539 942.711C361.781 944.015 370.871 946.598 380.118 947.699L380.798 947.778Z" data-index="21"></path><path fill="#2C2E34" d="M306.568 951.927L306.789 951.204C307.661 950.909 308.166 950.653 308.854 950.04C308.028 949.589 307.22 949.112 306.407 948.637L306.281 947.826C307.731 946.693 314.335 946.806 316.41 946.654L317.516 948.107L317.27 948.732C316.152 949.036 315.201 949.29 314.179 949.855C316.427 950.841 319.399 950.037 321.33 951.125C321.463 951.199 321.573 951.308 321.694 951.4L322.482 951.205C322.016 949.713 320.64 950.162 319.644 949.127C321.688 949.517 323.675 949.945 325.764 949.972L326.33 949.254C326.261 949.049 325.964 948.141 325.871 947.974C325.771 947.792 325.574 947.672 325.484 947.485C325.369 947.246 325.339 946.975 325.266 946.72L325.25 947.208L325.004 946.84C326.79 946.287 330.998 951.029 333.228 951.591C335.866 952.255 338.036 950.179 340.586 950.324L340.602 951.28C333.464 952.303 327.365 954.427 320.491 956.313C321.201 955.75 321.829 955.348 322.315 954.572C320.599 953.292 315.799 954.147 313.305 953.465L313.604 953.478C312.899 952.974 312.484 952.567 311.918 951.93L306.568 951.927Z" data-index="22"></path><path fill="#414146" d="M299.642 948.826L300.943 948.856L301.527 949.687L300.772 951.207C302.184 951.318 303.913 950.873 304.932 951.852L304.698 952.92C302.846 953.874 300.32 953.592 298.267 953.611C301.137 954.639 304.148 955.446 307.09 956.246L307.186 956.673C304.174 955.856 300.971 954.746 297.865 954.484C300.864 956.604 305.984 958.064 309.612 958.089C310.563 958.096 311.509 958.138 312.459 958.171C310.886 958.701 308.867 958.642 307.243 958.384C303.963 957.864 300.96 958.063 297.701 958.701C298.167 959.519 298.271 959.742 298.406 960.61C296.398 961.194 293.604 960.015 291.565 959.5C287.306 959.55 282.961 960.045 279.015 958.179L278.964 957.679L281.026 957.347L281.368 956.671C280.347 956.578 279.331 956.739 278.581 956.012L279.63 954.296C280.542 953.793 281.048 953.397 282.136 953.487C283.66 953.612 285.322 954.548 286.792 955.003C290.106 956.03 295.907 956.772 299.333 956.326C298.088 955.82 297.215 955.119 296.189 954.281L296.158 953.662L298.226 953.369L298.246 953.029C297.093 953.008 295.954 952.954 294.803 952.868L294.622 952.113C295.865 951.112 297.18 951.013 298.704 950.745L299.436 950.621C296.67 950.629 293.906 950.679 291.149 950.418C293.867 949.834 296.391 949.714 299.158 949.665L299.642 948.826Z" data-index="23"></path><path fill="#131519" d="M410.108 932.778L410.659 932.89C414.775 933.694 419.012 933.686 423.172 934.317C434.956 936.103 455.304 940.231 462.601 950.896C462.86 951.278 463.115 951.664 463.365 952.052C463.194 951.984 463.023 951.919 462.854 951.848C458.107 949.856 454.303 946.178 449.574 944.18C436.852 938.805 422.835 936.845 409.433 933.936L410.108 932.778Z" data-index="24"></path><path fill="#1F2227" d="M436.095 920.536C435.914 922.03 435.607 923.236 436.424 924.598C437.773 925.111 438.374 925.049 439.726 924.499C443.609 922.919 446.284 918.879 450.26 917.578C452.402 918.905 453.099 925.872 454.796 928.426C454.05 930.154 453.368 931.952 452.351 933.539C451.158 930.054 450.71 925.951 449.925 922.325C446.586 924.699 442.572 928.244 438.503 929.161C436.911 929.52 436.13 929.124 434.831 928.236C434.044 927.008 433.943 926.366 433.932 924.893C433.925 923.928 433.951 923.217 433.693 922.267C433.639 922.069 433.555 921.881 433.486 921.688C434.195 920.96 435.14 920.829 436.095 920.536Z" data-index="25"></path><path fill="#2C2E34" d="M379.639 954.637C381.85 954.067 385.932 955.51 388.39 955.774C391.529 956.11 394.819 955.812 397.963 955.611L398.545 956.045C397.588 956.728 396.75 957.05 395.635 957.411L395.263 957.887C397.824 959.48 401.708 958.477 403.779 960.549C401.696 961.774 395.215 960.896 392.828 960.307C389.497 959.485 386.028 957.57 382.64 957.341L382 957.742C379.747 957.167 377.514 956.649 375.365 955.743L375.082 954.753C376.913 955.322 377.863 955.461 379.639 954.637Z" data-index="26"></path><path fill="#131519" d="M443.993 965.667C439.352 962.716 435.807 960.132 430.171 959.87L429.821 959.512L430.92 958.432C430.382 957.727 430.713 958.027 429.91 957.551C437.791 957.978 444.677 963.294 450.422 968.405L448.927 970.363C447.341 968.747 445.639 967.224 443.993 965.667Z" data-index="27"></path><path fill="#2C2E34" d="M402.704 969.708C403.628 968.357 404.433 967.025 405.758 966.027L406.536 966.337C406.375 967.636 406.362 969.039 405.643 970.165C406.296 970.627 406.494 970.818 407.31 970.905C407.78 971.053 408.247 971.208 408.721 971.343C409.006 971.424 409.294 971.495 409.581 971.571L409.484 972.143C407.979 972.322 405.888 972.136 404.475 971.591C403.267 971.126 403.234 970.815 402.704 969.708Z" data-index="28"></path><path fill="#FEFEFD" d="M404.64 834.892L405.324 834.154C406.584 834.566 407.121 835.44 407.889 836.459C413.304 843.641 417.837 851.55 422.971 858.941C432.426 872.555 442.341 885.923 451.459 899.763C454.453 904.308 457.346 909.045 459.834 913.887C460.973 916.102 461.88 918.228 462.338 920.688C459.845 923.282 457.38 925.923 454.796 928.426C453.099 925.872 452.402 918.905 450.26 917.578C446.284 918.879 443.609 922.919 439.726 924.499C438.374 925.049 437.773 925.111 436.424 924.598C435.607 923.236 435.914 922.03 436.095 920.536C435.14 920.829 434.195 920.96 433.486 921.688C429.993 923.645 426.495 925.246 422.593 926.214C422.465 926.167 422.339 926.119 422.211 926.073C422.016 926.003 421.818 925.942 421.625 925.867C419.219 924.921 415.879 925.814 413.287 926.057L412.495 924.868L416.091 920.259L416.464 920.231C417.489 919.486 418.816 918.879 419.266 917.686L417.245 918.161L416.93 917.721C417.289 917.171 417.555 916.917 418.128 916.588C419.64 915.718 420.256 915.284 421.161 913.775C418.802 914.969 416.54 916.42 414.262 917.764C416.358 913.967 418.683 910.136 420.398 906.153C421.519 903.55 422.353 900.832 422.478 897.985C423.241 880.613 411.241 851.259 404.64 834.892Z" data-index="29"></path><path fill="#131519" d="M421.161 913.775C422.273 913.162 422.941 912.702 424.249 912.726L424.882 913.553C424.425 916.87 422.173 920.065 420.786 923.108C423.25 922.269 425.716 921.453 427.993 920.169C429.52 919.308 434.908 914.893 435.987 914.727C436.307 914.678 436.61 914.901 436.921 914.989C437.584 916.77 436.836 918.871 436.095 920.536C435.14 920.829 434.195 920.96 433.486 921.688C429.993 923.645 426.495 925.246 422.593 926.214C422.465 926.167 422.339 926.119 422.211 926.073C422.016 926.003 421.818 925.942 421.625 925.867C419.219 924.921 415.879 925.814 413.287 926.057L412.495 924.868L416.091 920.259L416.464 920.231C417.489 919.486 418.816 918.879 419.266 917.686L417.245 918.161L416.93 917.721C417.289 917.171 417.555 916.917 418.128 916.588C419.64 915.718 420.256 915.284 421.161 913.775Z" data-index="30"></path><path fill="#414146" d="M719.29 920.668C719.844 918.562 720.274 916.497 720.597 914.343C723.022 919.98 726.623 925.573 730.703 930.158C722.451 931.958 714.437 934.562 706.233 936.521C699.092 938.226 691.779 939.336 684.54 940.546L681.693 934.498C691.009 934.422 698.669 929.895 707.445 927.618C708.658 927.223 708.905 927.415 709.585 926.269C709.536 924.701 709.369 924.621 710.39 923.463C713.324 922.367 716.338 921.672 719.29 920.668Z" data-index="31"></path><defs><linearGradient id="gradient_1" gradientUnits="userSpaceOnUse" x1="456.70612" y1="925.90094" x2="461.67807" y2="929.44037"><stop offset="0" stop-color="#202124"></stop><stop offset="1" stop-color="#3C3E44"></stop></linearGradient></defs><path fill="url(#gradient_1)" d="M462.338 920.688C464.299 923.374 463.484 926.848 463.22 930.018C463.088 928.634 463 927.258 462.643 925.91L461.991 926.13C461.462 928.687 460.435 931.99 460.318 934.527C459.697 935.231 460.111 934.972 458.973 935.108C458.144 934.332 457.581 933.419 456.962 932.478L456.116 932.492C455.443 933.138 454.951 933.719 454.033 934.004C453.321 934.224 452.979 933.845 452.351 933.539C453.368 931.952 454.05 930.154 454.796 928.426C457.38 925.923 459.845 923.282 462.338 920.688Z" data-index="32"></path><path fill="#5A595A" d="M579.971 282.501C580.244 282.869 575.433 302.658 575.141 304.722C573.337 317.491 575.816 329.492 583.729 339.834C589.019 346.748 596.128 352.837 603.707 357.108C648.831 382.537 733.461 380.618 786.004 387.578C850.228 396.086 908.551 423.925 948.348 476.24C954.845 484.78 960.344 492.689 958.793 503.821C944.518 485.225 925.362 469.027 906.612 455.123C814.836 387.071 739.465 408.505 638.75 382.591C627.339 379.654 615.568 376.26 604.781 371.471C598.49 368.679 592.409 365.204 586.309 362.012C582.769 360.159 578.891 358.606 575.489 356.55C570.53 353.554 563.547 345.555 558.882 343.882C557.902 343.531 558.31 343.575 557.289 344.029C557.081 344.541 556.945 344.797 556.874 345.387C556.422 349.146 562.187 361.05 564.019 365.002C576.865 392.706 597.778 418.734 621.84 437.617C628.243 442.641 640.301 449.154 645.137 454.112C652.617 461.78 666.444 486.038 673.05 496.564C684.913 514.735 695.135 534.686 704.171 554.394C731.37 613.719 742.475 665.091 739.002 730.417C738.215 745.217 737.148 760.034 734.906 774.694C732.978 787.303 730.71 800.027 727.662 812.419C725.003 823.23 721.661 833.903 719.502 844.83C717.42 855.366 716.928 866.127 715.721 876.782C710.684 859.29 705.525 841.879 703 823.815C699.216 796.747 699.505 769.333 696.372 742.221C691.262 697.5 676.122 654.51 652.08 616.456C643.015 602.215 632.079 588.319 621.196 575.416C602.155 552.84 581.681 531.629 563.806 508.044C541.308 478.357 516.908 443.567 515.024 405.095C514.559 395.597 515.993 386.484 517.258 377.12C518.413 368.573 518.133 361.133 512.595 353.983C500.832 338.798 477.437 330.012 458.874 327.673C471.843 320.738 485.993 317.579 500.223 314.412C527.893 308.255 558.039 301.671 579.971 282.501Z" data-index="33"></path><path fill="#5A595A" d="M556.137 34.2076C561.497 33.5285 567.59 33.8092 572.968 34.1089C596.167 35.4016 619.231 41.444 638.768 54.3642C634.306 59.0084 632.588 64.3124 632.709 70.6986C632.837 77.4577 636.826 94.5092 641.803 98.9807C642 99.1577 642.803 99.8178 642.957 99.875C647.081 101.408 682.962 92.4393 689.453 91.2336C696.363 89.9499 703.469 88.8372 710.495 88.5694C729.924 87.8287 744.14 92.8459 758.235 106.014C738.807 105.73 720.205 106.835 701.247 111.409C691.183 113.836 681.512 117.953 671.79 121.47C651.441 128.832 631.098 136.76 610.585 143.607C597.38 148.015 583.872 150.557 570.375 153.802C577.372 156.358 584.294 158.965 591.004 162.222C602.463 167.786 619.135 180.079 632.093 179C643.741 178.031 649.21 166.056 656.091 158.328C659.696 154.278 663.949 150.594 667.941 146.925C688.57 127.958 713.639 111.851 742.315 110.087C721.438 120.853 700.863 131.693 682.241 146.16C676.171 150.834 670.551 156.065 665.455 161.786C652.329 176.433 638.237 199.094 617.245 202.732C596.687 206.295 578.306 185.154 564.241 173.041C556.321 166.126 548.048 159.626 539.456 153.567C558.866 142.387 582.154 137.331 594.467 117.105C600.577 106.295 606.333 90.9039 603.338 78.3182C600.925 68.1789 592.938 60.1893 584.287 54.9318C567.053 44.4577 545.334 43.9543 526.18 48.6696C495.731 56.1653 470.393 77.0684 454.452 103.781C444.082 121.157 439.552 141.335 444.753 161.239C451.823 188.299 475.831 209.04 499.206 222.665C522.622 236.314 553.852 246.146 581.068 244.449C590.042 243.889 598.518 241.726 607.157 239.405C604.06 243.223 601.185 247.361 597.899 251C587.17 262.882 558.144 267.145 543.038 267.909C531.217 268.507 519.162 268.189 507.488 266.183C478.087 261.13 436.922 243.743 414.886 223.555C400.367 210.254 396.313 199.573 395.472 180.261C400.175 173.128 404.969 165.977 408.654 158.25C414.75 145.469 419.092 131.899 425.342 119.138C430.551 108.501 440.531 93.6075 448.105 84.5645C475.484 51.8762 514.735 37.7075 556.137 34.2076Z" data-index="34"></path><path fill="#1F2227" d="M617.088 109.096C618.509 109.02 619.949 108.933 621.36 109.155C623.378 109.471 625.887 110.159 626.944 112.101C627.576 113.262 627.566 114.649 627.156 115.877C625.698 120.244 621.645 122.036 617.79 123.793C615.137 124.203 612.149 124.632 609.684 123.322C608.254 122.562 607.179 121.341 606.757 119.764C606.255 117.887 606.807 115.885 607.837 114.287C610.037 110.869 613.298 109.843 617.088 109.096Z" data-index="35"></path><path fill="#FEFEFD" d="M544.775 49.2126C559.878 47.829 575.664 52.2716 587.469 61.789C593.389 66.5622 599.384 73.11 600.025 81.0503C600.662 88.9437 598.79 97.8698 596.144 105.276C587.746 128.779 569.78 134.706 548.804 144.295C543.454 146.741 538.139 148.917 534.29 153.553L533.872 154.067C541.093 160.414 549.604 165.694 557.12 171.811C562.548 176.22 567.892 180.732 573.148 185.345C584.752 195.444 598.098 208.189 614.756 206.935C638.449 205.152 658.035 176.555 672.325 159.837C670.729 164.274 670.041 169.115 668.779 173.671C665.303 186.225 658.729 195.765 649.827 205.096C643.607 211.366 636.767 216.715 629.604 221.848C613.885 233.111 603.795 239.01 583.9 240.692C547.331 243.784 505.474 226.409 477.832 203.105C460.976 188.895 448.164 171.108 446.431 148.566C444.661 125.537 456.558 103.876 471.202 86.9826C489.943 65.3618 516.151 51.2596 544.775 49.2126Z" data-index="36"></path><path fill="#1F2227" d="M525.453 72.6292C532.38 71.5951 539.972 73.0299 545.649 77.2126C552.121 81.9816 555.711 89.3839 556.925 97.175C558.934 110.058 555.179 125.228 547.338 135.649C541.037 144.027 534.045 147.49 523.807 148.981C516.822 149.012 509.772 147.568 503.856 143.726C497.39 139.528 493.285 133.051 491.77 125.55C489.292 113.281 493.44 99.0672 500.297 88.8394C506.563 79.4941 514.534 74.8076 525.453 72.6292Z" data-index="37"></path><path fill="#FEFEFD" d="M525.266 75.6299C531.035 75.3121 535.994 75.8208 541.045 78.9837C547.423 82.978 550.932 89.4937 552.435 96.6813C554.812 108.045 552.214 121.591 545.772 131.263C540.635 138.977 533.345 143.806 524.297 145.62C519.229 145.805 514.52 145.36 509.846 143.197C503.449 140.175 498.566 134.668 496.331 127.955C492.905 117.872 495.446 106.044 500.058 96.7642C505.738 85.3339 513.28 79.6131 525.266 75.6299Z" data-index="38"></path><path fill="#1F2227" d="M519.988 85.0213C521.423 85.0769 522.805 85.1428 524.106 85.8208C527.256 87.4622 529.272 90.6037 530.311 93.9098C532.492 100.845 532.258 109.559 528.868 116.03C526.538 120.479 522.753 124.53 517.844 125.99C516.61 125.963 515.436 125.798 514.243 125.481C511.682 124.8 509.583 122.998 508.316 120.689C505.511 115.578 506.069 107.848 507.647 102.364C509.646 95.4176 513.551 88.6114 519.988 85.0213Z" data-index="39"></path><path fill="#1F2227" d="M508.474 160.189C510.058 160.017 511.663 159.982 513.246 160.201C517.081 160.732 521.988 163.317 524.16 166.598C524.844 167.63 525.183 168.497 524.954 169.746C521.966 172.269 515.747 168.474 512.323 167.742C510.673 167.39 508.878 167.43 507.195 167.406C501.598 167.531 495.783 170.599 490.498 170.168L490.106 169.466C490.399 168.874 490.426 168.756 490.903 168.164C494.945 163.144 502.288 160.844 508.474 160.189Z" data-index="40"></path><path fill="#FEFEFD" d="M566.014 355.241C573.07 357.994 579.433 363.52 586.252 366.955C605.72 376.761 626.07 383.715 647.259 388.767C680.358 396.659 714.482 399.358 748.215 403.174C811.801 410.369 858.683 422.272 909.553 462.857C926.235 476.136 941.717 490.855 955.82 506.845C945.788 506.068 936.102 502.719 926.509 499.91L898.476 491.819C877.572 486.023 855.06 483.033 833.39 482.512C826.539 482.348 819.637 482.207 812.787 482.446C804.706 482.728 781.853 485.694 775.495 483.532C769.271 481.415 756.106 464.88 750.121 459.643C744.547 454.767 738.65 450.75 732.306 446.97C730.084 445.647 726.651 443.158 724.05 443.026C722.745 442.96 722.503 443.357 721.72 444.237C722.174 447.429 728.631 453.422 730.87 456.105C738.379 465.097 745.435 474.457 752.012 484.151C741.939 483.887 731.208 481.725 721.393 479.471C672.983 468.352 624.587 435.651 593.81 396.982C587.699 389.304 581.777 381.224 576.567 372.905C572.927 367.091 569.675 361.05 566.014 355.241Z" data-index="41"></path><path fill="#FEFEFD" d="M255.532 467.912C256.873 469.879 257.041 488.918 257.232 492.421C258.509 516.532 261.964 540.478 267.553 563.967C253.217 574.461 239.326 585.731 225.215 596.542C219.156 601.185 213.108 606.383 206.612 610.378C205.64 597.374 205.707 575.196 208.21 562.847C208.301 562.398 208.415 561.953 208.481 561.5C208.674 560.164 208.798 559.521 207.973 558.434L206.913 558.632C204.164 560.864 202.508 564.517 200.865 567.601C194.616 579.331 190.511 592.765 188.081 605.831C187.009 611.596 186.432 617.421 185.18 623.158C152.568 654.845 133.615 683.142 109.435 721.247C102.925 731.568 96.6851 742.929 89.0707 752.445C87.8937 753.916 87.2262 754.849 85.3153 755.079C84.5039 754.746 83.8138 754.449 83.1546 753.854C78.6677 749.804 77.2466 741.146 76.9786 735.374C76.2405 719.477 80.6565 703.829 85.3159 688.791C92.0894 666.928 101.531 647.712 113.395 628.207C120.64 616.294 128.099 604.527 136.656 593.5C149.393 577.085 163.825 562.276 178.38 547.503C188.157 537.58 197.774 527.47 207.665 517.664C216.827 508.58 226.222 499.74 235.229 490.498C242.295 483.248 248.681 475.365 255.532 467.912Z" data-index="42"></path><path fill="#5A595A" d="M259.272 409.333C260.408 412.758 257.253 436.822 256.925 441.818C256.503 448.234 256.358 454.681 256.144 461.108C245.143 471.914 235.151 483.785 224.189 494.666L180.905 538.233C146.801 572.995 111.789 610.239 91.9286 655.394C84.4309 672.441 77.9265 691.106 74.0894 709.353C72.8152 715.412 72.7413 721.723 71.3252 727.698C71.2883 727.854 71.2476 728.008 71.2088 728.164C67.1915 691.753 74.9832 656.229 90.7713 623.397C94.5653 615.507 98.3202 607.585 102.75 600.025C134.006 546.684 181.381 504.881 222.141 459.09C235.615 443.954 246.529 425.376 259.272 409.333Z" data-index="43"></path><path fill="#5A595A" d="M746.256 780.779C748.488 782.796 756.918 802.58 759.576 806.988C773.695 830.403 796.154 848.232 817.884 864.152C807.123 863.184 788.508 858.588 780.181 851.509C775.265 847.33 770.837 841.938 765.613 838.221C764.104 837.148 762.89 836.571 761.044 836.905L760.675 837.796C762.124 845.864 784.872 868.118 791.202 875.405C792.538 876.728 793.768 878.115 795 879.534C782.312 876.755 769.206 872.344 758.816 864.4C756.04 862.278 744.008 850.908 742.935 850.386C742.593 850.22 742.18 850.292 741.803 850.245L740.913 851.191C740.734 855.212 756.597 881.072 759.561 887.442C744.908 879.897 736.15 872.576 724.736 860.972C732.778 834.32 741.126 808.205 746.256 780.779Z" data-index="44"></path><path fill="#5A595A" d="M685.062 942.61C695.969 942.328 706.883 939.956 717.248 936.664C721.431 935.335 726.384 932.209 730.752 932.038C732.392 931.973 733.127 932.603 734.261 933.687C733.42 935.498 726.765 937.573 724.9 938.589L725.074 939.079C729.217 938.29 732.144 936.886 735.844 934.935L740.523 937.872C741.574 938.553 741.922 938.443 742.236 939.711C741.19 940.774 740.182 941.197 738.672 941.258C737.509 941.305 736.585 941.226 735.539 940.676L734.435 939.331C732.019 939.379 729.651 940.073 727.305 940.616C724.457 941.376 722.712 943.205 719.734 943.802C721.016 944.246 722.275 944.757 723.615 944.989C730.654 943.548 737.881 942.553 744.825 940.732C748.161 942.579 751.74 944.311 754.733 946.681L754.814 947.104C751.378 946.925 747.942 946.771 744.504 946.639L744.401 946.845C750.7 948.531 759.276 947.837 764.53 952.071C763.8 952.448 763.355 952.577 762.534 952.609L762.061 953.83C768.663 954.283 775.057 956.128 780.709 959.674C786.036 961.382 791.656 964.856 796.677 967.407C789.238 965.063 781.892 963.612 774.053 963.605C770.698 963.602 763.402 963.246 760.978 965.65C764.592 968.782 773.676 966.905 778.361 967.006C796.331 967.392 809.992 973.298 822.366 986.261C804.191 983.245 787.563 982.888 771.254 992.38C767.732 985.059 764.262 978.448 758.737 972.407C748.654 961.38 736.611 953.908 721.393 953.378C708.848 952.942 697.269 956.945 688.117 965.558C688.391 957.365 687.174 950.493 685.062 942.61Z" data-index="45"></path><path fill="#2C2E34" d="M723.615 944.989C714.292 947.432 704.528 951.66 694.792 951.734C693.356 951.744 691.558 951.891 690.495 950.857C691.228 949.863 692.496 949.491 693.66 949.218C696.279 948.603 699.09 948.576 701.753 948.037C707.772 946.82 713.757 945.222 719.734 943.802C721.016 944.246 722.275 944.757 723.615 944.989Z" data-index="46"></path><path fill="#74737A" d="M725.074 939.079C729.217 938.29 732.144 936.886 735.844 934.935L740.523 937.872C741.574 938.553 741.922 938.443 742.236 939.711C741.19 940.774 740.182 941.197 738.672 941.258C737.509 941.305 736.585 941.226 735.539 940.676L734.435 939.331C732.019 939.379 729.651 940.073 727.305 940.616C723.617 940.875 719.991 941.007 716.294 940.955C719.225 940.342 722.235 940.064 725.074 939.079Z" data-index="47"></path><path fill="#2C2E34" d="M740.523 937.872C741.574 938.553 741.922 938.443 742.236 939.711C741.19 940.774 740.182 941.197 738.672 941.258C737.509 941.305 736.585 941.226 735.539 940.676L734.435 939.331C736.582 939.028 738.507 938.717 740.523 937.872Z" data-index="48"></path><path fill="#131519" d="M744.722 955.136C742.381 954.876 740.226 955.901 737.835 955.262L737.62 954.566C737.745 954.457 737.858 954.331 737.997 954.238C742.319 951.35 757.429 951.959 762.534 952.609L762.061 953.83C756.318 954.069 750.417 954.322 744.722 955.136Z" data-index="49"></path><path fill="#131519" d="M751.222 958.072C759.914 957.871 769.269 958.514 777.8 960.204C778.98 960.392 779.969 960.656 781.083 961.085C776.372 961.249 764.622 962.724 760.698 960.358C760.928 960.269 761.787 959.93 761.998 959.879C762.25 959.817 762.511 959.804 762.768 959.767L762.487 959.281C758.684 958.736 755.017 959.022 751.222 958.072Z" data-index="50"></path><path fill="#5A595A" d="M370.82 206.541C370.638 208.466 369.566 210.899 369.004 212.781C367.244 218.662 365.504 224.732 365.738 230.934C366.289 245.497 374.18 257.47 376.259 271.488C377.253 278.195 376.568 284.586 375.682 291.248C365.8 281.984 354.81 273.228 341.212 270.588C331.842 269.739 324.023 272.155 315.767 276.339C323.384 264.13 332.125 252.878 340.885 241.49C350.17 229.42 359.488 216.793 370.82 206.541Z" data-index="51"></path><path fill="#414146" d="M725.034 958.418L725.729 957.968C737.1 958.946 749.584 968.475 757.021 976.672C759.942 979.892 766.748 987.935 766.549 992.378C765.701 992.705 766.072 992.469 765.428 993.073C765.959 994.204 766.414 995.051 766.348 996.341C760.931 996.828 751.592 994.032 746.137 992.95C729.794 989.707 699.696 986.011 685.287 995.049C683.217 986.441 682.196 982.28 685.294 973.699C687.709 969.852 691.242 966.325 695.107 963.917C696.484 963.059 698.007 962.242 699.637 962.642C699.018 963.262 698.593 963.591 698.286 964.427C700.383 964.883 704.456 962.777 706.847 962.314C712.356 961.245 718.154 961.021 723.635 962.377C735.75 965.374 746.952 973.951 755.694 982.543C758.291 985.095 761.413 989.722 764.741 991.128L764.892 990.464C763.959 988.509 762.477 986.442 761.079 984.785C760.662 984.291 760.253 983.822 759.882 983.291C753.41 974.029 743.01 966.188 732.702 961.674C730.796 960.839 726.649 960.102 725.283 958.746C725.186 958.649 725.117 958.527 725.034 958.418Z" data-index="52"></path><path fill="#A57F71" d="M653.743 131.981C659.107 132.541 665.567 136.806 670.348 139.286C661.661 146.281 653.802 154.246 646.926 163.027C634.824 154.845 622.821 152.763 608.376 153.171C601.706 153.508 594.72 154.02 588.148 155.274C586.485 155.591 585.534 155.091 583.995 154.483C603.869 152.797 633.994 138.668 653.743 131.981Z" data-index="53"></path><path fill="#D1B6AC" d="M607.832 155.718C621.586 155.538 633.64 157.987 645.382 165.327C643.787 167.324 642.149 169.164 640.189 170.812C636.226 174.145 632.427 174.884 627.392 174.474C613.574 171.187 601.4 162.134 588.65 156.052C595.046 156.124 601.443 156.013 607.832 155.718Z" data-index="54"></path><path fill="#FEFEFD" d="M640.509 56.5681C650.402 64.9804 656.958 74.0505 661.887 86.1002C660.109 84.8196 658.368 83.4826 656.612 82.1727C654.847 80.7968 652.224 78.8505 649.83 79.2852C648.531 79.5212 647.596 80.4031 646.974 81.5188C643.951 86.936 645.617 92.9639 645.079 98.7186C638.909 91.2658 635.488 77.2502 636.497 67.7049C636.933 63.5823 638.198 60.0038 640.509 56.5681Z" data-index="55"></path><path fill="#FEFEFD" d="M708.093 114.629L708.9 114.674C707.087 116.71 699.254 119.624 696.452 121.176C689.11 125.244 682.322 130.237 675.468 135.06L670.883 131.887L664.423 128.107C671.47 125.896 678.328 122.988 685.336 120.633C692.823 118.118 700.383 116.308 708.093 114.629Z" data-index="56"></path><path fill="#FEFEFD" d="M656.612 82.1727C658.368 83.4826 660.109 84.8196 661.887 86.1002L663.054 87.9815C662.855 88.5201 662.693 89.017 662.391 89.5077L663.331 91.3331C663.25 92.6469 663.118 92.7593 662.304 93.8129C661.982 93.8154 661.657 93.8543 661.337 93.8203C659.21 93.5943 657.521 91.8047 656.274 90.2288C655.655 89.4459 655.483 89.1984 654.607 88.6498L653.42 89.189C653.108 91.2567 654.629 92.423 654.52 94.4238C652.958 94.8655 651.356 95.2621 649.848 94.4042C649.179 94.024 648.846 93.4248 648.739 92.6517C648.393 90.1477 650.033 87.6676 651.651 85.9665C651.032 85.8156 651.368 85.8593 650.502 85.907C650.264 85.9201 650.026 85.9379 649.788 85.9534L649.161 85.1955L649.779 84.5433C652.184 83.9228 654.34 83.1512 656.612 82.1727Z" data-index="57"></path><path fill="#2C2E34" d="M656.612 82.1727C658.368 83.4826 660.109 84.8196 661.887 86.1002L663.054 87.9815C662.855 88.5201 662.693 89.017 662.391 89.5077C661.382 88.6248 660.319 87.7253 659.216 86.9594C656.802 85.284 654.403 85.3712 651.651 85.9665C651.032 85.8156 651.368 85.8593 650.502 85.907C650.264 85.9201 650.026 85.9379 649.788 85.9534L649.161 85.1955L649.779 84.5433C652.184 83.9228 654.34 83.1512 656.612 82.1727Z" data-index="58"></path></svg>